<svg preserveAspectRatio="none" width="100%" height="100%" overflow="visible" style="display: block;" viewBox="0 0 281.43 241.596" fill="none" xmlns="http://www.w3.org/2000/svg">
<g id="Character">
<path id="Shape" fill-rule="evenodd" clip-rule="evenodd" d="M87.0627 32.1398V60.2764C87.0627 60.9789 86.4951 61.5466 85.7925 61.5466H85.7503C85.0506 61.5466 84.4804 60.9789 84.4804 60.2764V35.5652C83.7947 35.9674 83.0075 36.195 82.1731 36.195C79.9952 36.195 78.1516 34.6465 77.5162 32.5051C77.2745 31.6898 77.8843 30.8692 78.7361 30.8692H85.6098C85.6351 30.8692 85.6576 30.8692 85.6829 30.8723C85.7054 30.8692 85.7279 30.8692 85.7503 30.8692H85.7925C86.4951 30.8692 87.0627 31.4372 87.0627 32.1398" fill="var(--fill-0, white)"/>
<path id="Shape_2" fill-rule="evenodd" clip-rule="evenodd" d="M85.8686 30.6604C86.6243 30.7082 87.264 31.3669 87.2735 32.1384V37.2239C87.2477 37.4537 86.884 37.508 86.852 37.2239C86.852 35.52 86.8728 33.8161 86.8517 32.1122C86.83 31.5457 86.3264 31.0794 85.7506 31.08C85.709 31.08 85.6683 31.0809 85.6261 31.08C83.3183 31.0741 81.0099 31.0283 78.7027 31.0806C78.0316 31.1059 77.5134 31.802 77.7478 32.5414C77.7731 32.6209 77.8 32.6999 77.829 32.778C77.9479 33.1006 78.0979 33.412 78.2772 33.7054C78.9508 34.8076 80.0634 35.6462 81.3182 35.8991C82.3541 36.1079 83.4552 35.9174 84.3744 35.3831C84.3744 35.3831 84.6591 35.2921 84.6911 35.5652V60.2749C84.6993 60.9188 85.3268 61.453 86.0066 61.3142C86.4799 61.2178 86.8458 60.7729 86.852 60.2749V56.2832C86.8781 56.0519 87.2432 56.0137 87.2735 56.2832V60.2778C87.2617 61.2369 86.218 62.0249 85.242 61.6674C84.6774 61.4609 84.2775 60.8924 84.2696 60.2778V35.9176C84.2258 35.939 84.1819 35.9598 84.1375 35.98C81.6572 37.0946 78.4551 35.6937 77.4333 32.9238C77.0817 31.9706 77.4771 30.7048 78.6901 30.659C81.0029 30.6068 83.3172 30.6526 85.6306 30.6585C85.7073 30.6599 85.7883 30.6573 85.8686 30.6604Z" fill="var(--fill-0, #091626)"/>
<path id="Shape_3" fill-rule="evenodd" clip-rule="evenodd" d="M87.118 40.7671C87.2812 40.8031 87.2999 40.8337 87.3122 40.9753V54.3888C87.2926 54.6173 86.8767 54.678 86.8519 54.3888V40.9753C86.8672 40.7977 86.9182 40.7527 87.118 40.7671Z" fill="var(--fill-0, #091626)"/>
<path id="Shape_4" fill-rule="evenodd" clip-rule="evenodd" d="M96.4546 70.2273V101.753H0.210764V76.2891C0.210764 66.6639 8.0124 58.86 17.6404 58.86H85.0873C91.3655 58.86 96.4546 63.9491 96.4546 70.2273" fill="var(--fill-0, #9EBAEB)"/>
<path id="Shape_5" fill-rule="evenodd" clip-rule="evenodd" d="M85.0872 58.86H85.0869C78.809 58.86 73.7196 63.9491 73.7196 70.2273V101.753H96.4545V70.2273C96.4545 63.9491 91.3651 58.86 85.0872 58.86" fill="var(--fill-0, #091626)"/>
<path id="Shape_6" fill-rule="evenodd" clip-rule="evenodd" d="M0.298452 80.115C0.365899 80.1583 0.409459 80.2221 0.421543 80.3067V101.543H47.3449C47.3449 101.543 47.4638 101.506 47.5366 101.666C47.5919 101.787 47.5655 101.932 47.3449 101.964H0.210771C0.0888051 101.948 0.0168617 101.88 0 101.753V80.3067C0.0219202 80.1535 0.117189 80.0619 0.298452 80.115Z" fill="var(--fill-0, #091626)"/>
<path id="Shape_7" fill-rule="evenodd" clip-rule="evenodd" d="M85.162 58.6495C89.0399 58.6863 92.8414 60.7814 94.9157 64.1045C96.0541 65.9278 96.6586 68.071 96.6653 70.227V101.753C96.6493 101.875 96.5816 101.947 96.4546 101.964H58.2723C58.1709 101.951 58.1478 101.927 58.1234 101.902C58.0079 101.787 58.0767 101.568 58.2723 101.543H96.2438C96.2438 91.0802 96.277 80.6175 96.2435 70.1551C96.2014 65.6356 93.1786 61.2453 88.7946 59.7014C87.6072 59.2832 86.3491 59.0747 85.087 59.0707H69.2858C69.1844 59.0575 69.1614 59.0336 69.1369 59.0089C69.0214 58.8937 69.0903 58.6751 69.2858 58.6492C74.5779 58.6492 79.8699 58.6326 85.162 58.6495Z" fill="var(--fill-0, #091626)"/>
<path id="Shape_8" fill-rule="evenodd" clip-rule="evenodd" d="M64.8041 58.6596C65.0505 58.7852 64.96 58.96 64.8628 59.0306C64.8145 59.0657 64.7959 59.0618 64.7389 59.0707C49.0024 59.0707 33.2656 59.0218 17.5292 59.071C11.7911 59.1258 6.16296 62.22 3.07783 67.0966C1.35231 69.8246 0.431941 73.0224 0.421543 76.2899C0.421543 76.2899 0.460325 76.4304 0.275127 76.49C0.159905 76.5271 0.0345665 76.5119 0 76.2888C0.019391 70.2259 3.29225 64.4055 8.40135 61.2588C11.1622 59.5586 14.3934 58.6593 17.6402 58.6492H64.7389C64.7605 58.6526 64.7824 58.6559 64.8041 58.6596Z" fill="var(--fill-0, #091626)"/>
<path id="Shape_9" fill-rule="evenodd" clip-rule="evenodd" d="M71.5192 80.0741C71.7735 80.1979 71.7602 80.3716 71.5626 80.4978L35.3107 97.3972C35.0971 97.4646 34.882 97.1301 35.1163 96.9802L71.3682 80.0809C71.4239 80.0634 71.3891 80.0465 71.5192 80.0741Z" fill="var(--fill-0, #091626)"/>
<path id="Shape_10" fill-rule="evenodd" clip-rule="evenodd" d="M71.4834 87.6762C71.6724 87.7251 71.7425 88.0018 71.5625 88.1086L53.4366 96.5586C53.2231 96.6328 53.0147 96.2769 53.2422 96.1417L71.3682 87.6917C71.4104 87.6771 71.3812 87.6697 71.4834 87.6762Z" fill="var(--fill-0, #091626)"/>
<path id="Shape_11" fill-rule="evenodd" clip-rule="evenodd" d="M85.1435 58.6492C89.8791 58.6832 94.4227 61.8557 96.0142 66.3904C96.4456 67.6191 96.6611 68.9202 96.6653 70.227V101.753C96.6493 101.875 96.5816 101.947 96.4546 101.964H73.7196C73.5977 101.948 73.5257 101.88 73.5089 101.753C73.5089 91.2173 73.4718 80.6813 73.5091 70.1452C73.5457 66.6498 75.2431 63.2047 78.0081 61.0649C80.0029 59.5215 82.5049 58.6669 85.033 58.6492C85.0698 58.6492 85.1066 58.6492 85.1435 58.6492ZM85.0347 59.0707C81.4856 59.0955 77.9972 60.9154 75.9564 63.8151C74.6474 65.6749 73.9386 67.935 73.9305 70.2276V101.543H96.2439C96.2439 91.0802 96.277 80.6178 96.2436 70.1554C96.2146 67.0522 94.8469 64.0062 92.5576 61.9412C90.5468 60.1274 87.8762 59.0904 85.1415 59.0707C85.1058 59.0707 85.0704 59.0707 85.0347 59.0707Z" fill="var(--fill-0, #091626)"/>
<path id="Shape_12" fill-rule="evenodd" clip-rule="evenodd" d="M55.7279 239.227H48.735L49.312 101.753H56.3051L55.7279 239.227ZM115.552 101.753L115.535 99.6313H0.210764V101.753H47.3449L46.7679 239.227H32.4838C31.9406 239.227 31.5002 239.667 31.5002 240.211C31.5002 240.754 31.9406 241.194 32.4838 241.194H63.0055C63.5487 241.194 63.9891 240.754 63.9891 240.211C63.9891 239.667 63.5487 239.227 63.0055 239.227H57.6952L58.2724 101.753H115.552Z" fill="var(--fill-0, white)"/>
<path id="Shape_13" fill-rule="evenodd" clip-rule="evenodd" d="M58.161 147.52L58.2745 147.635L58.2902 147.716L57.9069 239.015H63.007C63.1413 239.017 63.1529 239.023 63.2169 239.034C64.0316 239.18 64.5035 240.337 63.8897 241.013C63.6733 241.251 63.3608 241.391 63.0362 241.404C52.8526 241.528 42.6673 241.404 32.4825 241.404C31.5711 241.393 30.9144 240.125 31.6195 239.386C31.8412 239.153 32.1577 239.019 32.4825 239.015H46.5581L46.7467 194.094C46.7467 194.094 46.7217 194.003 46.8777 193.9C46.8777 193.9 47.1202 193.849 47.1682 194.095L46.9788 239.227C46.9569 239.335 46.8945 239.412 46.7681 239.437C42.0001 239.437 37.2316 239.379 32.464 239.437C31.9879 239.455 31.5995 239.969 31.7459 240.44C31.8409 240.746 32.1388 240.97 32.464 240.982C42.6504 241.106 52.8391 241.106 63.0256 240.982C63.6885 240.957 64.0909 239.852 63.3235 239.505C63.2228 239.459 63.1146 239.438 63.0042 239.437H57.6953L57.5461 239.375L57.4845 239.225L57.8687 147.714C57.8687 147.714 57.8437 147.623 57.9996 147.52C57.9996 147.52 58.0716 147.502 58.161 147.52ZM47.4259 101.558L47.54 101.672L47.5557 101.753L47.1839 190.345L47.1215 190.494L46.9723 190.555C46.6988 190.499 46.7624 190.343 46.7624 190.343L47.1333 101.963H20.6334C20.4499 101.927 20.4387 101.833 20.4387 101.833C20.3842 101.559 20.5528 101.558 20.5528 101.558L20.6334 101.542H47.3449C47.3719 101.547 47.3989 101.552 47.4259 101.558ZM58.312 142.485C58.2564 142.758 58.1004 142.695 58.1004 142.695L57.9515 142.632L57.8905 142.483L58.0616 101.752C58.0616 101.752 57.9995 101.596 58.2724 101.542H115.339L115.325 99.841H0.421543V101.542H16.3137C16.5723 101.593 16.5245 101.658 16.5245 101.753C16.5245 102.044 16.3137 101.963 16.3137 101.963H0.210771C0.0275408 101.927 0.0160186 101.833 0.0160186 101.833L0 101.753V99.6302C0.0365337 99.4467 0.130116 99.4355 0.130116 99.4355L0.210771 99.4194H115.535C115.642 99.4405 115.719 99.5018 115.745 99.6285L115.762 101.751L115.701 101.901L115.552 101.963H58.4823C58.4256 115.47 58.3688 128.978 58.312 142.485Z" fill="var(--fill-0, #091626)"/>
<path id="Shape_14" fill-rule="evenodd" clip-rule="evenodd" d="M218.695 134.353C219.184 136.536 220.587 138.661 222.388 140.007C223.706 140.993 225.403 141.671 227.267 141.671C228.247 141.671 229.273 141.482 230.313 141.055C230.47 141.179 230.63 141.297 230.788 141.407C232.289 142.452 234.149 143.152 236.158 143.149C237.527 143.149 238.963 142.823 240.402 142.061C241.107 142.438 241.849 142.733 242.613 142.918C243.091 143.034 243.766 143.149 244.572 143.149C245.786 143.149 247.295 142.888 248.847 141.966C249.549 142.348 250.294 142.649 251.061 142.837C251.536 142.952 252.208 143.067 253.003 143.067C255.184 143.067 258.312 142.207 260.948 138.166C262.274 136.134 261.622 133.383 259.467 132.178C257.536 131.101 255.077 131.776 253.852 133.616C253.843 133.628 253.838 133.636 253.832 133.647L253.765 133.611L253.852 133.616C253.852 133.616 248.096 131.63 248.552 119.467C248.866 111.039 250.51 82.3228 251.491 65.4894C251.916 58.1686 247.127 51.5614 240.036 49.6869L205.009 40.4217L202.227 59.6409L230.42 67.6309C230.42 67.6309 220.487 109.105 216.496 117.25L216.357 117.567L215.927 118.418C214.977 120.304 214.126 122.238 213.375 124.21C212.628 126.183 211.981 128.195 211.442 130.236C211.141 131.011 211.085 131.82 211.237 132.582C211.242 132.607 211.245 132.633 211.254 132.655C211.543 133.993 212.479 135.159 213.847 135.69C214.347 135.884 214.862 135.977 215.371 135.977C216.661 135.977 217.897 135.378 218.695 134.353C218.695 134.353 217.952 131.663 217.401 123.807" fill="var(--fill-0, #FFB59C)"/>
<path id="Shape_15" fill-rule="evenodd" clip-rule="evenodd" d="M231.515 63.6945C231.685 63.7735 231.673 63.8671 231.673 63.8671L231.67 63.9491C228.339 77.6279 224.851 91.4748 220.869 105.03C219.804 108.656 218.749 112.294 217.35 115.811C217.151 116.312 216.941 116.809 216.707 117.294L216.546 117.657C214.508 121.695 212.815 125.892 211.644 130.29C211.474 130.816 211.276 132.006 211.525 132.876C212.064 134.718 214.049 136.013 215.966 135.721C216.929 135.575 217.828 135.066 218.455 134.313C218.455 134.313 218.411 134.084 218.363 133.853C217.682 130.564 217.429 127.188 217.189 123.822L217.24 123.669C217.24 123.669 217.295 123.51 217.537 123.648L217.61 123.792C217.841 127.045 218.099 130.293 218.711 133.449C218.762 133.71 218.816 133.97 218.88 134.229C218.88 134.229 218.88 134.47 218.698 134.679C217.387 136.174 215.015 136.604 213.253 135.648C212.146 135.046 211.341 133.96 211.048 132.711C210.851 131.868 210.932 130.997 211.229 130.198C211.229 130.198 211.541 129.043 211.832 128.081C212.851 124.722 214.165 121.456 215.737 118.324L216.165 117.477L216.303 117.162C216.858 116.022 217.289 114.83 217.709 113.638C219.597 108.281 221.109 102.793 222.625 97.3044C225.679 86.2417 228.506 75.1405 231.229 63.9795L231.295 63.7749L231.433 63.6911C231.46 63.6923 231.488 63.6934 231.515 63.6945Z" fill="var(--fill-0, #091626)"/>
<path id="Shape_16" fill-rule="evenodd" clip-rule="evenodd" d="M202.33 59.4008L230.522 67.3907C230.522 67.3907 230.652 67.4448 230.669 67.568C230.691 67.7197 230.555 67.8585 230.397 67.8336L202.204 59.8437C201.995 59.7557 202.041 59.3564 202.33 59.4008Z" fill="var(--fill-0, #091626)"/>
<path id="Shape_17" fill-rule="evenodd" clip-rule="evenodd" d="M205.06 40.2177L221.987 44.6951C221.987 44.6951 222.109 44.7455 222.134 44.853C222.169 45.0065 222.026 45.1661 221.869 45.1401L204.943 40.6627C204.731 40.5844 204.765 40.1692 205.06 40.2177Z" fill="var(--fill-0, #091626)"/>
<path id="Shape_18" fill-rule="evenodd" clip-rule="evenodd" d="M227.303 46.1013C231.593 47.2361 235.886 48.3602 240.173 49.5059C243.651 50.4561 246.768 52.6242 248.847 55.5559C250.863 58.4002 251.879 61.9184 251.705 65.4147C250.981 78.4898 250.188 91.6184 249.484 104.732C249.484 104.732 249.506 104.821 249.388 104.898C249.266 104.976 249.089 104.959 249.063 104.709C249.767 91.6029 250.557 78.5109 251.284 65.3925C251.457 61.9145 250.415 58.4056 248.362 55.6051C246.323 52.8221 243.318 50.7829 239.98 49.8909L227.195 46.5088C226.942 46.3972 227.022 46.2176 227.115 46.1417C227.204 46.0698 227.257 46.0965 227.303 46.1013Z" fill="var(--fill-0, #091626)"/>
<path id="Shape_19" fill-rule="evenodd" clip-rule="evenodd" d="M248.92 112.598C249.007 112.639 249.058 112.708 249.066 112.809C248.845 117.257 248.327 121.725 249.225 126.03C249.763 128.607 250.828 131.214 252.881 132.796C253.159 133.011 253.457 133.205 253.775 133.355C253.775 133.355 254.001 133.058 254.178 132.873C255.42 131.573 257.468 131.087 259.133 131.782C261.521 132.778 262.599 136.055 261.061 138.376C260.999 138.47 260.936 138.563 260.872 138.656C259.469 140.68 257.503 142.376 255.151 142.999C253.069 143.551 250.804 143.225 248.881 142.223C248.881 142.223 248.87 142.202 248.583 142.356C246.08 143.672 242.988 143.623 240.437 142.318C240.437 142.318 240.31 142.346 240.225 142.388C240.156 142.422 240.156 142.422 240.087 142.454C236.956 143.923 233.134 143.454 230.303 141.315C230.303 141.315 229.74 141.505 229.251 141.63C227.176 142.16 224.905 141.797 223.06 140.708C220.797 139.372 219.124 137.079 218.513 134.504C218.492 134.414 218.467 134.318 218.516 134.241C218.605 134.099 218.834 134.127 218.9 134.306C219.822 138.355 223.627 141.718 227.762 141.443C228.593 141.388 229.411 141.19 230.185 140.88C230.185 140.88 230.441 140.894 230.734 141.109C233.49 143.103 237.214 143.495 240.304 141.875C240.304 141.875 240.343 141.815 240.5 141.875C243.068 143.235 246.2 143.277 248.74 141.784C248.74 141.784 248.936 141.776 249.077 141.85C249.142 141.884 249.142 141.884 249.207 141.917C251.665 143.152 254.679 143.121 257.025 141.771C258.611 140.859 259.923 139.475 260.857 137.914C261.847 136.257 261.415 133.883 259.86 132.688C258.161 131.383 255.437 131.764 254.111 133.612C253.846 133.981 253.852 133.89 253.732 133.833C253.25 133.605 252.329 132.981 251.616 132.19C248.376 128.593 248.197 122.956 248.379 118.495C248.444 116.934 248.518 115.373 248.594 113.812L248.619 113.306L248.645 112.788C248.645 112.788 248.689 112.556 248.92 112.598Z" fill="var(--fill-0, #091626)"/>
<path id="Shape_20" fill-rule="evenodd" clip-rule="evenodd" d="M257.506 131.452C259.415 131.477 261.192 132.871 261.688 134.705C262.05 136.044 261.68 137.486 260.87 138.656C259.303 140.916 256.984 142.761 254.292 143.179C253.742 143.264 253.184 143.294 252.628 143.27C248.712 143.098 245.108 140.095 243.35 136.619C243.216 136.354 243.093 136.082 242.987 135.805C242.954 135.717 242.921 135.629 242.891 135.541C242.781 135.215 243.151 135.065 243.264 135.324C243.956 137.432 245.439 139.21 247.186 140.609C249.212 142.231 251.848 143.206 254.455 142.724C257.03 142.247 259.194 140.43 260.707 138.144C261.783 136.519 261.54 134.189 260.101 132.891C258.424 131.378 255.448 131.699 254.08 133.652C253.973 133.805 254.029 133.756 253.963 133.81C253.787 133.955 253.417 133.827 253.83 133.279C254.684 132.146 256.078 131.45 257.506 131.452Z" fill="var(--fill-0, #091626)"/>
<path id="Shape_21" fill-rule="evenodd" clip-rule="evenodd" d="M226.527 135.172C226.759 135.198 226.712 135.312 226.763 135.542C227.253 137.672 228.69 139.507 230.442 140.89C230.442 140.89 230.514 140.96 230.521 141.036C230.535 141.195 230.331 141.328 230.18 141.221C228.287 139.726 226.755 137.725 226.307 135.422C226.307 135.422 226.318 135.169 226.527 135.172Z" fill="var(--fill-0, #091626)"/>
<path id="Shape_22" fill-rule="evenodd" clip-rule="evenodd" d="M234.544 135.175C234.712 135.22 234.7 135.306 234.749 135.462C235.349 137.301 236.622 138.876 238.095 140.185C239.898 141.788 242.186 142.928 244.573 142.938C244.573 142.938 244.675 142.95 244.727 143.006C244.837 143.125 244.755 143.348 244.571 143.36C244.495 143.359 244.495 143.359 244.419 143.358C240.677 143.276 237.237 140.695 235.247 137.473C234.872 136.865 234.544 136.222 234.332 135.541C234.316 135.49 234.272 135.142 234.544 135.175Z" fill="var(--fill-0, #091626)"/>
<path id="Shape_23" fill-rule="evenodd" clip-rule="evenodd" d="M217.4 123.807C217.95 131.663 218.694 134.353 218.694 134.353C218.246 134.929 217.659 135.37 217.003 135.646L217.4 123.807Z" fill="var(--fill-0, #091626)"/>
<path id="Shape_24" fill-rule="evenodd" clip-rule="evenodd" d="M229.003 67.2299L231.412 64.1144L230.518 67.6683L229.003 67.2299Z" fill="var(--fill-0, #091626)"/>
<path id="Shape_25" fill-rule="evenodd" clip-rule="evenodd" d="M131.921 65.6103L99.8611 87.3085C98.7817 88.0364 97.641 88.6546 96.4548 89.1523C94.0523 90.1609 91.4609 90.6893 88.8307 90.6893H73.7196V70.2276C73.7196 68.508 74.102 66.8777 74.7847 65.4166C77.8422 65.7679 85.874 66.8106 89.9071 67.3386L91.9415 67.6059L92.0342 67.6171L92.2871 67.6505L95.567 65.8154L124.266 49.7659L131.921 65.6103Z" fill="var(--fill-0, #FFB59C)"/>
<path id="Shape_26" fill-rule="evenodd" clip-rule="evenodd" d="M74.8087 65.207C80.5518 65.8733 86.2915 66.7088 92.0605 67.408L92.3145 67.4414C92.5405 67.4976 92.5306 67.8647 92.2594 67.8596C86.5686 67.107 80.8168 66.3398 75.061 65.6606L74.9124 65.6434C74.2682 67.0834 73.9358 68.6496 73.9302 70.2278V90.4785H88.8303C92.6633 90.4664 96.5125 89.2982 99.7432 87.1337L101.873 85.6926C102.079 85.5844 102.315 85.8654 102.109 86.0416L99.9787 87.4833C96.6983 89.6812 92.8069 90.8877 88.8309 90.9H73.7194C73.6064 90.8874 73.528 90.8621 73.5086 90.6893C73.5086 83.8414 73.4845 76.9933 73.5089 70.1455C73.5261 68.5082 73.8827 66.8884 74.5611 65.397C74.5611 65.397 74.6235 65.205 74.8087 65.207Z" fill="var(--fill-0, #091626)"/>
<path id="Shape_27" fill-rule="evenodd" clip-rule="evenodd" d="M124.329 49.5649C124.362 49.5807 124.398 49.588 124.455 49.6743L132.11 65.5187C132.142 65.6187 132.122 65.7089 132.039 65.7848L105.621 83.6641C105.522 83.7125 105.486 83.7032 105.449 83.6931C105.296 83.6523 105.246 83.4418 105.385 83.3151L131.652 65.5378L124.173 50.059L95.6693 65.9995L88.5427 69.9859C88.5427 69.9859 88.4879 70.0432 88.3682 69.9999C88.2246 69.9482 88.1361 69.7715 88.337 69.6177L95.4636 65.6314L124.162 49.5818C124.162 49.5818 124.251 49.5515 124.329 49.5649Z" fill="var(--fill-0, #091626)"/>
<path id="Shape_28" fill-rule="evenodd" clip-rule="evenodd" d="M89.9078 67.3394L88.44 69.8018L92.2862 67.6508L89.9078 67.3394Z" fill="var(--fill-0, #091626)"/>
<path id="Shape_29" fill-rule="evenodd" clip-rule="evenodd" d="M125.97 58.1403L128.88 67.6683L130.896 66.3036L125.97 58.1403Z" fill="var(--fill-0, #091626)"/>
<path id="Shape_30" fill-rule="evenodd" clip-rule="evenodd" d="M149.37 33.8703L151.687 39.1419L147.982 39.2481C146.784 39.3189 146.7 39.2827 145.978 39.4547C149.014 43.8098 154.765 45.7109 163.947 44.618C170.825 43.1137 174.13 40.4237 173.684 36.4898L163.067 37.2239L157.952 24.4556L149.37 33.8703Z" fill="var(--fill-0, #FFB59C)"/>
<path id="Shape_31" fill-rule="evenodd" clip-rule="evenodd" d="M150.907 35.5177C152.605 35.5177 154.198 35.0439 155.56 34.2222L151.789 39.2341C151.771 39.2571 151.735 39.2529 151.724 39.2265L150.094 35.5177H150.907Z" fill="var(--fill-0, #091626)"/>
<path id="Shape_32" fill-rule="evenodd" clip-rule="evenodd" d="M158.013 24.2538C158.071 24.2786 158.117 24.3196 158.148 24.3772L163.205 37.003L173.67 36.2796C173.67 36.2796 173.825 36.2976 173.884 36.421L176.112 42.8737C176.153 43.0572 176.074 43.1002 175.975 43.1437L156.309 49.2471C156.247 49.2592 156.185 49.2502 156.127 49.2187L143.385 40.3205C143.104 40.0681 143.461 39.9397 143.735 39.8484C145.104 39.3979 146.518 39.0859 147.975 39.0373L151.368 38.9401L149.177 33.9552C149.177 33.9552 149.142 33.8285 149.214 33.7284L157.796 24.3137C157.854 24.2628 157.927 24.2381 158.013 24.2538ZM149.618 33.9111L151.88 39.057C151.88 39.057 151.945 39.3141 151.693 39.3526C149.346 39.4198 146.991 39.3285 144.768 39.9678C144.514 40.0406 144.262 40.1201 144.011 40.2014L143.97 40.2148L156.283 48.814L175.642 42.8056L173.538 36.7113L163.081 37.4341C162.987 37.4307 162.916 37.3877 162.871 37.3023L157.881 24.8459C155.127 27.8676 152.372 30.8895 149.618 33.9111Z" fill="var(--fill-0, #091626)"/>
<path id="Shape_33" fill-rule="evenodd" clip-rule="evenodd" d="M161.436 21.9244C161.436 23.5333 160.131 24.8375 158.523 24.8375C156.914 24.8375 155.61 23.5333 155.61 21.9244C155.61 20.3155 156.914 19.0115 158.523 19.0115C160.131 19.0115 161.436 20.3155 161.436 21.9244" fill="var(--fill-0, #FFB59C)"/>
<path id="Shape_34" fill-rule="evenodd" clip-rule="evenodd" d="M158.563 18.801C160.324 18.8347 161.867 20.5678 161.616 22.3611C161.41 23.8323 160.018 25.0486 158.522 25.0486C156.721 25.0486 155.117 23.2236 155.448 21.3722C155.699 19.9656 156.995 18.8294 158.482 18.801C158.523 18.8007 158.522 18.8007 158.563 18.801ZM158.487 19.2226C156.963 19.2518 155.628 20.7421 155.847 22.3026C156.025 23.5768 157.229 24.6267 158.522 24.6267C160.094 24.6267 161.484 23.0207 161.176 21.4132C160.946 20.2123 159.832 19.247 158.557 19.2226C158.522 19.2226 158.523 19.2226 158.487 19.2226Z" fill="var(--fill-0, #091626)"/>
<path id="Shape_35" fill-rule="evenodd" clip-rule="evenodd" d="M159.962 14.9827V26.463C159.962 31.4428 155.887 35.5174 150.907 35.5174H145.713C142.171 35.5174 139.272 32.6192 139.272 29.0763V26.5872C139.272 25.906 138.599 25.2981 137.621 25.2205C137.372 25.2006 137.072 25.2995 136.827 25.211C135.325 24.6689 134.515 23.8775 134.504 22.1053C134.497 21.0442 135.49 19.3771 137.415 19.3771C138.325 19.3771 139.319 20.1159 139.272 19.3305V14.6398C139.272 12.7853 140.79 11.2675 142.645 11.2675H156.246C158.29 11.2675 159.962 12.9393 159.962 14.9827" fill="var(--fill-0, #FFB59C)"/>
<path id="Shape_36" fill-rule="evenodd" clip-rule="evenodd" d="M139.267 25.2124C139.267 26.8696 139.302 29.6872 139.302 29.6872C139.302 29.6872 136.485 32.6445 136.165 19.3864C135.975 11.5426 136.068 8.38948 141.751 7.60569C145.047 7.15071 147.153 8.27482 150.639 2.5913C154.125 -3.09251 166.97 2.06072 164.191 11.0831C162.035 18.0816 144.526 12.7912 144.526 12.7912C144.526 12.7912 140.333 11.2683 140.636 19.0739C140.636 19.0739 141.015 22.5977 138.211 19.2254L137.583 25.2124H139.267Z" fill="var(--fill-0, #091626)"/>
<path id="Shape_37" fill-rule="evenodd" clip-rule="evenodd" d="M155.487 0.000210771C159.719 0.0634422 163.981 2.98614 164.693 7.35529C165.063 9.62179 164.527 12.1631 162.685 13.4584C161.073 14.5918 158.983 14.8548 157.028 14.9099C152.804 15.0282 148.576 14.1983 144.517 13.0085C143.803 12.796 143.009 12.8623 142.402 13.2999C141.286 14.1042 141.019 15.6049 140.896 16.8538C140.824 17.5867 140.817 18.3247 140.846 19.0596C140.853 19.2167 140.858 19.2271 140.861 19.2844C140.882 19.9398 140.818 20.7657 140.182 20.8851C139.58 20.9981 139.092 20.4701 138.717 20.0983C138.598 19.9797 138.483 19.8569 138.37 19.7321L137.817 25.0016H139.267C139.267 25.0016 139.459 25.0494 139.478 25.2121C139.478 25.4347 139.479 25.6573 139.479 25.8796C139.484 26.8219 139.492 27.7639 139.502 28.7062L139.507 29.2188L139.509 29.7266C139.469 29.8623 139.506 29.7982 139.364 29.9135C139.256 30.0011 139.132 30.0717 139 30.1183C138.344 30.3507 137.663 29.6999 137.37 29.1482C136.86 28.1868 136.648 27.0846 136.47 25.994C135.891 22.4555 135.784 18.812 135.989 15.2854C136.009 14.9363 136.036 14.5876 136.071 14.2397C136.098 13.9797 136.129 13.72 136.167 13.4612C136.197 13.2572 136.23 13.0537 136.269 12.8511C136.585 11.1939 137.322 9.50432 138.76 8.52578C140.475 7.35782 142.667 7.24372 144.831 7.10433C147.238 6.93853 148.941 4.89236 150.503 2.412C151.498 0.861564 153.368 0.0302808 155.323 0.000210771C155.405 -7.02572e-05 155.405 -7.02572e-05 155.487 0.000210771ZM155.328 0.421733C153.651 0.447588 151.943 1.09171 150.982 2.45413C149.723 4.23923 148.674 6.44193 146.482 7.22712C145.047 7.74084 143.446 7.5045 141.886 7.79283C140.352 8.07639 138.824 8.68173 137.878 9.93764C136.698 11.5047 136.502 13.5685 136.402 15.4534C136.219 18.8971 136.334 22.401 136.859 25.7593C137.051 26.9862 137.215 28.2807 137.954 29.2935C137.979 29.3281 138.005 29.3621 138.033 29.3949C138.271 29.6807 138.716 29.8707 139.081 29.6001L139.09 29.5931C139.074 28.2402 139.061 26.8896 139.057 25.5361V25.4232H137.583C137.583 25.4232 137.374 25.3672 137.374 25.1905L138.001 19.2034C138.021 19.1135 138.043 19.0947 138.065 19.0733C138.144 18.9972 138.24 18.9646 138.372 19.0899C138.436 19.1661 138.436 19.1658 138.5 19.2414C138.597 19.3541 138.696 19.4659 138.797 19.575C138.868 19.6508 138.94 19.7259 139.014 19.7989C139.079 19.863 139.145 19.926 139.212 19.9869C139.264 20.0339 139.317 20.0794 139.371 20.1235C139.418 20.162 139.467 20.1994 139.516 20.2351C139.553 20.2618 139.591 20.2874 139.629 20.3118C139.657 20.3298 139.686 20.3469 139.715 20.3632C139.741 20.3776 139.767 20.3911 139.794 20.4037C139.813 20.4127 139.832 20.4209 139.851 20.4287C140.057 20.5111 140.31 20.3565 140.38 20.0699C140.457 19.7571 140.456 19.4269 140.427 19.1037L140.425 19.0882C140.41 18.6554 140.404 18.2226 140.416 17.7896C140.472 15.862 140.765 13.6894 142.438 12.78C143.086 12.4276 143.875 12.3719 144.591 12.5906C144.654 12.6097 144.849 12.6659 145.018 12.7134C148.94 13.8018 153.017 14.6005 157.016 14.4883C159.215 14.4268 161.573 14.1387 163.083 12.5672C163.911 11.7048 164.241 10.455 164.344 9.22215C164.47 7.71667 164.12 6.18338 163.341 4.87519C161.699 2.11718 158.439 0.405715 155.328 0.421733Z" fill="var(--fill-0, #091626)"/>
<path id="Shape_38" fill-rule="evenodd" clip-rule="evenodd" d="M140.333 22.2948C140.333 23.9059 139.027 25.2124 137.415 25.2124C135.804 25.2124 134.497 23.9059 134.497 22.2948C134.497 20.6834 135.804 19.3771 137.415 19.3771C139.027 19.3771 140.333 20.6834 140.333 22.2948" fill="var(--fill-0, #FFB59C)"/>
<path id="Shape_39" fill-rule="evenodd" clip-rule="evenodd" d="M136.92 21.0703C137.824 21.0928 138.583 22.1208 138.123 22.9968C137.917 23.3897 137.511 23.6654 137.066 23.7246C136.8 23.7601 136.663 23.3762 137.085 23.2941C137.74 23.1499 138.129 22.1995 137.518 21.7069C137.246 21.4871 136.796 21.5804 136.636 21.4528C136.472 21.3216 136.442 21.0698 136.92 21.0703Z" fill="var(--fill-0, #091626)"/>
<path id="Shape_40" fill-rule="evenodd" clip-rule="evenodd" d="M137.465 19.1666C138.721 19.1964 139.912 20.0204 140.351 21.2122C140.445 21.4685 140.088 21.7083 139.939 21.3154C139.923 21.2732 139.923 21.2732 139.905 21.2316C139.391 20.0538 137.999 19.3653 136.771 19.6649C135.317 20.0196 134.347 21.7347 134.861 23.1943C135.23 24.2417 136.281 24.9943 137.416 25.0016H139.267C139.444 25.0191 139.462 25.0564 139.478 25.2121C139.48 26.5271 139.471 27.842 139.484 29.1566C139.536 32.3505 142.282 35.2527 145.634 35.3061C147.417 35.3233 149.201 35.314 150.985 35.3064C152.553 35.2859 154.102 34.848 155.452 34.0409C155.452 34.0409 155.593 33.9836 155.686 34.0527C155.797 34.1356 155.793 34.3107 155.668 34.4029C155.603 34.4417 155.603 34.4417 155.538 34.4802C154.156 35.276 152.583 35.7071 150.989 35.7279C149.202 35.7355 147.415 35.7448 145.628 35.7277C142.199 35.6731 139.073 32.6619 139.062 29.0771L139.057 25.4232C138.063 25.4232 137.035 25.544 136.162 25.1621C134.699 24.5222 133.91 22.6542 134.504 21.1476C134.955 20.003 136.116 19.1905 137.375 19.1666C137.42 19.1664 137.42 19.1664 137.465 19.1666Z" fill="var(--fill-0, #091626)"/>
<path id="Shape_41" fill-rule="evenodd" clip-rule="evenodd" d="M153.668 29.1738C153.696 30.8122 152.381 31.9756 149.475 32.0656C149.211 30.2923 147.294 28.9124 144.967 28.9124C144.445 28.9124 143.944 28.9827 143.475 29.112C143.413 28.8987 143.38 28.6792 143.38 28.4544C143.38 26.4534 146.165 24.3432 149.065 27.013C150.979 28.7775 153.634 26.9958 153.668 29.1738" fill="var(--fill-0, #091626)"/>
<path id="Shape_42" fill-rule="evenodd" clip-rule="evenodd" d="M146.315 25.5449C147.46 25.566 148.46 26.2556 149.356 26.986C150.214 27.6725 151.435 27.6366 152.54 27.7628C152.952 27.8097 153.397 27.9305 153.647 28.295C154.257 29.1848 153.767 30.4396 153.145 31.0702C152.266 31.9608 150.941 32.214 149.619 32.2713C149.322 32.2839 149.308 32.2848 149.239 31.9436C148.882 30.2974 147.06 29.3219 145.587 29.1575C144.929 29.0842 144.258 29.13 143.616 29.2927L143.503 29.3208C143.322 29.3334 143.313 29.3292 143.249 29.0836C142.833 27.3876 144.355 25.5828 146.22 25.5449C146.252 25.5446 146.283 25.5446 146.315 25.5449ZM146.254 25.9661C144.782 25.9813 143.361 27.3148 143.625 28.8315C143.625 28.8315 144.407 28.696 145.024 28.7019C145.496 28.7064 145.968 28.7657 146.426 28.8832C146.594 28.9265 146.76 28.9773 146.924 29.0361C148.189 29.4916 149.354 30.4834 149.65 31.8478C151.041 31.7834 152.617 31.4597 153.229 30.2414C153.418 29.866 153.486 29.4371 153.449 29.0226C153.412 28.6022 153.064 28.2579 152.564 28.1905C151.35 28.0266 150.046 28.1003 149.067 27.294C148.262 26.6316 147.388 25.9968 146.337 25.9667C146.309 25.9664 146.282 25.9661 146.254 25.9661Z" fill="var(--fill-0, #091626)"/>
<path id="Shape_43" fill-rule="evenodd" clip-rule="evenodd" d="M145.024 28.702C147.056 28.7304 149.185 29.7815 149.642 31.8136C149.768 32.373 149.451 32.2781 149.203 32.2819C147.484 32.2958 145.699 31.8756 144.407 30.7997C143.888 30.368 143.394 29.8252 143.268 29.1508C143.218 28.8832 143.739 28.8137 144.173 28.7551C144.455 28.7168 144.74 28.7008 145.024 28.702ZM144.92 29.1236C144.554 29.1283 144.189 29.1672 143.831 29.242C143.831 29.242 143.713 29.1807 143.781 29.3381C144.283 30.4571 145.477 31.1508 146.717 31.5225C147.52 31.7632 148.361 31.8672 149.198 31.8604L149.22 31.8598C148.849 30.3621 147.249 29.4161 145.837 29.1914C145.566 29.1485 145.293 29.1273 145.02 29.1235C144.97 29.1234 144.97 29.1234 144.92 29.1236Z" fill="var(--fill-0, #091626)"/>
<path id="Shape_44" fill-rule="evenodd" clip-rule="evenodd" d="M159.994 24.1358C160.097 24.1569 160.167 24.2381 160.172 24.344C160.172 26.2868 160.207 28.2203 159.457 30.0222C159.457 30.0222 159.406 30.1209 159.318 30.1447C159.165 30.1861 159.002 30.0461 159.068 29.8603C159.509 28.8 159.74 27.6624 159.75 26.5192C159.753 25.7941 159.751 25.0691 159.751 24.344C159.757 24.2178 159.857 24.1217 159.994 24.1358Z" fill="var(--fill-0, #091626)"/>
<path id="Shape_45" fill-rule="evenodd" clip-rule="evenodd" d="M156.297 11.0573C158.342 11.0966 160.159 12.8646 160.172 14.9821V24.6563C160.149 24.8909 159.777 24.9249 159.751 24.6563C159.751 21.4166 159.771 18.1771 159.75 14.9374C159.716 13.1358 158.174 11.5151 156.292 11.4788C151.729 11.4499 147.166 11.4499 142.604 11.4788C140.967 11.5103 139.494 12.9343 139.483 14.6407V19.3305C139.46 19.5623 139.087 19.5941 139.061 19.3305C139.061 17.7517 139.052 16.1729 139.062 14.594C139.097 12.7502 140.667 11.0944 142.598 11.0573C147.165 11.0283 151.731 11.0283 156.297 11.0573Z" fill="var(--fill-0, #091626)"/>
<path id="Shape_46" fill-rule="evenodd" clip-rule="evenodd" d="M159.506 95.5399L190.367 99.494L187.849 82.4287L157.99 84.9673L159.506 95.5399Z" fill="var(--fill-0, #FFB59C)"/>
<path id="Shape_47" fill-rule="evenodd" clip-rule="evenodd" d="M159.028 92.2021H189.291L190.367 99.4939L159.506 95.539L159.028 92.2021Z" fill="var(--fill-0, #091626)"/>
<path id="Shape_48" fill-rule="evenodd" clip-rule="evenodd" d="M189.34 91.9972C189.421 92.0273 189.476 92.0846 189.5 92.1711L190.576 99.463C190.582 99.6746 190.522 99.7052 190.341 99.703L159.479 95.7481C159.384 95.7253 159.322 95.6663 159.297 95.5688L158.819 92.2318C158.812 92.0371 158.859 92.0096 159.028 91.9913H189.291C189.308 91.9933 189.324 91.9952 189.34 91.9972ZM159.271 92.4128L159.691 95.3504L190.118 99.2494L189.109 92.4128C179.163 92.4128 169.217 92.4128 159.271 92.4128Z" fill="var(--fill-0, #091626)"/>
<path id="Shape_49" fill-rule="evenodd" clip-rule="evenodd" d="M187.876 82.2197C187.97 82.2428 188.032 82.3011 188.057 82.3979L190.576 99.4632C190.583 99.6745 190.522 99.7053 190.341 99.703L159.48 95.749C159.385 95.726 159.323 95.6674 159.298 95.5698L157.781 84.9973C157.778 84.879 157.795 84.7933 157.972 84.7574L187.831 82.2187C187.846 82.2192 187.861 82.2195 187.876 82.2197ZM158.23 85.1585L159.692 95.3512L190.118 99.2496L187.669 82.6556C177.856 83.4898 168.043 84.324 158.23 85.1585Z" fill="var(--fill-0, #091626)"/>
<path id="Shape_50" fill-rule="evenodd" clip-rule="evenodd" d="M201.946 61.5888L186.529 55.3851L192.245 84.0202L153.996 86.9448L148.525 57.3629L131.163 66.7428L121.01 49.9176L136.944 42.6387C139.861 41.3069 142.885 40.2418 145.979 39.4547C147.724 42.6559 153.151 44.9909 159.572 44.9909C167.405 44.9909 173.753 41.5205 173.753 37.2402C173.753 36.9875 173.731 36.7371 173.686 36.4898L174.737 36.4083C180.694 35.939 186.686 36.2453 192.565 37.3191L205.127 39.6123L201.946 61.5888Z" fill="var(--fill-0, white)"/>
<path id="Shape_51" fill-rule="evenodd" clip-rule="evenodd" d="M180.976 52.9303L181.016 52.9418L201.774 61.2931L202.131 58.8299C202.131 58.8299 202.175 58.6843 202.287 58.6557C202.422 58.6214 202.555 58.7355 202.548 58.89L202.153 61.6188C202.105 61.8102 202.039 61.8344 201.866 61.7844L180.859 53.333C180.669 53.2341 180.718 52.9075 180.976 52.9303Z" fill="var(--fill-0, #091626)"/>
<path id="Shape_52" fill-rule="evenodd" clip-rule="evenodd" d="M187.583 36.3839C189.263 36.5671 190.937 36.8099 192.601 37.1117L205.164 39.4049C205.325 39.449 205.343 39.4887 205.334 39.6424L203.11 55.0071C203.056 55.2302 202.678 55.2344 202.693 54.9469L204.888 39.7832C200.56 38.9929 196.219 38.1678 191.905 37.4161C190.455 37.1668 188.999 36.9625 187.538 36.8032C187.538 36.8032 187.401 36.7686 187.363 36.6666C187.314 36.5342 187.408 36.3811 187.583 36.3839Z" fill="var(--fill-0, #091626)"/>
<path id="Shape_53" fill-rule="evenodd" clip-rule="evenodd" d="M180.357 35.9848C180.629 35.9859 180.885 35.9598 181.005 36C181.186 36.061 181.186 36.3735 180.936 36.4106C178.591 36.387 176.255 36.5022 173.927 36.6826C173.932 36.72 173.936 36.7576 173.94 36.795C174.159 39.0739 172.394 41.1923 170.575 42.3827C170.31 42.5561 170.038 42.7188 169.761 42.8723C166.177 44.8552 161.885 45.422 157.779 45.141C154.248 44.8996 150.628 44.0014 147.887 41.8999C147.098 41.2946 146.387 40.5675 145.881 39.7107L145.874 39.6989C142.849 40.4818 139.886 41.5318 137.03 42.8307L121.311 50.0112L125.053 56.213C125.053 56.213 125.16 56.3127 125.032 56.4597C124.953 56.5513 124.838 56.6036 124.692 56.4305L120.828 50.0264C120.775 49.9019 120.802 49.8016 120.921 49.726C126.278 47.2788 131.631 44.8234 136.992 42.3847C139.829 41.104 142.749 40.0679 145.78 39.2877C145.868 39.265 146.018 39.1377 146.331 39.6402C147.576 41.611 149.793 42.8163 152.126 43.6147C155.54 44.7835 159.246 45.0382 162.833 44.5728C166.082 44.1509 169.402 43.2213 171.81 40.866C172.945 39.7562 173.772 38.1954 173.476 36.5269C173.476 36.5269 173.479 36.3271 173.668 36.2799C175.897 36.1071 178.122 35.9814 180.357 35.9848Z" fill="var(--fill-0, #091626)"/>
<path id="Shape_54" fill-rule="evenodd" clip-rule="evenodd" d="M124.913 56.1146C124.969 56.1317 125.017 56.1643 125.053 56.2127L131.238 66.4618L148.424 57.1775C148.424 57.1775 148.58 57.1255 148.669 57.2103C148.766 57.302 148.745 57.4655 148.624 57.5484L131.262 66.9283C131.103 66.9955 131.072 66.9738 130.981 66.8516L124.692 56.4305C124.59 56.213 124.677 56.0947 124.913 56.1146Z" fill="var(--fill-0, #091626)"/>
<path id="Shape_55" fill-rule="evenodd" clip-rule="evenodd" d="M148.122 54.9464C148.197 54.9767 148.251 55.0315 148.279 55.1125L154.167 86.7203L191.99 83.8285L186.321 55.4264C186.309 55.2007 186.625 55.0357 186.734 55.3437L192.45 83.9792C192.458 84.1146 192.398 84.2 192.26 84.2307L154.01 87.1551C153.898 87.15 153.822 87.0944 153.787 86.9834L147.864 55.1895C147.858 55.0352 147.935 54.9273 148.122 54.9464Z" fill="var(--fill-0, #091626)"/>
<path id="Shape_56" fill-rule="evenodd" clip-rule="evenodd" d="M172.407 82.1802C172.615 82.2249 172.656 82.5957 172.404 82.6385L155.969 83.8498C155.74 83.8448 155.689 83.4326 155.935 83.3907L172.37 82.1795C172.383 82.1798 172.395 82.1801 172.407 82.1802Z" fill="var(--fill-0, #091626)"/>
<path id="Shape_57" fill-rule="evenodd" clip-rule="evenodd" d="M180.938 53.1374L187.561 60.1153L186.528 55.385L180.938 53.1374Z" fill="var(--fill-0, #091626)"/>
<path id="Shape_58" fill-rule="evenodd" clip-rule="evenodd" d="M141.751 61.0309L148.071 55.1509L148.524 57.3629L141.751 61.0309Z" fill="var(--fill-0, #091626)"/>
<path id="Shape_59" fill-rule="evenodd" clip-rule="evenodd" d="M115.171 234.979L118.431 138.432L192.243 111.908L187.394 95.5387H159.506L107.52 106.477C94.9919 109.114 85.3537 119.148 83.2249 131.772L69.4565 234.979H115.171Z" fill="var(--fill-0, #005F32)"/>
<path id="Shape_60" fill-rule="evenodd" clip-rule="evenodd" d="M185.591 95.5398C186.212 95.5398 186.825 95.5795 187.426 95.6551C194.227 96.5206 199.678 104.979 200.077 111.994L203.459 169.892L256.827 176.635L271.57 228.785L184.509 198.231C175.353 194.735 169.426 185.817 170.139 163.364L171.798 108.304L185.591 95.5398Z" fill="var(--fill-0, #005F32)"/>
<path id="Shape_61" fill-rule="evenodd" clip-rule="evenodd" d="M94.4791 194.251C94.6496 194.297 94.6685 194.334 94.6643 194.484L92.8899 209.656C92.8433 209.878 92.426 209.86 92.433 209.603L94.2074 194.43C94.243 194.26 94.2857 194.228 94.4791 194.251Z" fill="var(--fill-0, #091626)"/>
<path id="Shape_62" fill-rule="evenodd" clip-rule="evenodd" d="M108.536 123.069C108.882 123.21 108.646 123.415 108.451 123.585C104.767 126.837 102.274 131.334 101.451 136.133L95.7033 185.273C95.6133 185.593 95.3742 185.466 95.3101 185.352C95.2809 185.3 95.2868 185.282 95.2845 185.224L101.034 136.073C101.877 131.152 104.424 126.56 108.173 123.268C108.302 123.155 108.346 123.056 108.536 123.069Z" fill="var(--fill-0, #091626)"/>
<path id="Shape_63" fill-rule="evenodd" clip-rule="evenodd" d="M161.918 107.204C162.017 107.253 162.032 107.288 162.046 107.323C162.088 107.425 162.091 107.53 161.903 107.608L118.187 118.716C116.509 119.072 114.884 119.623 113.344 120.356C113.344 120.356 113.252 120.44 113.118 120.327C113.016 120.242 112.977 120.099 113.163 119.975C114.707 119.24 116.341 118.684 118.015 118.321L118.092 118.305L161.799 107.199C161.799 107.199 161.854 107.192 161.918 107.204Z" fill="var(--fill-0, #091626)"/>
<path id="Shape_64" fill-rule="evenodd" clip-rule="evenodd" d="M197.501 181.765L249.143 199.552C249.143 199.552 249.223 199.552 249.268 199.678C249.321 199.829 249.243 200.029 248.994 199.984L197.352 182.198C197.205 182.12 197.218 182.073 197.214 182.009C197.205 181.881 197.254 181.721 197.501 181.765Z" fill="var(--fill-0, #091626)"/>
<path id="Shape_65" fill-rule="evenodd" clip-rule="evenodd" d="M187.633 130.245C187.701 130.288 187.744 130.352 187.757 130.437C187.757 143.047 187.681 155.657 187.757 168.267C187.804 172.966 190.275 177.571 194.234 180.196C194.234 180.196 194.311 180.219 194.327 180.345C194.346 180.496 194.23 180.656 194.002 180.548C189.947 177.859 187.343 173.119 187.335 168.152V130.437C187.357 130.284 187.452 130.192 187.633 130.245Z" fill="var(--fill-0, #091626)"/>
<path id="Shape_66" fill-rule="evenodd" clip-rule="evenodd" d="M187.621 109.127C187.774 109.176 187.782 109.199 187.794 109.331V123.807C187.773 124.037 187.358 124.076 187.334 123.807V109.331C187.351 109.143 187.416 109.096 187.621 109.127Z" fill="var(--fill-0, #091626)"/>
<path id="Shape_67" fill-rule="evenodd" clip-rule="evenodd" d="M163.249 122.327C163.476 121.986 171.646 113.36 171.646 113.36L171.465 119.374L163.249 122.327Z" fill="var(--fill-0, #091626)"/>
<path id="Shape_68" fill-rule="evenodd" clip-rule="evenodd" d="M171.885 108.111L171.995 108.229L172.009 108.31C171.451 126.823 170.861 145.335 170.335 163.849C170.187 169.334 170.366 174.856 171.431 180.224L171.452 180.331C171.453 180.518 171.363 180.547 171.363 180.547C171.191 180.619 171.129 180.548 171.129 180.548L171.039 180.414C169.929 174.89 169.756 169.183 169.923 163.518L169.928 163.357L171.588 108.297C171.588 108.297 171.565 108.206 171.724 108.107C171.724 108.107 171.796 108.091 171.885 108.111Z" fill="var(--fill-0, #091626)"/>
<path id="Shape_69" fill-rule="evenodd" clip-rule="evenodd" d="M203.263 165.061C203.311 165.09 203.369 165.113 203.404 165.248L203.659 169.704L256.853 176.427C256.853 176.427 256.945 176.413 257.029 176.578L271.772 228.727L271.743 228.903L271.59 228.994L271.499 228.984L184.436 198.428C181.609 197.341 179.017 195.673 176.992 193.451C175.432 191.74 174.202 189.733 173.266 187.632C173.189 187.458 173.112 187.37 173.143 187.195L173.255 187.079L173.416 187.076L173.533 187.189C174.878 190.279 176.851 193.133 179.496 195.202C181.031 196.403 182.77 197.336 184.581 198.033L271.256 228.451L256.661 176.827L203.432 170.101C203.338 170.072 203.272 170.009 203.248 169.904L202.983 165.272L203.036 165.12C203.112 165.063 203.066 165.034 203.263 165.061Z" fill="var(--fill-0, #091626)"/>
<path id="Shape_70" fill-rule="evenodd" clip-rule="evenodd" d="M185.651 95.3291C186.829 95.3364 188.011 95.4642 189.134 95.8153C193.494 97.1791 196.719 101.109 198.603 105.35C199.535 107.447 200.152 109.696 200.288 111.981L203.112 160.11C203.086 160.296 202.993 160.312 202.993 160.312L202.832 160.322L202.712 160.215L202.691 160.135C201.748 144.065 200.819 127.994 199.862 111.924C199.658 108.795 198.568 105.747 196.926 103.056C194.693 99.3956 191.316 96.2281 186.953 95.815C186.501 95.772 186.046 95.7515 185.591 95.7506H159.528C142.164 99.4037 124.792 103.02 107.436 106.71C102.17 107.853 97.178 110.392 93.1638 114.031C89.2906 117.542 86.3409 122.029 84.6385 127.019C84.6385 127.019 84.5174 127.235 84.2998 127.109L84.2287 126.964L84.2394 126.883C87.4131 117.581 95.1546 109.969 104.578 107.026C105.53 106.729 106.497 106.479 107.475 106.271L159.463 95.3336L159.506 95.3291C168.221 95.3291 176.936 95.3122 185.651 95.3291Z" fill="var(--fill-0, #091626)"/>
<path id="Shape_71" fill-rule="evenodd" clip-rule="evenodd" d="M118.677 133.535C118.829 133.645 118.801 133.734 118.801 133.734L115.382 234.986C115.382 234.986 115.451 235.135 115.171 235.19H69.4566L69.2981 235.118L69.2478 234.951L82.5823 134.307L82.6632 134.168L82.8192 134.126L82.9586 134.207L83.0005 134.363L69.6971 234.768H114.967L118.379 133.72L118.446 133.573L118.597 133.517C118.624 133.523 118.65 133.529 118.677 133.535Z" fill="var(--fill-0, #091626)"/>
<path id="Shape_72" fill-rule="evenodd" clip-rule="evenodd" d="M171.524 119.176C171.798 119.32 171.762 119.488 171.549 119.609L118.515 138.668C118.187 138.725 118.187 138.433 118.258 138.318C118.291 138.266 118.31 138.263 118.36 138.235L171.393 119.176C171.393 119.176 171.452 119.164 171.524 119.176Z" fill="var(--fill-0, #091626)"/>
<path id="Shape_73" fill-rule="evenodd" clip-rule="evenodd" d="M116.134 209.446C116.194 209.493 116.23 209.555 116.238 209.634L116.081 214.299C116.061 214.416 115.993 214.486 115.87 214.502H72.1976C72.0627 214.483 71.9902 214.408 71.9888 214.264L72.6068 209.6C72.6341 209.493 72.7021 209.43 72.8156 209.417H108.487C108.712 209.449 108.828 209.789 108.487 209.838H73.0003L72.4382 214.081H115.666L115.809 209.838H113.43C113.32 209.822 113.295 209.794 113.27 209.765C113.167 209.646 113.243 209.444 113.43 209.417H116.027C116.027 209.417 116.078 209.422 116.134 209.446Z" fill="var(--fill-0, #091626)"/>
<path id="Shape_74" fill-rule="evenodd" clip-rule="evenodd" d="M249.201 187.001C249.272 187.083 249.268 187.122 249.274 187.161V220.737L253.909 222.364V176.479L249.274 175.893V181.999C249.242 182.222 248.898 182.322 248.852 181.999V175.654C248.871 175.52 248.947 175.448 249.089 175.445L254.146 176.084C254.249 176.113 254.314 176.179 254.331 176.293V222.661C254.299 222.887 254.172 222.885 254.05 222.86L248.993 221.085C248.913 221.045 248.864 220.979 248.852 220.886V187.161C248.876 186.994 248.973 186.855 249.201 187.001Z" fill="var(--fill-0, #091626)"/>
<rect id="Shape_75" width="13.6243" height="18.277" transform="matrix(-1 0 0 1 99.2576 214.429)" fill="var(--fill-0, white)"/>
<path id="Shape_76" fill-rule="evenodd" clip-rule="evenodd" d="M115.816 215.162L115.171 238.341C115.171 239.917 113.895 241.193 112.322 241.193H54.8877C54.0699 241.193 53.4095 240.53 53.4095 239.715V238.341C53.4095 238.088 53.4435 237.838 53.5078 237.599C53.6118 237.214 53.7948 236.854 54.0474 236.542L71.3054 215.338C72.3705 214.026 72.9544 214.337 74.6434 214.337L86.5399 214.29C88.1165 214.29 89.2746 215.105 89.3927 217.143C89.5526 220.394 87.7992 226.496 86.1437 231.447L89.9882 225.886L92.4696 222.294L97.2977 215.311C97.8235 214.664 98.6098 214.29 99.442 214.29H114.945C115.429 214.29 115.816 214.681 115.816 215.162" fill="var(--fill-0, white)"/>
<path id="Shape_77" fill-rule="evenodd" clip-rule="evenodd" d="M86.5785 214.081C87.4707 214.091 88.3858 214.391 88.9422 215.109C89.5695 215.92 89.6597 217.032 89.5593 217.965C89.3303 220.094 88.7651 222.183 88.2531 224.248C87.7703 226.204 87.31 228.167 86.7687 230.108L86.7372 230.219C90.2015 225.208 93.6933 220.219 97.1235 215.193C97.6319 214.516 98.5143 214.1 99.4001 214.081C104.591 214.045 109.782 214.014 114.973 214.081C115.536 214.102 116.02 214.589 116.027 215.164C115.812 222.891 115.597 230.618 115.382 238.345C115.337 239.956 114.015 241.373 112.361 241.405C93.1891 241.519 74.0128 241.772 54.8441 241.404C53.9879 241.378 53.2271 240.628 53.1993 239.76C53.1771 238.571 53.1335 237.373 53.8586 236.442C59.5418 229.336 65.2922 222.284 71.089 215.27C71.3816 214.915 71.6896 214.552 72.1007 214.342C72.4731 214.152 72.8955 214.09 73.3162 214.081C77.7367 214.052 82.1579 214.063 86.5785 214.081ZM73.379 214.502C72.8973 214.505 72.4007 214.594 72.021 214.892C71.7875 215.075 71.6017 215.311 71.4143 215.539C65.6195 222.55 59.871 229.6 54.1895 236.703C53.5594 237.512 53.6004 238.647 53.6207 239.749C53.6418 240.399 54.217 240.971 54.8713 240.983C74.0324 241.105 93.1946 241.097 112.356 240.983C113.725 240.957 114.92 239.796 114.961 238.338C115.175 230.612 115.391 222.887 115.606 215.161C115.602 214.818 115.308 214.515 114.963 214.502C109.778 214.435 104.591 214.467 99.4061 214.502C98.6603 214.518 97.9392 214.865 97.4662 215.438L97.3619 215.591L92.6432 222.415L90.1617 226.006L86.3172 231.568C86.3172 231.568 86.2891 231.657 86.1467 231.659C86.0241 231.661 85.9072 231.607 85.9438 231.382C86.9538 228.33 87.64 225.083 88.3822 222.027C88.7391 220.539 89.084 219.031 89.1761 217.508C89.2464 216.344 88.756 215.038 87.5689 214.651C87.2595 214.55 86.9347 214.509 86.6104 214.503C82.2002 214.45 77.7894 214.502 73.379 214.502Z" fill="var(--fill-0, #091626)"/>
<path id="Shape_78" fill-rule="evenodd" clip-rule="evenodd" d="M97.3595 222.285C102.918 222.282 111.297 222.296 115.594 222.302L115.518 225.885H94.8724L86.776 237.598C99.5853 237.604 111.431 237.616 115.171 237.616V238.341C115.171 239.917 113.895 241.193 112.321 241.193H54.8877C54.0699 241.193 53.4092 240.53 53.4092 239.715V238.341C53.4092 238.087 53.4432 237.837 53.5078 237.598C60.23 237.59 71.0833 237.593 81.8945 237.596L89.9881 225.885L92.4696 222.294L97.3595 222.285Z" fill="var(--fill-0, #D9E1E1)"/>
<path id="Shape_79" fill-rule="evenodd" clip-rule="evenodd" d="M113.626 222.09L114.64 222.091L115.595 222.093C115.774 222.111 115.793 222.15 115.805 222.308L115.729 225.891C115.708 226.066 115.672 226.082 115.518 226.097H94.9833L92.2008 230.123C92.2008 230.123 92.1345 230.202 92.0544 230.212C91.8953 230.233 91.7638 230.049 91.854 229.883L94.6994 225.767C94.7441 225.714 94.8017 225.682 94.8728 225.676H115.312L115.379 222.514C114.795 222.513 114.21 222.512 113.626 222.511L111.307 222.508C111.307 222.508 111.144 222.479 111.106 222.362C111.066 222.236 111.161 222.102 111.307 222.086C112.081 222.088 112.853 222.089 113.626 222.09Z" fill="var(--fill-0, #091626)"/>
<path id="Shape_80" fill-rule="evenodd" clip-rule="evenodd" d="M100.235 222.075C101.973 222.076 103.71 222.078 105.448 222.079C105.448 222.079 105.618 222.109 105.652 222.236C105.684 222.355 105.651 222.475 105.448 222.501C103.38 222.499 101.312 222.497 99.2438 222.497C98.616 222.497 97.9879 222.497 97.3598 222.497L92.5803 222.505L90.1615 226.006L82.0679 237.717C82.0227 237.768 81.9648 237.799 81.8945 237.808C77.8165 237.807 73.7388 237.806 69.6608 237.805H65.8197C65.8197 237.805 65.6876 237.787 65.637 237.7C65.5662 237.577 65.5903 237.413 65.8197 237.383C68.4315 237.383 71.0437 237.384 73.6556 237.384L81.7841 237.386L89.8147 225.767L92.2962 222.175C92.2962 222.175 92.3032 222.105 92.4693 222.084L97.3592 222.075C98.3178 222.075 99.2764 222.075 100.235 222.075Z" fill="var(--fill-0, #091626)"/>
<path id="Shape_81" fill-rule="evenodd" clip-rule="evenodd" d="M90.4943 232.105C90.6398 232.175 90.6761 232.283 90.6072 232.426L87.1778 237.388C95.9192 237.392 104.661 237.399 113.403 237.404L115.171 237.405C115.474 237.453 115.384 237.969 115.382 238.38C115.352 239.958 113.989 241.372 112.361 241.403C93.1893 241.529 74.0133 241.767 54.8444 241.403C53.9841 241.376 53.2268 240.623 53.1992 239.758C53.1852 239.021 53.1236 238.26 53.2917 237.592C53.3189 237.483 53.3808 237.409 53.5075 237.388C56.4355 237.385 59.365 237.383 62.295 237.383C62.295 237.383 62.3827 237.356 62.4656 237.469C62.551 237.587 62.5426 237.765 62.295 237.804C59.4237 237.805 56.5508 237.806 53.6744 237.809C53.6677 237.841 53.6621 237.874 53.6562 237.906C53.5677 238.466 53.6087 239.119 53.6205 239.747C53.6413 240.396 54.2137 240.969 54.8713 240.982C74.0324 241.103 93.1949 241.107 112.356 240.982C113.727 240.956 114.952 239.778 114.96 238.34V237.826C107.147 237.824 99.3334 237.816 91.5203 237.812L86.776 237.809C86.5989 237.781 86.4975 237.696 86.6026 237.479L90.2604 232.187C90.2944 232.151 90.3096 232.08 90.4943 232.105Z" fill="var(--fill-0, #091626)"/>
<path id="Shape_82" fill-rule="evenodd" clip-rule="evenodd" d="M73.4347 221.445C74.2559 221.527 74.5417 223.09 73.3785 223.129H63.8297C62.9945 223.101 62.6098 221.484 63.8297 221.443H73.3785C73.3974 221.443 73.4162 221.444 73.4347 221.445Z" fill="var(--fill-0, #091626)"/>
<path id="Shape_83" fill-rule="evenodd" clip-rule="evenodd" d="M70.6498 226.446C71.4656 226.528 71.7568 228.092 70.5936 228.131H61.0448C60.1936 228.102 59.8816 226.483 61.0448 226.444H70.5936C70.6124 226.445 70.6312 226.445 70.6498 226.446Z" fill="var(--fill-0, #091626)"/>
<path id="Shape_84" fill-rule="evenodd" clip-rule="evenodd" d="M95.7251 217.587H115.816V216.408H96.5409L95.7251 217.587Z" fill="var(--fill-0, #091626)"/>
<rect id="Shape_85" width="18.6193" height="18.5456" transform="matrix(-1 0 0 1 272.883 190.661)" fill="var(--fill-0, white)"/>
<path id="Shape_86" fill-rule="evenodd" clip-rule="evenodd" d="M254.993 176.433L278.172 178.98C279.749 178.98 281.024 180.265 281.024 181.851V239.704C281.024 240.526 280.362 241.193 279.546 241.193H278.172C277.919 241.193 277.669 241.159 277.43 241.094C277.045 240.989 276.685 240.805 276.373 240.55L256.132 224.123C254.221 222.419 254.121 223.177 254.121 219.648V205.273C254.121 203.685 254.937 202.518 256.974 202.399C260.226 202.238 266.41 205.29 271.361 206.957L268.95 204.754C266.797 202.786 264.517 200.964 262.125 199.3L255.142 194.436C254.495 193.907 254.121 193.114 254.121 192.277V177.31C254.121 176.823 254.512 176.433 254.993 176.433" fill="var(--fill-0, white)"/>
<path id="Shape_87" fill-rule="evenodd" clip-rule="evenodd" d="M255.016 176.224L278.197 178.772C279.732 178.972 281.205 180.07 281.235 181.813C281.34 201.124 281.616 220.44 281.235 239.749C281.208 240.609 280.46 241.376 279.59 241.404C278.405 241.426 277.21 241.476 276.272 240.74C269.16 235.001 262.08 229.222 254.984 223.464C254.874 223.371 254.761 223.281 254.65 223.188C254.62 223.163 254.591 223.137 254.561 223.111C254.078 222.667 253.983 221.964 253.944 221.275C253.916 220.781 253.912 220.286 253.911 219.792C253.906 214.94 253.891 210.087 253.911 205.235C253.922 204.31 254.245 203.365 254.997 202.812C256.242 201.896 257.95 202.146 259.349 202.445C263.122 203.25 266.68 204.916 270.3 206.327L270.401 206.366C267.795 203.984 265.12 201.665 262.228 199.63C259.831 197.95 257.431 196.274 255.022 194.611C254.346 194.099 253.93 193.213 253.911 192.32C253.876 187.308 253.844 182.295 253.911 177.283C253.932 176.707 254.38 176.193 255.016 176.224ZM254.976 176.645C254.636 176.658 254.345 176.95 254.333 177.294C254.266 182.3 254.297 187.307 254.333 192.314C254.348 193.062 254.693 193.791 255.27 194.269L255.422 194.375C260.11 197.64 264.891 200.767 269.092 204.599L271.504 206.803C271.704 207.062 271.552 207.206 271.287 207.156C267.441 205.708 263.677 203.901 259.669 202.949C257.842 202.515 255.683 202.209 254.73 203.703C254.445 204.15 254.339 204.699 254.332 205.239C254.312 210.135 254.317 215.032 254.333 219.929C254.337 220.662 254.31 221.406 254.464 222.108C254.552 222.514 254.86 222.812 255.216 223.108L255.252 223.139C262.346 228.896 269.424 234.673 276.534 240.41C277.349 241.049 278.483 241.003 279.579 240.983C280.231 240.962 280.8 240.381 280.814 239.722C280.915 220.421 280.919 201.118 280.813 181.817C280.802 181.134 280.532 180.459 280.02 179.99C279.522 179.534 278.863 179.29 278.183 179.195L278.147 179.191C270.423 178.342 262.745 176.548 254.976 176.645Z" fill="var(--fill-0, #091626)"/>
<path id="Shape_88" fill-rule="evenodd" clip-rule="evenodd" d="M254.976 176.645C254.636 176.658 254.345 176.95 254.333 177.294C254.266 182.3 254.297 187.307 254.333 192.314C254.348 193.062 254.693 193.791 255.269 194.269L255.422 194.375C260.11 197.64 264.891 200.767 269.092 204.599L271.504 206.803C271.704 207.062 271.552 207.206 271.287 207.156C267.441 205.708 263.677 203.901 259.669 202.949C257.841 202.515 255.683 202.209 254.73 203.703C254.445 204.15 254.339 204.699 254.332 205.239C254.312 210.135 254.317 215.032 254.333 219.929C254.337 220.662 254.31 221.406 254.463 222.108C254.552 222.514 254.86 222.812 255.216 223.108L255.252 223.139C262.346 228.896 269.424 234.673 276.534 240.41C277.348 241.049 278.483 241.003 279.579 240.983C280.231 240.962 280.8 240.381 280.814 239.722C280.915 220.421 280.919 201.118 280.813 181.817C280.802 181.134 280.532 180.459 280.02 179.99C279.522 179.534 278.863 179.29 278.183 179.195L278.147 179.191C270.423 178.342 262.745 176.548 254.976 176.645Z" fill="var(--fill-0, white)"/>
<path id="Shape_89" fill-rule="evenodd" clip-rule="evenodd" d="M262.117 194.375C262.114 188.776 262.128 181.547 262.133 177.219L265.717 177.613V196.881L277.43 207.584C277.436 194.681 277.447 182.749 277.447 178.981H278.172C279.749 178.981 281.024 180.267 281.024 181.852V239.705C281.024 240.529 280.361 241.194 279.547 241.194H278.172C277.919 241.194 277.669 241.16 277.43 241.095C277.422 234.324 277.425 223.391 277.427 212.501L265.869 202.108L262.125 199.301L262.117 194.375Z" fill="var(--fill-0, #D9E1E1)"/>
<path id="Shape_90" fill-rule="evenodd" clip-rule="evenodd" d="M262.157 177.009L265.741 177.403C265.741 177.403 265.913 177.462 265.928 177.612V196.788L277.22 207.106L277.223 202.21L277.226 197.072C277.226 197.072 277.237 196.961 277.305 196.907C277.427 196.81 277.627 196.888 277.647 197.072L277.644 202.21L277.641 207.584C277.641 207.584 277.658 207.64 277.593 207.719C277.523 207.802 277.435 207.845 277.288 207.74L265.575 197.036C265.537 196.993 265.513 196.941 265.507 196.881V177.801L262.344 177.454C262.34 180.459 262.335 183.464 262.332 186.469L262.33 187.958C262.33 187.958 262.315 188.097 262.211 188.147C262.082 188.209 261.926 188.117 261.909 187.957C261.912 185.142 261.915 182.326 261.92 179.511L261.923 177.218C261.923 177.218 261.958 177.008 262.157 177.009Z" fill="var(--fill-0, #091626)"/>
<path id="Shape_91" fill-rule="evenodd" clip-rule="evenodd" d="M278.194 178.772C279.749 178.947 281.204 180.061 281.234 181.815C281.336 201.126 281.602 220.441 281.234 239.749C281.207 240.61 280.459 241.377 279.589 241.404C278.85 241.418 278.086 241.48 277.423 241.311C277.314 241.284 277.24 241.221 277.219 241.095C277.208 231.59 277.214 222.094 277.216 212.594C274.346 209.972 271.484 207.341 268.606 204.727C266.587 202.901 264.456 201.198 262.228 199.63L261.956 199.427C261.925 199.368 261.925 199.367 261.914 199.301L261.906 194.376C261.905 193.224 261.905 192.073 261.906 190.922C261.906 190.922 261.866 190.782 262.051 190.722C262.167 190.684 262.292 190.699 262.327 190.922C262.327 191.794 262.327 192.667 262.327 193.539L262.327 194.375L262.335 199.191C262.493 199.3 262.649 199.411 262.805 199.522C265.001 201.087 267.101 202.784 269.092 204.599L277.569 212.345C277.636 212.426 277.632 212.464 277.637 212.501C277.635 221.981 277.63 231.458 277.64 240.929C277.672 240.935 277.705 240.941 277.737 240.947C278.296 241.036 278.95 240.995 279.579 240.983C280.229 240.963 280.8 240.381 280.813 239.722C280.911 220.421 280.914 201.12 280.813 181.82C280.801 181.122 280.525 180.431 280.002 179.958C279.498 179.503 278.829 179.268 278.148 179.191L277.657 179.137C277.657 180.721 277.656 182.305 277.655 183.888L277.649 191.783C277.597 192.111 277.345 192.012 277.268 191.907C277.233 191.858 277.237 191.84 277.228 191.783C277.231 187.794 277.234 183.806 277.235 179.817L277.236 178.902C277.236 178.902 277.274 178.704 277.469 178.692C277.711 178.719 277.953 178.745 278.194 178.772Z" fill="var(--fill-0, #091626)"/>
<path id="Shape_92" fill-rule="evenodd" clip-rule="evenodd" d="M262.2 220.241C262.372 220.264 262.399 220.281 262.471 220.315C262.762 220.45 262.948 220.75 262.959 221.08V230.698C262.932 231.515 261.315 231.949 261.273 230.698L261.273 221.08C261.279 220.906 261.293 220.878 261.32 220.803C261.437 220.463 261.697 220.237 262.144 220.237C262.163 220.238 262.182 220.24 262.2 220.241Z" fill="var(--fill-0, #091626)"/>
<path id="Shape_93" fill-rule="evenodd" clip-rule="evenodd" d="M267.202 223.046C267.628 223.103 267.944 223.38 267.961 223.885V233.504C267.933 234.355 266.314 234.667 266.275 233.504L266.275 223.885C266.281 223.712 266.296 223.683 266.322 223.609C266.44 223.269 266.699 223.043 267.146 223.043C267.165 223.044 267.184 223.045 267.202 223.046Z" fill="var(--fill-0, #091626)"/>
<path id="Shape_94" fill-rule="evenodd" clip-rule="evenodd" d="M257.418 196.022V176.7L256.238 176.571V195.2L257.418 196.022Z" fill="var(--fill-0, #091626)"/>
<path id="Shape_95" fill-rule="evenodd" clip-rule="evenodd" d="M201.768 39.0438C201.956 39.0912 201.97 39.1312 201.962 39.2878L198.684 60.0735C198.622 60.3013 198.216 60.2719 198.229 60.0018L201.508 39.2162C201.555 39.0413 201.64 39.0353 201.768 39.0438Z" fill="var(--fill-0, #091626)"/>
<path id="Shape_96" fill-rule="evenodd" clip-rule="evenodd" d="M124.39 48.1746C124.454 48.187 124.506 48.2181 124.544 48.2693L134.709 64.8103C134.808 65.0117 134.478 65.2638 134.318 65.0511L124.152 48.5101C124.031 48.2638 124.27 48.1725 124.39 48.1746Z" fill="var(--fill-0, #091626)"/>
<path id="Shape_97" fill-rule="evenodd" clip-rule="evenodd" d="M153.986 16.8827C154.842 16.9044 155.657 17.3566 156.113 18.092C156.255 18.3205 155.961 18.6285 155.718 18.257C155.126 17.3818 153.884 17.0505 152.926 17.5614C152.926 17.5614 152.738 17.6165 152.654 17.4954C152.493 17.2635 153.01 17.014 153.46 16.928C153.605 16.9002 153.753 16.8864 153.901 16.8827C153.943 16.8825 153.943 16.8825 153.986 16.8827Z" fill="var(--fill-0, #091626)"/>
<path id="Shape_98" fill-rule="evenodd" clip-rule="evenodd" d="M154.426 20.4487C154.426 20.7893 154.15 21.0653 153.809 21.0653C153.469 21.0653 153.192 20.7893 153.192 20.4487C153.192 20.1081 153.469 19.8318 153.809 19.8318C154.15 19.8318 154.426 20.1081 154.426 20.4487" fill="var(--fill-0, #091626)"/>
<path id="Shape_99" fill-rule="evenodd" clip-rule="evenodd" d="M146.188 16.8827C147.046 16.9044 147.868 17.3706 148.315 18.092C148.457 18.3205 148.163 18.6282 147.92 18.257C147.328 17.3816 146.085 17.0505 145.128 17.5614C145.128 17.5614 144.991 17.6126 144.9 17.542C144.609 17.3166 145.358 16.9004 146.103 16.8827C146.145 16.8825 146.145 16.8825 146.188 16.8827Z" fill="var(--fill-0, #091626)"/>
<path id="Shape_100" fill-rule="evenodd" clip-rule="evenodd" d="M146.628 20.4487C146.628 20.7893 146.352 21.0653 146.011 21.0653C145.671 21.0653 145.394 20.7893 145.394 20.4487C145.394 20.1081 145.671 19.8318 146.011 19.8318C146.352 19.8318 146.628 20.1081 146.628 20.4487" fill="var(--fill-0, #091626)"/>
<path id="Shape_101" fill-rule="evenodd" clip-rule="evenodd" d="M152.21 21.7055C153.163 21.7369 153.884 22.942 153.306 23.8064C153.068 24.1628 152.657 24.3884 152.223 24.407C151.61 24.4177 150.997 24.4132 150.384 24.416C150.172 24.4089 150.083 24.0282 150.366 23.995C151.02 23.9675 151.688 24.0756 152.328 23.9745C153.163 23.8427 153.475 22.1689 152.202 22.127C151.592 22.1222 150.982 22.1323 150.373 22.1351C150.155 22.1281 150.087 21.7456 150.355 21.7142C150.973 21.6883 151.592 21.7007 152.21 21.7055Z" fill="var(--fill-0, #091626)"/>
</g>
</svg>
