<svg preserveAspectRatio="none" width="100%" height="100%" overflow="visible" style="display: block;" viewBox="0 0 96.7742 45.6825" fill="none" xmlns="http://www.w3.org/2000/svg">
<g id="Element">
<path id="Shape" fill-rule="evenodd" clip-rule="evenodd" d="M89.1395 7.08076C89.2816 7.13272 89.3009 7.32779 89.1525 7.39648C85.948 8.51537 82.7985 9.76966 80.0603 11.6488C79.3893 12.1091 78.7461 12.6157 78.1726 13.1919C78.1726 13.1919 78.1422 13.1941 78.2748 13.2776C79.5958 14.1411 79.6495 16.527 78.448 17.2434C77.7812 17.6408 76.8124 17.2326 76.5302 16.4328C76.1775 15.4332 76.7948 14.2448 77.5936 13.3291C76.316 12.9506 74.8243 13.5961 73.5817 14.3401C72.8294 14.7906 72.1775 15.3947 71.626 16.082C71.626 16.082 71.5744 16.1364 71.5152 16.143C71.3873 16.1569 71.2854 16.0028 71.3684 15.8755C72.4395 14.54 73.9362 13.5539 75.6136 13.0882C76.3362 12.8874 77.1127 12.8091 77.8206 13.0554C77.8206 13.0554 77.8067 13.0935 77.9377 12.9599C77.9899 12.9075 77.9897 12.9075 78.0423 12.8557C79.9712 10.9764 82.4399 9.75535 84.9416 8.67103C86.2873 8.0878 87.66 7.56777 89.0438 7.08473C89.0438 7.08473 89.0957 7.07394 89.1395 7.08076ZM77.8941 13.4878C77.2301 14.2357 76.6004 15.1547 76.7875 16.1226C76.9161 16.7879 77.677 17.3544 78.3117 16.9389C79.3628 16.2511 79.2116 14.1023 77.922 13.4568C77.9128 13.4671 77.9033 13.4775 77.8941 13.4878Z" fill="var(--fill-0, #091626)"/>
<path id="Shape_2" fill-rule="evenodd" clip-rule="evenodd" d="M70.0396 18.3503C70.3443 18.4356 69.9765 18.9887 69.7988 19.4787C68.9416 21.8418 68.53 24.3773 68.519 26.8723C68.519 26.8723 68.5135 26.9745 68.4493 27.0199C68.3483 27.0916 68.1998 27.0425 68.1888 26.8855C68.1849 24.9647 68.4652 23.0178 68.9488 21.1274C69.1787 20.2284 69.4681 19.3441 69.8349 18.4915C69.8349 18.4915 69.8777 18.328 70.0396 18.3503Z" fill="var(--fill-0, #091626)"/>
<path id="Shape_3" fill-rule="evenodd" clip-rule="evenodd" d="M55.8218 21.5239C55.8218 21.5239 55.9276 21.5669 56.0112 21.6053C58.0742 22.568 59.8092 24.1738 60.925 26.166C62.8314 29.5695 63.0152 33.7166 62.2843 37.4643C61.7311 40.3006 60.6297 43.0535 58.9917 45.3997C58.613 45.9422 58.5195 45.5274 58.6015 45.3797C61.327 41.55 62.6679 36.671 62.2841 32.0248C62.012 28.7306 60.7094 25.3876 58.0591 23.2569C57.3473 22.6846 56.5577 22.2121 55.7216 21.8364C55.7216 21.8364 55.6551 21.8271 55.6293 21.7269C55.6036 21.6268 55.6384 21.5082 55.8218 21.5239Z" fill="var(--fill-0, #091626)"/>
<path id="Shape_4" fill-rule="evenodd" clip-rule="evenodd" d="M28.0541 14.6873C31.1898 14.7144 34.3527 15.2148 37.0693 16.7054C39.2811 17.9191 41.3718 19.4233 42.8793 21.4317C42.8793 21.4317 43.0536 21.3806 43.2342 21.3163C45.6054 20.4836 48.1844 20.2615 50.6109 20.3729C51.7176 20.4235 52.8317 20.5754 53.8907 20.8509C53.9801 20.8742 54.1716 21.0094 54.0369 21.1455C53.9536 21.2293 53.8026 21.1688 53.6676 21.1349C51.0027 20.4794 48.1811 20.5556 45.4675 21.0686C44.6705 21.2192 43.8826 21.4235 43.1226 21.7086C43.1226 21.7086 43.073 21.695 43.2274 21.9319C43.9836 23.1118 44.4502 24.5224 44.1767 25.8544C43.9746 26.8383 43.3779 27.7863 42.4086 28.0695C41.2146 28.4182 39.8386 27.7013 39.3927 26.4369C39.1763 25.8231 39.186 25.1388 39.3918 24.5208C39.8515 23.1406 41.1789 22.1763 42.5721 21.5743L42.5732 21.5739C41.0827 19.6175 39.0065 18.132 36.8573 16.966C33.5442 15.1684 29.5625 14.8372 25.7492 15.0885C24.378 15.1789 23.013 15.3507 21.657 15.579C21.657 15.579 21.6081 15.6034 21.5339 15.5506C21.4298 15.4764 21.4547 15.2985 21.6024 15.2531C23.7417 14.8932 25.8941 14.6781 28.0541 14.6873ZM42.7429 21.8606C41.2262 22.5076 39.7342 23.623 39.5748 25.2304C39.4499 26.4904 40.4228 27.859 41.7511 27.8392C41.9422 27.8363 42.1324 27.8061 42.316 27.7526C43.6489 27.3632 44.1934 25.5085 43.7788 23.9264C43.5824 23.1774 43.2148 22.4836 42.7729 21.848C42.7628 21.8522 42.7529 21.8564 42.7429 21.8606Z" fill="var(--fill-0, #091626)"/>
<path id="Shape_5" fill-rule="evenodd" clip-rule="evenodd" d="M18.8414 15.8154C18.9983 15.8496 19.0194 16.0904 18.8537 16.1396C16.5401 16.6733 14.2586 17.3204 12.0454 18.1867C12.0454 18.1867 11.6972 18.1996 11.8026 17.9759C11.8458 17.8836 11.9868 17.8549 12.0961 17.813C14.2414 16.9991 16.4493 16.3595 18.6858 15.8395L18.7796 15.8179C18.803 15.8141 18.7875 15.8107 18.8414 15.8154Z" fill="var(--fill-0, #091626)"/>
<path id="Shape_6" fill-rule="evenodd" clip-rule="evenodd" d="M7.4587 20.4407C6.29975 22.9112 2.64388 22.4649 1.97678 19.8189C1.48119 17.8537 0.975684 14.6102 2.89289 14.197C5.64673 13.603 5.20838 17.6701 5.20838 17.6701C5.20838 17.6701 7.75351 16.6904 7.70177 19.4579C7.69582 19.7844 7.60952 20.1195 7.4587 20.4407" fill="var(--fill-0, #7DDB85)"/>
<path id="Shape_7" fill-rule="evenodd" clip-rule="evenodd" d="M3.42892 13.9726C3.85825 13.979 4.27964 14.1248 4.59426 14.4277C5.38092 15.186 5.4342 16.3947 5.39148 17.413L5.39016 17.4411C5.42077 17.433 5.45159 17.4255 5.48241 17.418C6.20104 17.2555 7.05308 17.3141 7.51191 17.9744C8.12551 18.8572 7.92208 20.1302 7.34942 20.9634C6.48637 22.219 4.59514 22.5809 3.25015 21.7894C2.48925 21.3418 1.98419 20.5565 1.76975 19.6699C1.4472 18.3359 1.16363 16.9537 1.46878 15.6027C1.65636 14.7718 2.29198 14.0147 3.33931 13.9737C3.36926 13.9731 3.39898 13.9726 3.42892 13.9726ZM3.37588 14.3031C3.00204 14.3128 2.62225 14.4022 2.3433 14.6402C1.7647 15.1342 1.69227 15.9803 1.68853 16.6899C1.6828 17.7582 1.87038 18.8255 2.16034 19.8661C2.54013 21.1787 3.94875 22.0787 5.31291 21.8724C6.65966 21.669 7.72351 20.3011 7.5018 18.8753C7.42826 18.4037 7.17243 17.9138 6.68454 17.7472C6.23166 17.5926 5.71911 17.6556 5.26601 17.8249C5.26601 17.8249 5.02999 17.8476 5.05223 17.558C5.10375 16.8214 5.06786 16.0658 4.80806 15.3791C4.5868 14.7941 4.05576 14.2947 3.37588 14.3031Z" fill="var(--fill-0, #091626)"/>
<path id="Shape_8" fill-rule="evenodd" clip-rule="evenodd" d="M3.66283 24.2531C3.34579 24.2531 3.02391 24.1767 2.72492 24.0158L1.18134 23.1844C0.218107 22.6657 -0.142526 21.464 0.376407 20.5004C0.895119 19.5369 2.09679 19.1758 3.06068 19.6954L4.60404 20.5266C5.56749 21.0455 5.92812 22.2472 5.40919 23.2108C5.05142 23.8753 4.36824 24.2531 3.66283 24.2531" fill="var(--fill-0, white)"/>
<path id="Shape_9" fill-rule="evenodd" clip-rule="evenodd" d="M2.14084 19.2927C2.47901 19.2978 2.81345 19.3821 3.11463 19.5371C3.89578 19.9517 4.79164 20.278 5.30485 20.8857C6.00762 21.7179 5.93342 23.0957 5.12475 23.8456C4.48275 24.4409 3.47218 24.5814 2.67716 24.1771C1.86761 23.7496 0.941591 23.4162 0.431246 22.7646C-0.228153 21.9224 -0.119391 20.5754 0.676071 19.8515C1.07061 19.4924 1.59967 19.2914 2.14084 19.2927ZM2.09418 19.6232C0.98014 19.6474 0.0349653 20.8566 0.387672 21.9825C0.682475 22.9244 1.8324 23.3575 2.8291 23.8841C3.8412 24.3984 5.25797 23.7447 5.45612 22.5743C5.58008 21.8425 5.21284 21.0587 4.5464 20.6833C4.01998 20.3953 3.49158 20.1111 2.96164 19.8297C2.69458 19.6923 2.39647 19.6201 2.09418 19.6232Z" fill="var(--fill-0, #091626)"/>
<path id="Shape_10" fill-rule="evenodd" clip-rule="evenodd" d="M90.4826 5.44822C91.4539 7.51889 94.5184 7.14504 95.0776 4.92709C95.4931 3.27958 95.9167 0.561188 94.3097 0.214646C92.0013 -0.28315 92.3687 3.12591 92.3687 3.12591C92.3687 3.12591 90.2355 2.30469 90.2787 4.62458C90.2837 4.89803 90.3564 5.17896 90.4826 5.44822" fill="var(--fill-0, #7DDB85)"/>
<path id="Shape_11" fill-rule="evenodd" clip-rule="evenodd" d="M93.9108 0.000220166C94.3489 0.0116688 94.7899 0.14597 95.0907 0.474679C95.5819 1.01166 95.6373 1.80074 95.6211 2.48722C95.5907 3.75934 95.4308 5.15762 94.7021 6.0286C93.682 7.24788 91.4819 7.28487 90.537 5.87932C89.9278 4.97356 89.8344 3.52024 90.8437 2.98502C91.2364 2.77674 91.734 2.78995 92.1803 2.89717C92.1803 2.89717 92.1849 2.81791 92.1836 2.76881C92.1827 2.71399 92.1827 2.71399 92.1823 2.65895C92.1823 2.3822 92.1975 2.10501 92.2378 1.8309C92.251 1.74042 92.267 1.64993 92.2864 1.56032C92.3003 1.49515 92.3159 1.43042 92.3335 1.36613C92.5209 0.682516 93.0676 0.0116688 93.8602 0C93.8855 0 93.8853 0 93.9108 0.000220166ZM93.8628 0.330233C93.6268 0.333755 93.3906 0.396062 93.201 0.536308C92.4036 1.12591 92.4555 2.34982 92.533 3.10917C92.533 3.10917 92.552 3.35422 92.2288 3.25294C91.7235 3.10037 91.1143 3.05457 90.7488 3.47487C89.9635 4.37821 90.6332 6.04597 91.8188 6.49951C93.0081 6.9546 94.5081 6.28309 94.8912 4.98301C95.2334 3.82185 95.4927 2.57109 95.1902 1.38835C95.0504 0.841459 94.6244 0.358194 93.9256 0.330893C93.9047 0.330453 93.8837 0.330233 93.8628 0.330233Z" fill="var(--fill-0, #091626)"/>
<path id="Shape_12" fill-rule="evenodd" clip-rule="evenodd" d="M93.6645 8.64396C93.9302 8.64396 94.2001 8.58011 94.4505 8.44515L95.7444 7.74832C96.5519 7.31349 96.854 6.30623 96.4192 5.49844C95.9844 4.69087 94.9771 4.38836 94.1693 4.82363L92.8754 5.52023C92.0678 5.95528 91.7655 6.96254 92.2008 7.77033C92.5007 8.32758 93.0731 8.64396 93.6645 8.64396" fill="var(--fill-0, white)"/>
<path id="Shape_13" fill-rule="evenodd" clip-rule="evenodd" d="M94.9841 4.45968C96.1067 4.48411 97.0515 5.70648 96.6994 6.83153C96.5614 7.27274 96.2503 7.65319 95.8432 7.88238C95.1481 8.26261 94.4678 8.77472 93.7468 8.8073C92.8747 8.84649 92.0248 8.18159 91.8659 7.30951C91.7307 6.56777 92.1001 5.76746 92.7763 5.38614C93.5367 4.97046 94.2648 4.45263 94.9841 4.45968ZM94.9428 4.78972C94.7073 4.79324 94.4743 4.85225 94.2649 4.95991C93.6414 5.29104 92.9085 5.55678 92.5201 6.01693C91.914 6.73489 92.2084 8.02991 93.1304 8.38041C93.5225 8.52969 93.9737 8.50305 94.351 8.31106C95.1771 7.87425 96.1511 7.51164 96.3895 6.71574C96.6502 5.84586 95.9422 4.8223 94.9972 4.79038C94.9789 4.78994 94.9609 4.78972 94.9428 4.78972Z" fill="var(--fill-0, #091626)"/>
</g>
</svg>
