<svg preserveAspectRatio="none" width="100%" height="100%" overflow="visible" style="display: block;" viewBox="0 0 725.82 330.031" fill="none" xmlns="http://www.w3.org/2000/svg">
<g id="Vector" opacity="0.7" style="mix-blend-mode:soft-light">
<path d="M16.5943 0.10307H0.10307V16.5943M16.5943 0.10307V16.5943M16.5943 0.10307H33.0855M16.5943 16.5943H0.10307M16.5943 16.5943V33.0855M16.5943 16.5943H33.0855M0.10307 16.5943V33.0855M16.5943 33.0855H0.10307M16.5943 33.0855V49.5767M16.5943 33.0855H33.0855M0.10307 33.0855V49.5767M16.5943 49.5767H0.10307M16.5943 49.5767V66.068M16.5943 49.5767H33.0855M0.10307 49.5767V66.068M16.5943 66.068H0.10307M16.5943 66.068V82.5592M16.5943 66.068H33.0855M0.10307 66.068V82.5592M16.5943 82.5592H0.10307M16.5943 82.5592V99.0504M16.5943 82.5592H33.0855M0.10307 82.5592V99.0504M16.5943 99.0504H0.10307M16.5943 99.0504V115.542M16.5943 99.0504H33.0855M0.10307 99.0504V115.542M16.5943 115.542H0.10307M16.5943 115.542V132.033M16.5943 115.542H33.0855M0.10307 115.542V132.033M16.5943 132.033H0.10307M16.5943 132.033V148.524M16.5943 132.033H33.0855M0.10307 132.033V148.524M16.5943 148.524H0.10307M16.5943 148.524V165.015M16.5943 148.524H33.0855M0.10307 148.524V165.015M16.5943 165.015H0.10307M16.5943 165.015V181.507M16.5943 165.015H33.0855M0.10307 165.015V181.507M16.5943 181.507H0.10307M16.5943 181.507V197.998M16.5943 181.507H33.0855M0.10307 181.507V197.998M16.5943 197.998H0.10307M16.5943 197.998V214.489M16.5943 197.998H33.0855M0.10307 197.998V214.489M16.5943 214.489H0.10307M16.5943 214.489V230.98M16.5943 214.489H33.0855M0.10307 214.489V230.98M16.5943 230.98H0.10307M16.5943 230.98V247.471M16.5943 230.98H33.0855M0.10307 230.98V247.471M16.5943 247.471H0.10307M16.5943 247.471V263.963M16.5943 247.471H33.0855M0.10307 247.471V263.963M16.5943 263.963H0.10307M16.5943 263.963V280.454M16.5943 263.963H33.0855M0.10307 263.963V280.454M16.5943 280.454H0.10307M16.5943 280.454V296.945M16.5943 280.454H33.0855M0.10307 280.454V296.945M16.5943 296.945H0.10307M16.5943 296.945V313.436M16.5943 296.945H33.0855M0.10307 296.945V313.436M16.5943 313.436H0.10307M16.5943 313.436V329.928M16.5943 313.436H33.0855M0.10307 313.436V329.928H16.5943M16.5943 329.928H33.0855M33.0855 0.10307V16.5943M33.0855 0.10307H49.5768M33.0855 16.5943V33.0855M33.0855 16.5943H49.5768M33.0855 33.0855V49.5767M33.0855 33.0855H49.5768M33.0855 49.5767V66.068M33.0855 49.5767H49.5768M33.0855 66.068V82.5592M33.0855 66.068H49.5768M33.0855 82.5592V99.0504M33.0855 82.5592H49.5768M33.0855 99.0504V115.542M33.0855 99.0504H49.5768M33.0855 115.542V132.033M33.0855 115.542H49.5768M33.0855 132.033V148.524M33.0855 132.033H49.5768M33.0855 148.524V165.015M33.0855 148.524H49.5768M33.0855 165.015V181.507M33.0855 165.015H49.5768M33.0855 181.507V197.998M33.0855 181.507H49.5768M33.0855 197.998V214.489M33.0855 197.998H49.5768M33.0855 214.489V230.98M33.0855 214.489H49.5768M33.0855 230.98V247.471M33.0855 230.98H49.5768M33.0855 247.471V263.963M33.0855 247.471H49.5768M33.0855 263.963V280.454M33.0855 263.963H49.5768M33.0855 280.454V296.945M33.0855 280.454H49.5768M33.0855 296.945V313.436M33.0855 296.945H49.5768M33.0855 313.436V329.928M33.0855 313.436H49.5768M33.0855 329.928H49.5768M49.5768 0.10307V16.5943M49.5768 0.10307H66.068M49.5768 16.5943V33.0855M49.5768 16.5943H66.068M49.5768 33.0855V49.5767M49.5768 33.0855H66.068M49.5768 49.5767V66.068M49.5768 49.5767H66.068M49.5768 66.068V82.5592M49.5768 66.068H66.068M49.5768 82.5592V99.0504M49.5768 82.5592H66.068M49.5768 99.0504V115.542M49.5768 99.0504H66.068M49.5768 115.542V132.033M49.5768 115.542H66.068M49.5768 132.033V148.524M49.5768 132.033H66.068M49.5768 148.524V165.015M49.5768 148.524H66.068M49.5768 165.015V181.507M49.5768 165.015H66.068M49.5768 181.507V197.998M49.5768 181.507H66.068M49.5768 197.998V214.489M49.5768 197.998H66.068M49.5768 214.489V230.98M49.5768 214.489H66.068M49.5768 230.98V247.471M49.5768 230.98H66.068M49.5768 247.471V263.963M49.5768 247.471H66.068M49.5768 263.963V280.454M49.5768 263.963H66.068M49.5768 280.454V296.945M49.5768 280.454H66.068M49.5768 296.945V313.436M49.5768 296.945H66.068M49.5768 313.436V329.928M49.5768 313.436H66.068M49.5768 329.928H66.068M66.068 0.10307V16.5943M66.068 0.10307H82.5592M66.068 16.5943V33.0855M66.068 16.5943H82.5592M66.068 33.0855V49.5767M66.068 33.0855H82.5592M66.068 49.5767V66.068M66.068 49.5767H82.5592M66.068 66.068V82.5592M66.068 66.068H82.5592M66.068 82.5592V99.0504M66.068 82.5592H82.5592M66.068 99.0504V115.542M66.068 99.0504H82.5592M66.068 115.542V132.033M66.068 115.542H82.5592M66.068 132.033V148.524M66.068 132.033H82.5592M66.068 148.524V165.015M66.068 148.524H82.5592M66.068 165.015V181.507M66.068 165.015H82.5592M66.068 181.507V197.998M66.068 181.507H82.5592M66.068 197.998V214.489M66.068 197.998H82.5592M66.068 214.489V230.98M66.068 214.489H82.5592M66.068 230.98V247.471M66.068 230.98H82.5592M66.068 247.471V263.963M66.068 247.471H82.5592M66.068 263.963V280.454M66.068 263.963H82.5592M66.068 280.454V296.945M66.068 280.454H82.5592M66.068 296.945V313.436M66.068 296.945H82.5592M66.068 313.436V329.928M66.068 313.436H82.5592M66.068 329.928H82.5592M82.5592 0.10307V16.5943M82.5592 0.10307H99.0504M82.5592 16.5943V33.0855M82.5592 16.5943H99.0504M82.5592 33.0855V49.5767M82.5592 33.0855H99.0504M82.5592 49.5767V66.068M82.5592 49.5767H99.0504M82.5592 66.068V82.5592M82.5592 66.068H99.0504M82.5592 82.5592V99.0504M82.5592 82.5592H99.0504M82.5592 99.0504V115.542M82.5592 99.0504H99.0504M82.5592 115.542V132.033M82.5592 115.542H99.0504M82.5592 132.033V148.524M82.5592 132.033H99.0504M82.5592 148.524V165.015M82.5592 148.524H99.0504M82.5592 165.015V181.507M82.5592 165.015H99.0504M82.5592 181.507V197.998M82.5592 181.507H99.0504M82.5592 197.998V214.489M82.5592 197.998H99.0504M82.5592 214.489V230.98M82.5592 214.489H99.0504M82.5592 230.98V247.471M82.5592 230.98H99.0504M82.5592 247.471V263.963M82.5592 247.471H99.0504M82.5592 263.963V280.454M82.5592 263.963H99.0504M82.5592 280.454V296.945M82.5592 280.454H99.0504M82.5592 296.945V313.436M82.5592 296.945H99.0504M82.5592 313.436V329.928M82.5592 313.436H99.0504M82.5592 329.928H99.0504M99.0504 0.10307V16.5943M99.0504 0.10307H115.542M99.0504 16.5943V33.0855M99.0504 16.5943H115.542M99.0504 33.0855V49.5767M99.0504 33.0855H115.542M99.0504 49.5767V66.068M99.0504 49.5767H115.542M99.0504 66.068V82.5592M99.0504 66.068H115.542M99.0504 82.5592V99.0504M99.0504 82.5592H115.542M99.0504 99.0504V115.542M99.0504 99.0504H115.542M99.0504 115.542V132.033M99.0504 115.542H115.542M99.0504 132.033V148.524M99.0504 132.033H115.542M99.0504 148.524V165.015M99.0504 148.524H115.542M99.0504 165.015V181.507M99.0504 165.015H115.542M99.0504 181.507V197.998M99.0504 181.507H115.542M99.0504 197.998V214.489M99.0504 197.998H115.542M99.0504 214.489V230.98M99.0504 214.489H115.542M99.0504 230.98V247.471M99.0504 230.98H115.542M99.0504 247.471V263.963M99.0504 247.471H115.542M99.0504 263.963V280.454M99.0504 263.963H115.542M99.0504 280.454V296.945M99.0504 280.454H115.542M99.0504 296.945V313.436M99.0504 296.945H115.542M99.0504 313.436V329.928M99.0504 313.436H115.542M99.0504 329.928H115.542M115.542 0.10307V16.5943M115.542 0.10307H132.033M115.542 16.5943V33.0855M115.542 16.5943H132.033M115.542 33.0855V49.5767M115.542 33.0855H132.033M115.542 49.5767V66.068M115.542 49.5767H132.033M115.542 66.068V82.5592M115.542 66.068H132.033M115.542 82.5592V99.0504M115.542 82.5592H132.033M115.542 99.0504V115.542M115.542 99.0504H132.033M115.542 115.542V132.033M115.542 115.542H132.033M115.542 132.033V148.524M115.542 132.033H132.033M115.542 148.524V165.015M115.542 148.524H132.033M115.542 165.015V181.507M115.542 165.015H132.033M115.542 181.507V197.998M115.542 181.507H132.033M115.542 197.998V214.489M115.542 197.998H132.033M115.542 214.489V230.98M115.542 214.489H132.033M115.542 230.98V247.471M115.542 230.98H132.033M115.542 247.471V263.963M115.542 247.471H132.033M115.542 263.963V280.454M115.542 263.963H132.033M115.542 280.454V296.945M115.542 280.454H132.033M115.542 296.945V313.436M115.542 296.945H132.033M115.542 313.436V329.928M115.542 313.436H132.033M115.542 329.928H132.033M132.033 0.10307V16.5943M132.033 0.10307H148.524M132.033 16.5943V33.0855M132.033 16.5943H148.524M132.033 33.0855V49.5767M132.033 33.0855H148.524M132.033 49.5767V66.068M132.033 49.5767H148.524M132.033 66.068V82.5592M132.033 66.068H148.524M132.033 82.5592V99.0504M132.033 82.5592H148.524M132.033 99.0504V115.542M132.033 99.0504H148.524M132.033 115.542V132.033M132.033 115.542H148.524M132.033 132.033V148.524M132.033 132.033H148.524M132.033 148.524V165.015M132.033 148.524H148.524M132.033 165.015V181.507M132.033 165.015H148.524M132.033 181.507V197.998M132.033 181.507H148.524M132.033 197.998V214.489M132.033 197.998H148.524M132.033 214.489V230.98M132.033 214.489H148.524M132.033 230.98V247.471M132.033 230.98H148.524M132.033 247.471V263.963M132.033 247.471H148.524M132.033 263.963V280.454M132.033 263.963H148.524M132.033 280.454V296.945M132.033 280.454H148.524M132.033 296.945V313.436M132.033 296.945H148.524M132.033 313.436V329.928M132.033 313.436H148.524M132.033 329.928H148.524M148.524 0.10307V16.5943M148.524 0.10307H165.015M148.524 16.5943V33.0855M148.524 16.5943H165.015M148.524 33.0855V49.5767M148.524 33.0855H165.015M148.524 49.5767V66.068M148.524 49.5767H165.015M148.524 66.068V82.5592M148.524 66.068H165.015M148.524 82.5592V99.0504M148.524 82.5592H165.015M148.524 99.0504V115.542M148.524 99.0504H165.015M148.524 115.542V132.033M148.524 115.542H165.015M148.524 132.033V148.524M148.524 132.033H165.015M148.524 148.524V165.015M148.524 148.524H165.015M148.524 165.015V181.507M148.524 165.015H165.015M148.524 181.507V197.998M148.524 181.507H165.015M148.524 197.998V214.489M148.524 197.998H165.015M148.524 214.489V230.98M148.524 214.489H165.015M148.524 230.98V247.471M148.524 230.98H165.015M148.524 247.471V263.963M148.524 247.471H165.015M148.524 263.963V280.454M148.524 263.963H165.015M148.524 280.454V296.945M148.524 280.454H165.015M148.524 296.945V313.436M148.524 296.945H165.015M148.524 313.436V329.928M148.524 313.436H165.015M148.524 329.928H165.015M165.015 0.10307V16.5943M165.015 0.10307H181.507M165.015 16.5943V33.0855M165.015 16.5943H181.507M165.015 33.0855V49.5767M165.015 33.0855H181.507M165.015 49.5767V66.068M165.015 49.5767H181.507M165.015 66.068V82.5592M165.015 66.068H181.507M165.015 82.5592V99.0504M165.015 82.5592H181.507M165.015 99.0504V115.542M165.015 99.0504H181.507M165.015 115.542V132.033M165.015 115.542H181.507M165.015 132.033V148.524M165.015 132.033H181.507M165.015 148.524V165.015M165.015 148.524H181.507M165.015 165.015V181.507M165.015 165.015H181.507M165.015 181.507V197.998M165.015 181.507H181.507M165.015 197.998V214.489M165.015 197.998H181.507M165.015 214.489V230.98M165.015 214.489H181.507M165.015 230.98V247.471M165.015 230.98H181.507M165.015 247.471V263.963M165.015 247.471H181.507M165.015 263.963V280.454M165.015 263.963H181.507M165.015 280.454V296.945M165.015 280.454H181.507M165.015 296.945V313.436M165.015 296.945H181.507M165.015 313.436V329.928M165.015 313.436H181.507M165.015 329.928H181.507M181.507 0.10307V16.5943M181.507 0.10307H197.998M181.507 16.5943V33.0855M181.507 16.5943H197.998M181.507 33.0855V49.5767M181.507 33.0855H197.998M181.507 49.5767V66.068M181.507 49.5767H197.998M181.507 66.068V82.5592M181.507 66.068H197.998M181.507 82.5592V99.0504M181.507 82.5592H197.998M181.507 99.0504V115.542M181.507 99.0504H197.998M181.507 115.542V132.033M181.507 115.542H197.998M181.507 132.033V148.524M181.507 132.033H197.998M181.507 148.524V165.015M181.507 148.524H197.998M181.507 165.015V181.507M181.507 165.015H197.998M181.507 181.507V197.998M181.507 181.507H197.998M181.507 197.998V214.489M181.507 197.998H197.998M181.507 214.489V230.98M181.507 214.489H197.998M181.507 230.98V247.471M181.507 230.98H197.998M181.507 247.471V263.963M181.507 247.471H197.998M181.507 263.963V280.454M181.507 263.963H197.998M181.507 280.454V296.945M181.507 280.454H197.998M181.507 296.945V313.436M181.507 296.945H197.998M181.507 313.436V329.928M181.507 313.436H197.998M181.507 329.928H197.998M197.998 0.10307V16.5943M197.998 0.10307H214.489M197.998 16.5943V33.0855M197.998 16.5943H214.489M197.998 33.0855V49.5767M197.998 33.0855H214.489M197.998 49.5767V66.068M197.998 49.5767H214.489M197.998 66.068V82.5592M197.998 66.068H214.489M197.998 82.5592V99.0504M197.998 82.5592H214.489M197.998 99.0504V115.542M197.998 99.0504H214.489M197.998 115.542V132.033M197.998 115.542H214.489M197.998 132.033V148.524M197.998 132.033H214.489M197.998 148.524V165.015M197.998 148.524H214.489M197.998 165.015V181.507M197.998 165.015H214.489M197.998 181.507V197.998M197.998 181.507H214.489M197.998 197.998V214.489M197.998 197.998H214.489M197.998 214.489V230.98M197.998 214.489H214.489M197.998 230.98V247.471M197.998 230.98H214.489M197.998 247.471V263.963M197.998 247.471H214.489M197.998 263.963V280.454M197.998 263.963H214.489M197.998 280.454V296.945M197.998 280.454H214.489M197.998 296.945V313.436M197.998 296.945H214.489M197.998 313.436V329.928M197.998 313.436H214.489M197.998 329.928H214.489M214.489 0.10307V16.5943M214.489 0.10307H230.98M214.489 16.5943V33.0855M214.489 16.5943H230.98M214.489 33.0855V49.5767M214.489 33.0855H230.98M214.489 49.5767V66.068M214.489 49.5767H230.98M214.489 66.068V82.5592M214.489 66.068H230.98M214.489 82.5592V99.0504M214.489 82.5592H230.98M214.489 99.0504V115.542M214.489 99.0504H230.98M214.489 115.542V132.033M214.489 115.542H230.98M214.489 132.033V148.524M214.489 132.033H230.98M214.489 148.524V165.015M214.489 148.524H230.98M214.489 165.015V181.507M214.489 165.015H230.98M214.489 181.507V197.998M214.489 181.507H230.98M214.489 197.998V214.489M214.489 197.998H230.98M214.489 214.489V230.98M214.489 214.489H230.98M214.489 230.98V247.471M214.489 230.98H230.98M214.489 247.471V263.963M214.489 247.471H230.98M214.489 263.963V280.454M214.489 263.963H230.98M214.489 280.454V296.945M214.489 280.454H230.98M214.489 296.945V313.436M214.489 296.945H230.98M214.489 313.436V329.928M214.489 313.436H230.98M214.489 329.928H230.98M230.98 0.10307V16.5943M230.98 0.10307H247.471M230.98 16.5943V33.0855M230.98 16.5943H247.471M230.98 33.0855V49.5767M230.98 33.0855H247.471M230.98 49.5767V66.068M230.98 49.5767H247.471M230.98 66.068V82.5592M230.98 66.068H247.471M230.98 82.5592V99.0504M230.98 82.5592H247.471M230.98 99.0504V115.542M230.98 99.0504H247.471M230.98 115.542V132.033M230.98 115.542H247.471M230.98 132.033V148.524M230.98 132.033H247.471M230.98 148.524V165.015M230.98 148.524H247.471M230.98 165.015V181.507M230.98 165.015H247.471M230.98 181.507V197.998M230.98 181.507H247.471M230.98 197.998V214.489M230.98 197.998H247.471M230.98 214.489V230.98M230.98 214.489H247.471M230.98 230.98V247.471M230.98 230.98H247.471M230.98 247.471V263.963M230.98 247.471H247.471M230.98 263.963V280.454M230.98 263.963H247.471M230.98 280.454V296.945M230.98 280.454H247.471M230.98 296.945V313.436M230.98 296.945H247.471M230.98 313.436V329.928M230.98 313.436H247.471M230.98 329.928H247.471M247.471 0.10307V16.5943M247.471 0.10307H263.963M247.471 16.5943V33.0855M247.471 16.5943H263.963M247.471 33.0855V49.5767M247.471 33.0855H263.963M247.471 49.5767V66.068M247.471 49.5767H263.963M247.471 66.068V82.5592M247.471 66.068H263.963M247.471 82.5592V99.0504M247.471 82.5592H263.963M247.471 99.0504V115.542M247.471 99.0504H263.963M247.471 115.542V132.033M247.471 115.542H263.963M247.471 132.033V148.524M247.471 132.033H263.963M247.471 148.524V165.015M247.471 148.524H263.963M247.471 165.015V181.507M247.471 165.015H263.963M247.471 181.507V197.998M247.471 181.507H263.963M247.471 197.998V214.489M247.471 197.998H263.963M247.471 214.489V230.98M247.471 214.489H263.963M247.471 230.98V247.471M247.471 230.98H263.963M247.471 247.471V263.963M247.471 247.471H263.963M247.471 263.963V280.454M247.471 263.963H263.963M247.471 280.454V296.945M247.471 280.454H263.963M247.471 296.945V313.436M247.471 296.945H263.963M247.471 313.436V329.928M247.471 313.436H263.963M247.471 329.928H263.963M263.963 0.10307V16.5943M263.963 0.10307H280.454M263.963 16.5943V33.0855M263.963 16.5943H280.454M263.963 33.0855V49.5767M263.963 33.0855H280.454M263.963 49.5767V66.068M263.963 49.5767H280.454M263.963 66.068V82.5592M263.963 66.068H280.454M263.963 82.5592V99.0504M263.963 82.5592H280.454M263.963 99.0504V115.542M263.963 99.0504H280.454M263.963 115.542V132.033M263.963 115.542H280.454M263.963 132.033V148.524M263.963 132.033H280.454M263.963 148.524V165.015M263.963 148.524H280.454M263.963 165.015V181.507M263.963 165.015H280.454M263.963 181.507V197.998M263.963 181.507H280.454M263.963 197.998V214.489M263.963 197.998H280.454M263.963 214.489V230.98M263.963 214.489H280.454M263.963 230.98V247.471M263.963 230.98H280.454M263.963 247.471V263.963M263.963 247.471H280.454M263.963 263.963V280.454M263.963 263.963H280.454M263.963 280.454V296.945M263.963 280.454H280.454M263.963 296.945V313.436M263.963 296.945H280.454M263.963 313.436V329.928M263.963 313.436H280.454M263.963 329.928H280.454M280.454 0.10307V16.5943M280.454 0.10307H296.945M280.454 16.5943V33.0855M280.454 16.5943H296.945M280.454 33.0855V49.5767M280.454 33.0855H296.945M280.454 49.5767V66.068M280.454 49.5767H296.945M280.454 66.068V82.5592M280.454 66.068H296.945M280.454 82.5592V99.0504M280.454 82.5592H296.945M280.454 99.0504V115.542M280.454 99.0504H296.945M280.454 115.542V132.033M280.454 115.542H296.945M280.454 132.033V148.524M280.454 132.033H296.945M280.454 148.524V165.015M280.454 148.524H296.945M280.454 165.015V181.507M280.454 165.015H296.945M280.454 181.507V197.998M280.454 181.507H296.945M280.454 197.998V214.489M280.454 197.998H296.945M280.454 214.489V230.98M280.454 214.489H296.945M280.454 230.98V247.471M280.454 230.98H296.945M280.454 247.471V263.963M280.454 247.471H296.945M280.454 263.963V280.454M280.454 263.963H296.945M280.454 280.454V296.945M280.454 280.454H296.945M280.454 296.945V313.436M280.454 296.945H296.945M280.454 313.436V329.928M280.454 313.436H296.945M280.454 329.928H296.945M296.945 0.10307V16.5943M296.945 0.10307H313.436M296.945 16.5943V33.0855M296.945 16.5943H313.436M296.945 33.0855V49.5767M296.945 33.0855H313.436M296.945 49.5767V66.068M296.945 49.5767H313.436M296.945 66.068V82.5592M296.945 66.068H313.436M296.945 82.5592V99.0504M296.945 82.5592H313.436M296.945 99.0504V115.542M296.945 99.0504H313.436M296.945 115.542V132.033M296.945 115.542H313.436M296.945 132.033V148.524M296.945 132.033H313.436M296.945 148.524V165.015M296.945 148.524H313.436M296.945 165.015V181.507M296.945 165.015H313.436M296.945 181.507V197.998M296.945 181.507H313.436M296.945 197.998V214.489M296.945 197.998H313.436M296.945 214.489V230.98M296.945 214.489H313.436M296.945 230.98V247.471M296.945 230.98H313.436M296.945 247.471V263.963M296.945 247.471H313.436M296.945 263.963V280.454M296.945 263.963H313.436M296.945 280.454V296.945M296.945 280.454H313.436M296.945 296.945V313.436M296.945 296.945H313.436M296.945 313.436V329.928M296.945 313.436H313.436M296.945 329.928H313.436M313.436 0.10307V16.5943M313.436 0.10307H329.928M313.436 16.5943V33.0855M313.436 16.5943H329.928M313.436 33.0855V49.5767M313.436 33.0855H329.928M313.436 49.5767V66.068M313.436 49.5767H329.928M313.436 66.068V82.5592M313.436 66.068H329.928M313.436 82.5592V99.0504M313.436 82.5592H329.928M313.436 99.0504V115.542M313.436 99.0504H329.928M313.436 115.542V132.033M313.436 115.542H329.928M313.436 132.033V148.524M313.436 132.033H329.928M313.436 148.524V165.015M313.436 148.524H329.928M313.436 165.015V181.507M313.436 165.015H329.928M313.436 181.507V197.998M313.436 181.507H329.928M313.436 197.998V214.489M313.436 197.998H329.928M313.436 214.489V230.98M313.436 214.489H329.928M313.436 230.98V247.471M313.436 230.98H329.928M313.436 247.471V263.963M313.436 247.471H329.928M313.436 263.963V280.454M313.436 263.963H329.928M313.436 280.454V296.945M313.436 280.454H329.928M313.436 296.945V313.436M313.436 296.945H329.928M313.436 313.436V329.928M313.436 313.436H329.928M313.436 329.928H329.928M329.928 0.10307V16.5943M329.928 0.10307H346.419M329.928 16.5943V33.0855M329.928 16.5943H346.419M329.928 33.0855V49.5767M329.928 33.0855H346.419M329.928 49.5767V66.068M329.928 49.5767H346.419M329.928 66.068V82.5592M329.928 66.068H346.419M329.928 82.5592V99.0504M329.928 82.5592H346.419M329.928 99.0504V115.542M329.928 99.0504H346.419M329.928 115.542V132.033M329.928 115.542H346.419M329.928 132.033V148.524M329.928 132.033H346.419M329.928 148.524V165.015M329.928 148.524H346.419M329.928 165.015V181.507M329.928 165.015H346.419M329.928 181.507V197.998M329.928 181.507H346.419M329.928 197.998V214.489M329.928 197.998H346.419M329.928 214.489V230.98M329.928 214.489H346.419M329.928 230.98V247.471M329.928 230.98H346.419M329.928 247.471V263.963M329.928 247.471H346.419M329.928 263.963V280.454M329.928 263.963H346.419M329.928 280.454V296.945M329.928 280.454H346.419M329.928 296.945V313.436M329.928 296.945H346.419M329.928 313.436V329.928M329.928 313.436H346.419M329.928 329.928H346.419M346.419 0.10307V16.5943M346.419 0.10307H362.91M346.419 16.5943V33.0855M346.419 16.5943H362.91M346.419 33.0855V49.5767M346.419 33.0855H362.91M346.419 49.5767V66.068M346.419 49.5767H362.91M346.419 66.068V82.5592M346.419 66.068H362.91M346.419 82.5592V99.0504M346.419 82.5592H362.91M346.419 99.0504V115.542M346.419 99.0504H362.91M346.419 115.542V132.033M346.419 115.542H362.91M346.419 132.033V148.524M346.419 132.033H362.91M346.419 148.524V165.015M346.419 148.524H362.91M346.419 165.015V181.507M346.419 165.015H362.91M346.419 181.507V197.998M346.419 181.507H362.91M346.419 197.998V214.489M346.419 197.998H362.91M346.419 214.489V230.98M346.419 214.489H362.91M346.419 230.98V247.471M346.419 230.98H362.91M346.419 247.471V263.963M346.419 247.471H362.91M346.419 263.963V280.454M346.419 263.963H362.91M346.419 280.454V296.945M346.419 280.454H362.91M346.419 296.945V313.436M346.419 296.945H362.91M346.419 313.436V329.928M346.419 313.436H362.91M346.419 329.928H362.91M362.91 0.10307V16.5943M362.91 0.10307H379.401M362.91 16.5943V33.0855M362.91 16.5943H379.401M362.91 33.0855V49.5767M362.91 33.0855H379.401M362.91 49.5767V66.068M362.91 49.5767H379.401M362.91 66.068V82.5592M362.91 66.068H379.401M362.91 82.5592V99.0504M362.91 82.5592H379.401M362.91 99.0504V115.542M362.91 99.0504H379.401M362.91 115.542V132.033M362.91 115.542H379.401M362.91 132.033V148.524M362.91 132.033H379.401M362.91 148.524V165.015M362.91 148.524H379.401M362.91 165.015V181.507M362.91 165.015H379.401M362.91 181.507V197.998M362.91 181.507H379.401M362.91 197.998V214.489M362.91 197.998H379.401M362.91 214.489V230.98M362.91 214.489H379.401M362.91 230.98V247.471M362.91 230.98H379.401M362.91 247.471V263.963M362.91 247.471H379.401M362.91 263.963V280.454M362.91 263.963H379.401M362.91 280.454V296.945M362.91 280.454H379.401M362.91 296.945V313.436M362.91 296.945H379.401M362.91 313.436V329.928M362.91 313.436H379.401M362.91 329.928H379.401M379.401 0.10307V16.5943M379.401 0.10307H395.893M379.401 16.5943V33.0855M379.401 16.5943H395.893M379.401 33.0855V49.5767M379.401 33.0855H395.893M379.401 49.5767V66.068M379.401 49.5767H395.893M379.401 66.068V82.5592M379.401 66.068H395.893M379.401 82.5592V99.0504M379.401 82.5592H395.893M379.401 99.0504V115.542M379.401 99.0504H395.893M379.401 115.542V132.033M379.401 115.542H395.893M379.401 132.033V148.524M379.401 132.033H395.893M379.401 148.524V165.015M379.401 148.524H395.893M379.401 165.015V181.507M379.401 165.015H395.893M379.401 181.507V197.998M379.401 181.507H395.893M379.401 197.998V214.489M379.401 197.998H395.893M379.401 214.489V230.98M379.401 214.489H395.893M379.401 230.98V247.471M379.401 230.98H395.893M379.401 247.471V263.963M379.401 247.471H395.893M379.401 263.963V280.454M379.401 263.963H395.893M379.401 280.454V296.945M379.401 280.454H395.893M379.401 296.945V313.436M379.401 296.945H395.893M379.401 313.436V329.928M379.401 313.436H395.893M379.401 329.928H395.893M395.893 0.10307V16.5943M395.893 0.10307H412.384M395.893 16.5943V33.0855M395.893 16.5943H412.384M395.893 33.0855V49.5767M395.893 33.0855H412.384M395.893 49.5767V66.068M395.893 49.5767H412.384M395.893 66.068V82.5592M395.893 66.068H412.384M395.893 82.5592V99.0504M395.893 82.5592H412.384M395.893 99.0504V115.542M395.893 99.0504H412.384M395.893 115.542V132.033M395.893 115.542H412.384M395.893 132.033V148.524M395.893 132.033H412.384M395.893 148.524V165.015M395.893 148.524H412.384M395.893 165.015V181.507M395.893 165.015H412.384M395.893 181.507V197.998M395.893 181.507H412.384M395.893 197.998V214.489M395.893 197.998H412.384M395.893 214.489V230.98M395.893 214.489H412.384M395.893 230.98V247.471M395.893 230.98H412.384M395.893 247.471V263.963M395.893 247.471H412.384M395.893 263.963V280.454M395.893 263.963H412.384M395.893 280.454V296.945M395.893 280.454H412.384M395.893 296.945V313.436M395.893 296.945H412.384M395.893 313.436V329.928M395.893 313.436H412.384M395.893 329.928H412.384M412.384 0.10307V16.5943M412.384 0.10307H428.875M412.384 16.5943V33.0855M412.384 16.5943H428.875M412.384 33.0855V49.5767M412.384 33.0855H428.875M412.384 49.5767V66.068M412.384 49.5767H428.875M412.384 66.068V82.5592M412.384 66.068H428.875M412.384 82.5592V99.0504M412.384 82.5592H428.875M412.384 99.0504V115.542M412.384 99.0504H428.875M412.384 115.542V132.033M412.384 115.542H428.875M412.384 132.033V148.524M412.384 132.033H428.875M412.384 148.524V165.015M412.384 148.524H428.875M412.384 165.015V181.507M412.384 165.015H428.875M412.384 181.507V197.998M412.384 181.507H428.875M412.384 197.998V214.489M412.384 197.998H428.875M412.384 214.489V230.98M412.384 214.489H428.875M412.384 230.98V247.471M412.384 230.98H428.875M412.384 247.471V263.963M412.384 247.471H428.875M412.384 263.963V280.454M412.384 263.963H428.875M412.384 280.454V296.945M412.384 280.454H428.875M412.384 296.945V313.436M412.384 296.945H428.875M412.384 313.436V329.928M412.384 313.436H428.875M412.384 329.928H428.875M428.875 0.10307V16.5943M428.875 0.10307H445.366M428.875 16.5943V33.0855M428.875 16.5943H445.366M428.875 33.0855V49.5767M428.875 33.0855H445.366M428.875 49.5767V66.068M428.875 49.5767H445.366M428.875 66.068V82.5592M428.875 66.068H445.366M428.875 82.5592V99.0504M428.875 82.5592H445.366M428.875 99.0504V115.542M428.875 99.0504H445.366M428.875 115.542V132.033M428.875 115.542H445.366M428.875 132.033V148.524M428.875 132.033H445.366M428.875 148.524V165.015M428.875 148.524H445.366M428.875 165.015V181.507M428.875 165.015H445.366M428.875 181.507V197.998M428.875 181.507H445.366M428.875 197.998V214.489M428.875 197.998H445.366M428.875 214.489V230.98M428.875 214.489H445.366M428.875 230.98V247.471M428.875 230.98H445.366M428.875 247.471V263.963M428.875 247.471H445.366M428.875 263.963V280.454M428.875 263.963H445.366M428.875 280.454V296.945M428.875 280.454H445.366M428.875 296.945V313.436M428.875 296.945H445.366M428.875 313.436V329.928M428.875 313.436H445.366M428.875 329.928H445.366M445.366 0.10307V16.5943M445.366 0.10307H461.857M445.366 16.5943V33.0855M445.366 16.5943H461.857M445.366 33.0855V49.5767M445.366 33.0855H461.857M445.366 49.5767V66.068M445.366 49.5767H461.857M445.366 66.068V82.5592M445.366 66.068H461.857M445.366 82.5592V99.0504M445.366 82.5592H461.857M445.366 99.0504V115.542M445.366 99.0504H461.857M445.366 115.542V132.033M445.366 115.542H461.857M445.366 132.033V148.524M445.366 132.033H461.857M445.366 148.524V165.015M445.366 148.524H461.857M445.366 165.015V181.507M445.366 165.015H461.857M445.366 181.507V197.998M445.366 181.507H461.857M445.366 197.998V214.489M445.366 197.998H461.857M445.366 214.489V230.98M445.366 214.489H461.857M445.366 230.98V247.471M445.366 230.98H461.857M445.366 247.471V263.963M445.366 247.471H461.857M445.366 263.963V280.454M445.366 263.963H461.857M445.366 280.454V296.945M445.366 280.454H461.857M445.366 296.945V313.436M445.366 296.945H461.857M445.366 313.436V329.928M445.366 313.436H461.857M445.366 329.928H461.857M461.857 0.10307V16.5943M461.857 0.10307H478.349M461.857 16.5943V33.0855M461.857 16.5943H478.349M461.857 33.0855V49.5767M461.857 33.0855H478.349M461.857 49.5767V66.068M461.857 49.5767H478.349M461.857 66.068V82.5592M461.857 66.068H478.349M461.857 82.5592V99.0504M461.857 82.5592H478.349M461.857 99.0504V115.542M461.857 99.0504H478.349M461.857 115.542V132.033M461.857 115.542H478.349M461.857 132.033V148.524M461.857 132.033H478.349M461.857 148.524V165.015M461.857 148.524H478.349M461.857 165.015V181.507M461.857 165.015H478.349M461.857 181.507V197.998M461.857 181.507H478.349M461.857 197.998V214.489M461.857 197.998H478.349M461.857 214.489V230.98M461.857 214.489H478.349M461.857 230.98V247.471M461.857 230.98H478.349M461.857 247.471V263.963M461.857 247.471H478.349M461.857 263.963V280.454M461.857 263.963H478.349M461.857 280.454V296.945M461.857 280.454H478.349M461.857 296.945V313.436M461.857 296.945H478.349M461.857 313.436V329.928M461.857 313.436H478.349M461.857 329.928H478.349M478.349 0.10307V16.5943M478.349 0.10307H494.84M478.349 16.5943V33.0855M478.349 16.5943H494.84M478.349 33.0855V49.5767M478.349 33.0855H494.84M478.349 49.5767V66.068M478.349 49.5767H494.84M478.349 66.068V82.5592M478.349 66.068H494.84M478.349 82.5592V99.0504M478.349 82.5592H494.84M478.349 99.0504V115.542M478.349 99.0504H494.84M478.349 115.542V132.033M478.349 115.542H494.84M478.349 132.033V148.524M478.349 132.033H494.84M478.349 148.524V165.015M478.349 148.524H494.84M478.349 165.015V181.507M478.349 165.015H494.84M478.349 181.507V197.998M478.349 181.507H494.84M478.349 197.998V214.489M478.349 197.998H494.84M478.349 214.489V230.98M478.349 214.489H494.84M478.349 230.98V247.471M478.349 230.98H494.84M478.349 247.471V263.963M478.349 247.471H494.84M478.349 263.963V280.454M478.349 263.963H494.84M478.349 280.454V296.945M478.349 280.454H494.84M478.349 296.945V313.436M478.349 296.945H494.84M478.349 313.436V329.928M478.349 313.436H494.84M478.349 329.928H494.84M494.84 0.10307V16.5943M494.84 0.10307H511.331M494.84 16.5943V33.0855M494.84 16.5943H511.331M494.84 33.0855V49.5767M494.84 33.0855H511.331M494.84 49.5767V66.068M494.84 49.5767H511.331M494.84 66.068V82.5592M494.84 66.068H511.331M494.84 82.5592V99.0504M494.84 82.5592H511.331M494.84 99.0504V115.542M494.84 99.0504H511.331M494.84 115.542V132.033M494.84 115.542H511.331M494.84 132.033V148.524M494.84 132.033H511.331M494.84 148.524V165.015M494.84 148.524H511.331M494.84 165.015V181.507M494.84 165.015H511.331M494.84 181.507V197.998M494.84 181.507H511.331M494.84 197.998V214.489M494.84 197.998H511.331M494.84 214.489V230.98M494.84 214.489H511.331M494.84 230.98V247.471M494.84 230.98H511.331M494.84 247.471V263.963M494.84 247.471H511.331M494.84 263.963V280.454M494.84 263.963H511.331M494.84 280.454V296.945M494.84 280.454H511.331M494.84 296.945V313.436M494.84 296.945H511.331M494.84 313.436V329.928M494.84 313.436H511.331M494.84 329.928H511.331M511.331 0.10307V16.5943M511.331 0.10307H527.822M511.331 16.5943V33.0855M511.331 16.5943H527.822M511.331 33.0855V49.5767M511.331 33.0855H527.822M511.331 49.5767V66.068M511.331 49.5767H527.822M511.331 66.068V82.5592M511.331 66.068H527.822M511.331 82.5592V99.0504M511.331 82.5592H527.822M511.331 99.0504V115.542M511.331 99.0504H527.822M511.331 115.542V132.033M511.331 115.542H527.822M511.331 132.033V148.524M511.331 132.033H527.822M511.331 148.524V165.015M511.331 148.524H527.822M511.331 165.015V181.507M511.331 165.015H527.822M511.331 181.507V197.998M511.331 181.507H527.822M511.331 197.998V214.489M511.331 197.998H527.822M511.331 214.489V230.98M511.331 214.489H527.822M511.331 230.98V247.471M511.331 230.98H527.822M511.331 247.471V263.963M511.331 247.471H527.822M511.331 263.963V280.454M511.331 263.963H527.822M511.331 280.454V296.945M511.331 280.454H527.822M511.331 296.945V313.436M511.331 296.945H527.822M511.331 313.436V329.928M511.331 313.436H527.822M511.331 329.928H527.822M527.822 0.10307V16.5943M527.822 0.10307H544.314M527.822 16.5943V33.0855M527.822 16.5943H544.314M527.822 33.0855V49.5767M527.822 33.0855H544.314M527.822 49.5767V66.068M527.822 49.5767H544.314M527.822 66.068V82.5592M527.822 66.068H544.314M527.822 82.5592V99.0504M527.822 82.5592H544.314M527.822 99.0504V115.542M527.822 99.0504H544.314M527.822 115.542V132.033M527.822 115.542H544.314M527.822 132.033V148.524M527.822 132.033H544.314M527.822 148.524V165.015M527.822 148.524H544.314M527.822 165.015V181.507M527.822 165.015H544.314M527.822 181.507V197.998M527.822 181.507H544.314M527.822 197.998V214.489M527.822 197.998H544.314M527.822 214.489V230.98M527.822 214.489H544.314M527.822 230.98V247.471M527.822 230.98H544.314M527.822 247.471V263.963M527.822 247.471H544.314M527.822 263.963V280.454M527.822 263.963H544.314M527.822 280.454V296.945M527.822 280.454H544.314M527.822 296.945V313.436M527.822 296.945H544.314M527.822 313.436V329.928M527.822 313.436H544.314M527.822 329.928H544.314M544.314 0.10307V16.5943M544.314 0.10307H560.805M544.314 16.5943V33.0855M544.314 16.5943H560.805M544.314 33.0855V49.5767M544.314 33.0855H560.805M544.314 49.5767V66.068M544.314 49.5767H560.805M544.314 66.068V82.5592M544.314 66.068H560.805M544.314 82.5592V99.0504M544.314 82.5592H560.805M544.314 99.0504V115.542M544.314 99.0504H560.805M544.314 115.542V132.033M544.314 115.542H560.805M544.314 132.033V148.524M544.314 132.033H560.805M544.314 148.524V165.015M544.314 148.524H560.805M544.314 165.015V181.507M544.314 165.015H560.805M544.314 181.507V197.998M544.314 181.507H560.805M544.314 197.998V214.489M544.314 197.998H560.805M544.314 214.489V230.98M544.314 214.489H560.805M544.314 230.98V247.471M544.314 230.98H560.805M544.314 247.471V263.963M544.314 247.471H560.805M544.314 263.963V280.454M544.314 263.963H560.805M544.314 280.454V296.945M544.314 280.454H560.805M544.314 296.945V313.436M544.314 296.945H560.805M544.314 313.436V329.928M544.314 313.436H560.805M544.314 329.928H560.805M560.805 0.10307V16.5943M560.805 0.10307H577.296M560.805 16.5943V33.0855M560.805 16.5943H577.296M560.805 33.0855V49.5767M560.805 33.0855H577.296M560.805 49.5767V66.068M560.805 49.5767H577.296M560.805 66.068V82.5592M560.805 66.068H577.296M560.805 82.5592V99.0504M560.805 82.5592H577.296M560.805 99.0504V115.542M560.805 99.0504H577.296M560.805 115.542V132.033M560.805 115.542H577.296M560.805 132.033V148.524M560.805 132.033H577.296M560.805 148.524V165.015M560.805 148.524H577.296M560.805 165.015V181.507M560.805 165.015H577.296M560.805 181.507V197.998M560.805 181.507H577.296M560.805 197.998V214.489M560.805 197.998H577.296M560.805 214.489V230.98M560.805 214.489H577.296M560.805 230.98V247.471M560.805 230.98H577.296M560.805 247.471V263.963M560.805 247.471H577.296M560.805 263.963V280.454M560.805 263.963H577.296M560.805 280.454V296.945M560.805 280.454H577.296M560.805 296.945V313.436M560.805 296.945H577.296M560.805 313.436V329.928M560.805 313.436H577.296M560.805 329.928H577.296M577.296 0.10307V16.5943M577.296 0.10307H593.787M577.296 16.5943V33.0855M577.296 16.5943H593.787M577.296 33.0855V49.5767M577.296 33.0855H593.787M577.296 49.5767V66.068M577.296 49.5767H593.787M577.296 66.068V82.5592M577.296 66.068H593.787M577.296 82.5592V99.0504M577.296 82.5592H593.787M577.296 99.0504V115.542M577.296 99.0504H593.787M577.296 115.542V132.033M577.296 115.542H593.787M577.296 132.033V148.524M577.296 132.033H593.787M577.296 148.524V165.015M577.296 148.524H593.787M577.296 165.015V181.507M577.296 165.015H593.787M577.296 181.507V197.998M577.296 181.507H593.787M577.296 197.998V214.489M577.296 197.998H593.787M577.296 214.489V230.98M577.296 214.489H593.787M577.296 230.98V247.471M577.296 230.98H593.787M577.296 247.471V263.963M577.296 247.471H593.787M577.296 263.963V280.454M577.296 263.963H593.787M577.296 280.454V296.945M577.296 280.454H593.787M577.296 296.945V313.436M577.296 296.945H593.787M577.296 313.436V329.928M577.296 313.436H593.787M577.296 329.928H593.787M593.787 0.10307V16.5943M593.787 0.10307H610.278M593.787 16.5943V33.0855M593.787 16.5943H610.278M593.787 33.0855V49.5767M593.787 33.0855H610.278M593.787 49.5767V66.068M593.787 49.5767H610.278M593.787 66.068V82.5592M593.787 66.068H610.278M593.787 82.5592V99.0504M593.787 82.5592H610.278M593.787 99.0504V115.542M593.787 99.0504H610.278M593.787 115.542V132.033M593.787 115.542H610.278M593.787 132.033V148.524M593.787 132.033H610.278M593.787 148.524V165.015M593.787 148.524H610.278M593.787 165.015V181.507M593.787 165.015H610.278M593.787 181.507V197.998M593.787 181.507H610.278M593.787 197.998V214.489M593.787 197.998H610.278M593.787 214.489V230.98M593.787 214.489H610.278M593.787 230.98V247.471M593.787 230.98H610.278M593.787 247.471V263.963M593.787 247.471H610.278M593.787 263.963V280.454M593.787 263.963H610.278M593.787 280.454V296.945M593.787 280.454H610.278M593.787 296.945V313.436M593.787 296.945H610.278M593.787 313.436V329.928M593.787 313.436H610.278M593.787 329.928H610.278M610.278 0.10307V16.5943M610.278 0.10307H626.77M610.278 16.5943V33.0855M610.278 16.5943H626.77M610.278 33.0855V49.5767M610.278 33.0855H626.77M610.278 49.5767V66.068M610.278 49.5767H626.77M610.278 66.068V82.5592M610.278 66.068H626.77M610.278 82.5592V99.0504M610.278 82.5592H626.77M610.278 99.0504V115.542M610.278 99.0504H626.77M610.278 115.542V132.033M610.278 115.542H626.77M610.278 132.033V148.524M610.278 132.033H626.77M610.278 148.524V165.015M610.278 148.524H626.77M610.278 165.015V181.507M610.278 165.015H626.77M610.278 181.507V197.998M610.278 181.507H626.77M610.278 197.998V214.489M610.278 197.998H626.77M610.278 214.489V230.98M610.278 214.489H626.77M610.278 230.98V247.471M610.278 230.98H626.77M610.278 247.471V263.963M610.278 247.471H626.77M610.278 263.963V280.454M610.278 263.963H626.77M610.278 280.454V296.945M610.278 280.454H626.77M610.278 296.945V313.436M610.278 296.945H626.77M610.278 313.436V329.928M610.278 313.436H626.77M610.278 329.928H626.77M626.77 0.10307V16.5943M626.77 0.10307H643.261M626.77 16.5943V33.0855M626.77 16.5943H643.261M626.77 33.0855V49.5767M626.77 33.0855H643.261M626.77 49.5767V66.068M626.77 49.5767H643.261M626.77 66.068V82.5592M626.77 66.068H643.261M626.77 82.5592V99.0504M626.77 82.5592H643.261M626.77 99.0504V115.542M626.77 99.0504H643.261M626.77 115.542V132.033M626.77 115.542H643.261M626.77 132.033V148.524M626.77 132.033H643.261M626.77 148.524V165.015M626.77 148.524H643.261M626.77 165.015V181.507M626.77 165.015H643.261M626.77 181.507V197.998M626.77 181.507H643.261M626.77 197.998V214.489M626.77 197.998H643.261M626.77 214.489V230.98M626.77 214.489H643.261M626.77 230.98V247.471M626.77 230.98H643.261M626.77 247.471V263.963M626.77 247.471H643.261M626.77 263.963V280.454M626.77 263.963H643.261M626.77 280.454V296.945M626.77 280.454H643.261M626.77 296.945V313.436M626.77 296.945H643.261M626.77 313.436V329.928M626.77 313.436H643.261M626.77 329.928H643.261M643.261 0.10307V16.5943M643.261 0.10307H659.752M643.261 16.5943V33.0855M643.261 16.5943H659.752M643.261 33.0855V49.5767M643.261 33.0855H659.752M643.261 49.5767V66.068M643.261 49.5767H659.752M643.261 66.068V82.5592M643.261 66.068H659.752M643.261 82.5592V99.0504M643.261 82.5592H659.752M643.261 99.0504V115.542M643.261 99.0504H659.752M643.261 115.542V132.033M643.261 115.542H659.752M643.261 132.033V148.524M643.261 132.033H659.752M643.261 148.524V165.015M643.261 148.524H659.752M643.261 165.015V181.507M643.261 165.015H659.752M643.261 181.507V197.998M643.261 181.507H659.752M643.261 197.998V214.489M643.261 197.998H659.752M643.261 214.489V230.98M643.261 214.489H659.752M643.261 230.98V247.471M643.261 230.98H659.752M643.261 247.471V263.963M643.261 247.471H659.752M643.261 263.963V280.454M643.261 263.963H659.752M643.261 280.454V296.945M643.261 280.454H659.752M643.261 296.945V313.436M643.261 296.945H659.752M643.261 313.436V329.928M643.261 313.436H659.752M643.261 329.928H659.752M659.752 0.10307V16.5943M659.752 0.10307H676.243M659.752 16.5943V33.0855M659.752 16.5943H676.243M659.752 33.0855V49.5767M659.752 33.0855H676.243M659.752 49.5767V66.068M659.752 49.5767H676.243M659.752 66.068V82.5592M659.752 66.068H676.243M659.752 82.5592V99.0504M659.752 82.5592H676.243M659.752 99.0504V115.542M659.752 99.0504H676.243M659.752 115.542V132.033M659.752 115.542H676.243M659.752 132.033V148.524M659.752 132.033H676.243M659.752 148.524V165.015M659.752 148.524H676.243M659.752 165.015V181.507M659.752 165.015H676.243M659.752 181.507V197.998M659.752 181.507H676.243M659.752 197.998V214.489M659.752 197.998H676.243M659.752 214.489V230.98M659.752 214.489H676.243M659.752 230.98V247.471M659.752 230.98H676.243M659.752 247.471V263.963M659.752 247.471H676.243M659.752 263.963V280.454M659.752 263.963H676.243M659.752 280.454V296.945M659.752 280.454H676.243M659.752 296.945V313.436M659.752 296.945H676.243M659.752 313.436V329.928M659.752 313.436H676.243M659.752 329.928H676.243M676.243 0.10307V16.5943M676.243 0.10307H692.735M676.243 16.5943V33.0855M676.243 16.5943H692.735M676.243 33.0855V49.5767M676.243 33.0855H692.735M676.243 49.5767V66.068M676.243 49.5767H692.735M676.243 66.068V82.5592M676.243 66.068H692.735M676.243 82.5592V99.0504M676.243 82.5592H692.735M676.243 99.0504V115.542M676.243 99.0504H692.735M676.243 115.542V132.033M676.243 115.542H692.735M676.243 132.033V148.524M676.243 132.033H692.735M676.243 148.524V165.015M676.243 148.524H692.735M676.243 165.015V181.507M676.243 165.015H692.735M676.243 181.507V197.998M676.243 181.507H692.735M676.243 197.998V214.489M676.243 197.998H692.735M676.243 214.489V230.98M676.243 214.489H692.735M676.243 230.98V247.471M676.243 230.98H692.735M676.243 247.471V263.963M676.243 247.471H692.735M676.243 263.963V280.454M676.243 263.963H692.735M676.243 280.454V296.945M676.243 280.454H692.735M676.243 296.945V313.436M676.243 296.945H692.735M676.243 313.436V329.928M676.243 313.436H692.735M676.243 329.928H692.735M692.735 0.10307V16.5943M692.735 0.10307H709.226M692.735 16.5943V33.0855M692.735 16.5943H709.226M692.735 33.0855V49.5767M692.735 33.0855H709.226M692.735 49.5767V66.068M692.735 49.5767H709.226M692.735 66.068V82.5592M692.735 66.068H709.226M692.735 82.5592V99.0504M692.735 82.5592H709.226M692.735 99.0504V115.542M692.735 99.0504H709.226M692.735 115.542V132.033M692.735 115.542H709.226M692.735 132.033V148.524M692.735 132.033H709.226M692.735 148.524V165.015M692.735 148.524H709.226M692.735 165.015V181.507M692.735 165.015H709.226M692.735 181.507V197.998M692.735 181.507H709.226M692.735 197.998V214.489M692.735 197.998H709.226M692.735 214.489V230.98M692.735 214.489H709.226M692.735 230.98V247.471M692.735 230.98H709.226M692.735 247.471V263.963M692.735 247.471H709.226M692.735 263.963V280.454M692.735 263.963H709.226M692.735 280.454V296.945M692.735 280.454H709.226M692.735 296.945V313.436M692.735 296.945H709.226M692.735 313.436V329.928M692.735 313.436H709.226M692.735 329.928H709.226M709.226 0.10307V16.5943M709.226 0.10307H725.717V16.5943M709.226 16.5943V33.0855M709.226 16.5943H725.717M709.226 33.0855V49.5767M709.226 33.0855H725.717M709.226 49.5767V66.068M709.226 49.5767H725.717M709.226 66.068V82.5592M709.226 66.068H725.717M709.226 82.5592V99.0504M709.226 82.5592H725.717M709.226 99.0504V115.542M709.226 99.0504H725.717M709.226 115.542V132.033M709.226 115.542H725.717M709.226 132.033V148.524M709.226 132.033H725.717M709.226 148.524V165.015M709.226 148.524H725.717M709.226 165.015V181.507M709.226 165.015H725.717M709.226 181.507V197.998M709.226 181.507H725.717M709.226 197.998V214.489M709.226 197.998H725.717M709.226 214.489V230.98M709.226 214.489H725.717M709.226 230.98V247.471M709.226 230.98H725.717M709.226 247.471V263.963M709.226 247.471H725.717M709.226 263.963V280.454M709.226 263.963H725.717M709.226 280.454V296.945M709.226 280.454H725.717M709.226 296.945V313.436M709.226 296.945H725.717M709.226 313.436V329.928M709.226 313.436H725.717M709.226 329.928H725.717V313.436M725.717 16.5943V33.0855M725.717 33.0855V49.5767M725.717 49.5767V66.068M725.717 66.068V82.5592M725.717 82.5592V99.0504M725.717 99.0504V115.542M725.717 115.542V132.033M725.717 132.033V148.524M725.717 148.524V165.015M725.717 165.015V181.507M725.717 181.507V197.998M725.717 197.998V214.489M725.717 214.489V230.98M725.717 230.98V247.471M725.717 247.471V263.963M725.717 263.963V280.454M725.717 280.454V296.945M725.717 296.945V313.436" stroke="url(#paint0_radial_0_28)" stroke-opacity="0.6" stroke-width="0.20614"/>
</g>
<defs>
<radialGradient id="paint0_radial_0_28" cx="0" cy="0" r="1" gradientUnits="userSpaceOnUse" gradientTransform="translate(362.91 165.015) rotate(90) scale(164.912 362.807)">
<stop stop-color="white"/>
<stop offset="1" stop-color="white" stop-opacity="0"/>
</radialGradient>
</defs>
</svg>
