<svg preserveAspectRatio="none" width="100%" height="100%" overflow="visible" style="display: block;" viewBox="0 0 735.509 339.719" fill="none" xmlns="http://www.w3.org/2000/svg">
<g id="Vector" opacity="0.8" style="mix-blend-mode:soft-light">
<path d="M70.9123 65.9649V70.9122M70.9123 70.9122V75.8596M70.9123 70.9122H65.9649M70.9123 70.9122H75.8597M70.9123 197.895V202.842M70.9123 202.842V207.789M70.9123 202.842H65.9649M70.9123 202.842H75.8597M70.9123 329.824V334.772M70.9123 334.772V339.719M70.9123 334.772H65.9649M70.9123 334.772H75.8597M202.842 65.9649V70.9122M202.842 70.9122V75.8596M202.842 70.9122H197.895M202.842 70.9122H207.79M202.842 197.895V202.842M202.842 202.842V207.789M202.842 202.842H197.895M202.842 202.842H207.79M202.842 329.824V334.772M202.842 334.772V339.719M202.842 334.772H197.895M202.842 334.772H207.79M334.772 65.9649V70.9122M334.772 70.9122V75.8596M334.772 70.9122H329.825M334.772 70.9122H339.719M334.772 197.895V202.842M334.772 202.842V207.789M334.772 202.842H329.825M334.772 202.842H339.719M334.772 329.824V334.772M334.772 334.772V339.719M334.772 334.772H329.825M334.772 334.772H339.719M466.702 65.9649V70.9122M466.702 70.9122V75.8596M466.702 70.9122H461.754M466.702 70.9122H471.649M466.702 197.895V202.842M466.702 202.842V207.789M466.702 202.842H461.754M466.702 202.842H471.649M466.702 329.824V334.772M466.702 334.772V339.719M466.702 334.772H461.754M466.702 334.772H471.649M598.632 65.9649V70.9122M598.632 70.9122V75.8596M598.632 70.9122H593.684M598.632 70.9122H603.579M598.632 197.895V202.842M598.632 202.842V207.789M598.632 202.842H593.684M598.632 202.842H603.579M598.632 329.824V334.772M598.632 334.772V339.719M598.632 334.772H593.684M598.632 334.772H603.579M730.561 65.9649V70.9122M730.561 70.9122V75.8596M730.561 70.9122H725.614M730.561 70.9122H735.509M730.561 197.895V202.842M730.561 202.842V207.789M730.561 202.842H725.614M730.561 202.842H735.509M730.561 329.824V334.772M730.561 334.772V339.719M730.561 334.772H725.614M730.561 334.772H735.509M70.9123 0V4.94737M70.9123 4.94737V9.89474M70.9123 4.94737H65.9649M70.9123 4.94737H75.8597M70.9123 131.93V136.877M70.9123 136.877V141.825M70.9123 136.877H65.9649M70.9123 136.877H75.8597M70.9123 263.86V268.807M70.9123 268.807V273.754M70.9123 268.807H65.9649M70.9123 268.807H75.8597M202.842 0V4.94737M202.842 4.94737V9.89474M202.842 4.94737H197.895M202.842 4.94737H207.79M202.842 131.93V136.877M202.842 136.877V141.825M202.842 136.877H197.895M202.842 136.877H207.79M202.842 263.86V268.807M202.842 268.807V273.754M202.842 268.807H197.895M202.842 268.807H207.79M334.772 0V4.94737M334.772 4.94737V9.89474M334.772 4.94737H329.825M334.772 4.94737H339.719M334.772 131.93V136.877M334.772 136.877V141.825M334.772 136.877H329.825M334.772 136.877H339.719M334.772 263.86V268.807M334.772 268.807V273.754M334.772 268.807H329.825M334.772 268.807H339.719M466.702 0V4.94737M466.702 4.94737V9.89474M466.702 4.94737H461.754M466.702 4.94737H471.649M466.702 131.93V136.877M466.702 136.877V141.825M466.702 136.877H461.754M466.702 136.877H471.649M466.702 263.86V268.807M466.702 268.807V273.754M466.702 268.807H461.754M466.702 268.807H471.649M598.632 0V4.94737M598.632 4.94737V9.89474M598.632 4.94737H593.684M598.632 4.94737H603.579M598.632 131.93V136.877M598.632 136.877V141.825M598.632 136.877H593.684M598.632 136.877H603.579M598.632 263.86V268.807M598.632 268.807V273.754M598.632 268.807H593.684M598.632 268.807H603.579M730.561 0V4.94737M730.561 4.94737V9.89474M730.561 4.94737H725.614M730.561 4.94737H735.509M730.561 131.93V136.877M730.561 136.877V141.825M730.561 136.877H725.614M730.561 136.877H735.509M730.561 263.86V268.807M730.561 268.807V273.754M730.561 268.807H725.614M730.561 268.807H735.509M4.94737 65.9649V70.9122M4.94737 70.9122V75.8596M4.94737 70.9122H0M4.94737 70.9122H9.89474M4.94737 197.895V202.842M4.94737 202.842V207.789M4.94737 202.842H0M4.94737 202.842H9.89474M4.94737 329.824V334.772M4.94737 334.772V339.719M4.94737 334.772H0M4.94737 334.772H9.89474M136.877 65.9649V70.9122M136.877 70.9122V75.8596M136.877 70.9122H131.93M136.877 70.9122H141.825M136.877 197.895V202.842M136.877 202.842V207.789M136.877 202.842H131.93M136.877 202.842H141.825M136.877 329.824V334.772M136.877 334.772V339.719M136.877 334.772H131.93M136.877 334.772H141.825M268.807 65.9649V70.9122M268.807 70.9122V75.8596M268.807 70.9122H263.86M268.807 70.9122H273.754M268.807 197.895V202.842M268.807 202.842V207.789M268.807 202.842H263.86M268.807 202.842H273.754M268.807 329.824V334.772M268.807 334.772V339.719M268.807 334.772H263.86M268.807 334.772H273.754M400.737 65.9649V70.9122M400.737 70.9122V75.8596M400.737 70.9122H395.789M400.737 70.9122H405.684M400.737 197.895V202.842M400.737 202.842V207.789M400.737 202.842H395.789M400.737 202.842H405.684M400.737 329.824V334.772M400.737 334.772V339.719M400.737 334.772H395.789M400.737 334.772H405.684M532.667 65.9649V70.9122M532.667 70.9122V75.8596M532.667 70.9122H527.719M532.667 70.9122H537.614M532.667 197.895V202.842M532.667 202.842V207.789M532.667 202.842H527.719M532.667 202.842H537.614M532.667 329.824V334.772M532.667 334.772V339.719M532.667 334.772H527.719M532.667 334.772H537.614M664.596 65.9649V70.9122M664.596 70.9122V75.8596M664.596 70.9122H659.649M664.596 70.9122H669.544M664.596 197.895V202.842M664.596 202.842V207.789M664.596 202.842H659.649M664.596 202.842H669.544M664.596 329.824V334.772M664.596 334.772V339.719M664.596 334.772H659.649M664.596 334.772H669.544M4.94737 2.43213e-05V4.94739M4.94737 4.94739V9.89476M4.94737 4.94739H0M4.94737 4.94739H9.89474M4.94737 131.93V136.877M4.94737 136.877V141.825M4.94737 136.877H0M4.94737 136.877H9.89474M4.94737 263.86V268.807M4.94737 268.807V273.754M4.94737 268.807H0M4.94737 268.807H9.89474M136.877 0V4.94737M136.877 4.94737V9.89474M136.877 4.94737H131.93M136.877 4.94737H141.825M136.877 131.93V136.877M136.877 136.877V141.825M136.877 136.877H131.93M136.877 136.877H141.825M136.877 263.86V268.807M136.877 268.807V273.754M136.877 268.807H131.93M136.877 268.807H141.825M268.807 0V4.94737M268.807 4.94737V9.89474M268.807 4.94737H263.86M268.807 4.94737H273.754M268.807 131.93V136.877M268.807 136.877V141.825M268.807 136.877H263.86M268.807 136.877H273.754M268.807 263.86V268.807M268.807 268.807V273.754M268.807 268.807H263.86M268.807 268.807H273.754M400.737 0V4.94737M400.737 4.94737V9.89474M400.737 4.94737H395.789M400.737 4.94737H405.684M400.737 131.93V136.877M400.737 136.877V141.825M400.737 136.877H395.789M400.737 136.877H405.684M400.737 263.86V268.807M400.737 268.807V273.754M400.737 268.807H395.789M400.737 268.807H405.684M532.667 0V4.94737M532.667 4.94737V9.89474M532.667 4.94737H527.719M532.667 4.94737H537.614M532.667 131.93V136.877M532.667 136.877V141.825M532.667 136.877H527.719M532.667 136.877H537.614M532.667 263.86V268.807M532.667 268.807V273.754M532.667 268.807H527.719M532.667 268.807H537.614M664.596 0V4.94737M664.596 4.94737V9.89474M664.596 4.94737H659.649M664.596 4.94737H669.544M664.596 131.93V136.877M664.596 136.877V141.825M664.596 136.877H659.649M664.596 136.877H669.544M664.596 263.86V268.807M664.596 268.807V273.754M664.596 268.807H659.649M664.596 268.807H669.544" stroke="url(#paint0_radial_0_27)" stroke-opacity="0.6" stroke-width="0.412281"/>
</g>
<defs>
<radialGradient id="paint0_radial_0_27" cx="0" cy="0" r="1" gradientUnits="userSpaceOnUse" gradientTransform="translate(367.754 169.86) rotate(90) scale(169.86 367.754)">
<stop stop-color="white"/>
<stop offset="1" stop-color="white" stop-opacity="0"/>
</radialGradient>
</defs>
</svg>
