<svg width="1040" height="452" viewBox="0 0 1040 452" fill="none" xmlns="http://www.w3.org/2000/svg">
<path opacity="0.2" d="M2235.22 9.82521L2207.66 0.601562M2235.22 9.82521H2153.56M2235.22 9.82521L2263.69 19.3535M2235.22 9.82521H2293.05M2207.66 0.601562L2217.69 0.605159L2227.61 0.62513L2237.33 0.681283L2246.74 0.791874L2255.74 0.971343L2264.24 1.24149L2272.14 1.61674L2279.46 2.09529L2285.75 2.75701L2291.47 3.52384L2293.05 3.79244V9.82521M2207.66 0.601562H2127.32M2127.32 0.601562H2046.98M2127.32 0.601562L2153.56 9.82521M2046.98 0.601562H1966.64M2046.98 0.601562L2071.91 9.82521M1966.64 0.601562H1886.3M1966.64 0.601562L1990.26 9.82521M1886.3 0.601562H1805.96M1886.3 0.601562L1908.61 9.82521M1805.96 0.601562H1725.62M1805.96 0.601562L1826.95 9.82521M1725.62 0.601562H1645.28M1725.62 0.601562L1745.3 9.82521M1645.28 0.601562H1564.94M1645.28 0.601562L1663.65 9.82521M1564.94 0.601562H1484.59M1564.94 0.601562L1581.99 9.82521M1484.59 0.601562H1404.25M1484.59 0.601562L1500.34 9.82521M1404.25 0.601562H1323.91M1404.25 0.601562L1418.69 9.82521M1323.91 0.601562H1243.57M1323.91 0.601562L1337.03 9.82521M1243.57 0.601562H1163.23M1243.57 0.601562L1246.49 2.88027L1250.91 6.33011L1255.38 9.82521M1163.23 0.601562H1082.89M1163.23 0.601562L1165.82 2.88027L1173.73 9.82521M1082.89 0.601562H1002.55M1082.89 0.601562L1092.07 9.82521M1002.55 0.601562H922.205M1002.55 0.601562L1005.47 4.02596L1008.43 7.49029L1009.42 8.65595L1010.42 9.82521M922.205 0.601562H841.865M922.205 0.601562L924.64 4.02596L925.46 5.17529L926.282 6.33011L928.767 9.82521M841.865 0.601562H761.524M841.865 0.601562L847.114 9.82521M761.524 0.601562L762.009 1.73818L762.495 2.88027L764.96 8.65595L765.46 9.82521M761.524 0.601562H681.183M681.183 0.601562H600.841M681.183 0.601562L683.807 9.82521M600.841 0.601562H520.5M600.841 0.601562L601.328 4.02596L602.154 9.82521M520.5 0.601562H440.159M520.5 0.601562V9.82521M440.159 0.601562H359.817M440.159 0.601562L439.672 4.02596L438.847 9.82521M359.817 0.601562H279.476M359.817 0.601562L357.193 9.82521M279.476 0.601562L278.991 1.73818L278.505 2.88027L276.04 8.65595L275.54 9.82521M279.476 0.601562H199.136M199.136 0.601562H118.793M199.136 0.601562L194.553 8.65595L193.886 9.82521M118.793 0.601562H38.4526M118.793 0.601562L116.36 4.02596L115.54 5.17529L113.893 7.49029L113.066 8.65595L112.233 9.82521M38.4526 0.601562H-41.888M38.4526 0.601562L35.5317 4.02596L32.572 7.49029L31.5786 8.65595L30.5796 9.82521M-41.888 0.601562H-122.229M-41.888 0.601562L-51.0719 9.82521M-122.229 0.601562H-202.571M-122.229 0.601562L-124.821 2.88027L-132.725 9.82521M-202.571 0.601562H-282.912M-202.571 0.601562L-214.379 9.82521M-282.912 0.601562H-363.252M-282.912 0.601562L-296.032 9.82521M-363.252 0.601562H-443.595M-363.252 0.601562L-377.686 9.82521M-443.595 0.601562H-523.935M-443.595 0.601562L-459.339 9.82521M-523.935 0.601562H-604.276M-523.935 0.601562L-540.992 9.82521M-604.276 0.601562H-684.617M-604.276 0.601562L-622.646 9.82521M-684.617 0.601562H-764.959M-684.617 0.601562L-704.299 9.82521M-764.959 0.601562H-845.3M-764.959 0.601562L-785.953 9.82521M-845.3 0.601562H-925.64M-845.3 0.601562L-867.606 9.82521M-925.64 0.601562H-1005.98M-925.64 0.601562L-949.26 9.82521M-1005.98 0.601562H-1086.32M-1005.98 0.601562L-1030.91 9.82521M-1086.32 0.601562H-1166.66M-1086.32 0.601562L-1112.56 9.82521M-1166.66 0.601562L-1176.69 0.605159L-1186.61 0.62513L-1196.33 0.681283L-1205.74 0.791874L-1214.74 0.971343L-1223.24 1.24149L-1231.13 1.61674L-1238.46 2.09529L-1244.75 2.75701L-1250.47 3.52384L-1252.05 3.79249V9.82521M-1166.66 0.601562L-1194.22 9.82521M-1030.91 9.82521H-949.26M-1030.91 9.82521H-1112.56M-1030.91 9.82521L-1056.67 19.3535M-949.26 9.82521L-973.662 19.3535M-949.26 9.82521H-867.606M-704.299 9.82521H-622.646M-704.299 9.82521H-785.953M-704.299 9.82521L-709.32 12.1783L-724.634 19.3535M-622.646 9.82521L-641.625 19.3535M-622.646 9.82521H-540.992M-377.686 9.82521H-296.032M-377.686 9.82521H-459.339M-377.686 9.82521L-381.367 12.1783L-383.221 13.3602L-392.599 19.3535M-296.032 9.82521L-297.703 10.9981L-299.38 12.1783L-309.589 19.3535M-296.032 9.82521H-214.379M-51.0719 9.82521L-52.2425 10.9981L-60.5624 19.3535M-51.0719 9.82521H30.5796M-51.0719 9.82521H-132.725M30.5796 9.82521L28.5726 12.1783L27.5607 13.3602L26.5472 14.5495L22.4463 19.3535M30.5796 9.82521H112.233M275.54 9.82521H357.193M275.54 9.82521H193.886M275.54 9.82521L271.474 19.3535M357.193 9.82521L356.859 10.9981L356.525 12.1783L356.187 13.3602L355.168 16.9406L354.483 19.3535M357.193 9.82521H438.847M602.154 9.82521H683.807M602.154 9.82521H520.5M602.154 9.82521L603.509 19.3535M683.807 9.82521L684.141 10.9981L684.475 12.1783L684.813 13.3602L686.517 19.3535M683.807 9.82521H765.46M928.767 9.82521H1010.42M928.767 9.82521H847.114M928.767 9.82521L930.44 12.1783L933.83 16.9406L934.685 18.1443L935.545 19.3535M1010.42 9.82521L1012.43 12.1783L1013.44 13.3602L1014.45 14.5495L1018.55 19.3535M1010.42 9.82521H1092.07M1255.38 9.82521H1337.03M1255.38 9.82521H1173.73M1255.38 9.82521L1258.39 12.1783L1259.91 13.3602L1267.58 19.3535M1337.03 9.82521L1338.7 10.9981L1340.38 12.1783L1350.59 19.3535M1337.03 9.82521H1418.69M1581.99 9.82521H1663.65M1581.99 9.82521H1500.34M1581.99 9.82521L1586.34 12.1783L1588.53 13.3602L1599.62 19.3535M1663.65 9.82521L1682.63 19.3535M1663.65 9.82521H1745.3M1908.61 9.82521H1990.26M1908.61 9.82521H1826.95M1908.61 9.82521L1931.65 19.3535M1990.26 9.82521L2014.66 19.3535M1990.26 9.82521H2071.91M-1252.33 96.0797H-1252.05M-1170.15 96.0797L-1138.97 83.9065M-1170.15 96.0797L-1202.52 108.719M-1170.15 96.0797H-1076.22M-1170.15 96.0797H-1252.05M-1138.97 83.9065H-1231.16M-1138.97 83.9065L-1108.93 72.1739M-1138.97 83.9065H-1046.78M-1231.16 83.9065L-1199.45 72.1739M-1231.16 83.9065H-1252.05M-1231.16 83.9065L-1252.05 91.6294M-1139.34 49.9377H-1051.98M-1139.34 49.9377L-1110.84 39.3924M-1139.34 49.9377H-1226.7M-1139.34 49.9377L-1168.86 60.8582M-1051.98 49.9377L-1024.98 39.3924M-1051.98 49.9377L-1079.95 60.8582M-1051.98 49.9377H-964.623M-1110.84 39.3924H-1024.98M-1110.84 39.3924L-1083.3 29.2044M-1110.84 39.3924H-1196.7M-1024.98 39.3924H-939.119M-1024.98 39.3924L-998.887 29.2044M-1252.94 288.221H-1252.05M-1177.16 288.221L-1136.96 268.039M-1177.16 288.221L-1219.35 309.408M-1177.16 288.221H-1055.89M-1177.16 288.221H-1252.05M-1136.96 268.039L-1098.62 248.791M-1136.96 268.039H-1018.57M-1136.96 268.039H-1252.05M-1214.27 248.791H-1098.62M-1214.27 248.791L-1175.05 230.412M-1214.27 248.791H-1252.05M-1214.27 248.791L-1252.05 266.492M-1137.56 212.846H-1027.02M-1137.56 212.846L-1101.7 196.041M-1137.56 212.846H-1248.1M-1137.56 212.846L-1175.05 230.412M-1027.02 212.846L-993.549 196.041M-1027.02 212.846L-1062.01 230.412M-1027.02 212.846H-916.486M-1101.7 196.041H-993.549M-1101.7 196.041H-1209.84M-1101.7 196.041L-1067.35 179.947M-993.549 196.041L-961.494 179.947M-993.549 196.041H-885.404M-1002.84 149.719H-901.288M-1002.84 149.719L-972.517 135.509M-1002.84 149.719H-1104.4M-1002.84 149.719L-1034.43 164.519M-901.288 149.719L-872.983 135.509M-901.288 149.719L-930.766 164.519M-901.288 149.719H-799.731M-972.517 135.509H-872.983M-972.517 135.509H-1072.05M-972.517 135.509L-943.373 121.853M-872.983 135.509L-845.782 121.853M-872.983 135.509H-773.447M-888.373 96.0797H-794.448M-888.373 96.0797L-862.394 83.9065M-888.373 96.0797H-982.297M-888.373 96.0797L-915.347 108.719M-794.448 96.0797L-770.201 83.9065M-794.448 96.0797L-819.624 108.719M-794.448 96.0797H-700.523M-862.394 83.9065H-770.201M-862.394 83.9065H-954.586M-862.394 83.9065L-837.355 72.1739M-770.201 83.9065L-746.831 72.1739M-770.201 83.9065H-678.008M-789.904 49.9377H-702.543M-789.904 49.9377L-767.4 39.3924M-789.904 49.9377H-877.263M-789.904 49.9377L-813.207 60.8582M-702.543 49.9377L-681.541 39.3924M-702.543 49.9377L-724.294 60.8582M-702.543 49.9377H-615.183M-767.4 39.3924H-681.541M-767.4 39.3924L-745.655 29.2044M-767.4 39.3924H-853.26M-681.541 39.3924H-595.679M-681.541 39.3924L-661.245 29.2044M-1189.92 638.123L-1133.34 598.355M-1189.92 638.123L-1250.51 680.708M-1189.92 638.123H-1018.88M-1189.92 638.123H-1252.05M-1133.34 598.355L-1080.39 561.134M-1133.34 598.355H-967.958M-1133.34 598.355H-1252.05M-1134.49 493.41H-984.037M-1134.49 493.41L-1086.14 462.518M-1134.49 493.41L-1185.84 526.222M-1134.49 493.41H-1252.05M-984.037 493.41L-940.085 462.518M-984.037 493.41L-1030.72 526.222M-984.037 493.41H-833.583M-1086.14 462.518H-940.085M-1086.14 462.518H-1232.2M-1086.14 462.518L-1040.54 433.377M-940.085 462.518L-898.626 433.377M-940.085 462.518H-794.025M-956.682 379.793H-822.391M-956.682 379.793L-918.042 355.104M-956.682 379.793H-1090.97M-956.682 379.793L-997.452 405.847M-822.391 379.793L-787.265 355.104M-822.391 379.793L-859.458 405.847M-822.391 379.793H-688.103M-918.042 355.104H-787.265M-918.042 355.104H-1048.82M-918.042 355.104L-881.375 331.673M-787.265 355.104L-753.931 331.673M-787.265 355.104H-656.49M-813.374 288.221H-692.111M-813.374 288.221L-781.787 268.039M-813.374 288.221H-934.634M-813.374 288.221L-846.528 309.408M-692.111 288.221L-663.398 268.039M-692.111 288.221L-722.254 309.408M-692.111 288.221H-570.851M-781.787 268.039H-663.398M-781.787 268.039H-900.177M-781.787 268.039L-751.663 248.791M-663.398 268.039L-636.012 248.791M-663.398 268.039H-545.008M-695.411 212.846H-584.874M-695.411 212.846L-669.111 196.041M-695.411 212.846H-805.949M-695.411 212.846L-722.902 230.412M-584.874 212.846L-560.963 196.041M-584.874 212.846L-609.865 230.412M-584.874 212.846H-474.337M-669.111 196.041H-560.963M-669.111 196.041H-777.256M-669.111 196.041L-643.924 179.947M-560.963 196.041L-538.066 179.947M-560.963 196.041H-452.818M-596.619 149.719H-495.063M-596.619 149.719L-574.379 135.509M-596.619 149.719H-698.175M-596.619 149.719L-619.78 164.519M-495.063 149.719L-492.489 147.912L-474.845 135.509M-495.063 149.719L-516.118 164.519M-495.063 149.719H-393.506M-574.379 135.509H-474.845M-574.379 135.509H-673.913M-574.379 135.509L-553.007 121.853M-474.845 135.509L-455.415 121.853M-474.845 135.509H-375.309M-512.674 96.0797H-418.748M-512.674 96.0797L-493.621 83.9065M-512.674 96.0797H-606.599M-512.674 96.0797L-532.455 108.719M-418.748 96.0797L-401.429 83.9065M-418.748 96.0797L-425.411 100.764L-436.732 108.719M-418.748 96.0797H-324.823M-493.621 83.9065H-401.429M-493.621 83.9065H-585.814M-493.621 83.9065L-475.261 72.1739M-401.429 83.9065L-384.737 72.1739M-401.429 83.9065H-309.236M-440.463 49.9377H-353.103M-440.463 49.9377L-423.96 39.3924M-440.463 49.9377H-527.822M-440.463 49.9377L-457.552 60.8582M-353.103 49.9377L-341.801 41.9957L-339.947 40.6904L-338.099 39.3924M-353.103 49.9377L-368.638 60.8582M-353.103 49.9377H-265.742M-423.96 39.3924H-338.099M-423.96 39.3924L-408.015 29.2044M-423.96 39.3924H-509.82M-338.099 39.3924H-252.239M-338.099 39.3924L-323.605 29.2044M-1127.95 1091.13H-892.455M-1127.95 1091.13L-1053.8 1016.68M-1127.95 1091.13L-1209.43 1172.95M-1127.95 1091.13L-1252.05 1091.14M-892.455 1091.13L-828.896 1016.68M-892.455 1091.13L-962.297 1172.95M-892.455 1091.13H-656.963M-1053.8 1016.68H-828.896M-1053.8 1016.68L-986.029 948.632M-1053.8 1016.68H-1252.05M-828.896 1016.68L-770.81 948.632M-828.896 1016.68H-603.997M-866.609 828.72H-668.45M-866.609 828.72L-813.728 775.621M-866.609 828.72H-1064.77M-866.609 828.72L-923.855 886.201M-668.45 828.72L-623.124 775.621M-668.45 828.72L-717.518 886.201M-668.45 828.72H-470.292M-813.728 775.621H-623.124M-813.728 775.621H-1004.33M-813.728 775.621L-764.73 726.422M-623.124 775.621L-581.126 726.422M-623.124 775.621H-432.52M-676.793 638.123H-505.752M-676.793 638.123L-637.188 598.355M-676.793 638.123H-847.837M-676.793 638.123L-719.205 680.708M-505.752 638.123L-471.804 598.355M-505.752 638.123L-542.104 680.708M-505.752 638.123H-334.711M-637.188 598.355H-471.804M-637.188 598.355H-802.574M-637.188 598.355L-600.12 561.134M-471.804 598.355L-440.031 561.134M-471.804 598.355H-306.42M-532.676 493.41H-382.222M-532.676 493.41L-501.908 462.518M-532.676 493.41H-683.128M-532.676 493.41L-565.352 526.222M-382.222 493.41L-355.85 462.518M-382.222 493.41L-410.23 526.222M-382.222 493.41H-231.768M-501.908 462.518H-355.85M-501.908 462.518H-647.967M-501.908 462.518L-472.888 433.377M-355.85 462.518L-330.975 433.377M-355.85 462.518H-209.792M-419.525 379.793H-285.234M-419.525 379.793L-394.937 355.104M-419.525 379.793H-553.814M-419.525 379.793L-445.471 405.847M-285.234 379.793L-264.16 355.104M-285.234 379.793L-307.474 405.847M-285.234 379.793H-150.946M-394.937 355.104H-264.16M-394.937 355.104H-525.713M-394.937 355.104L-371.602 331.673M-264.16 355.104L-244.159 331.673M-264.16 355.104H-133.383M-328.328 288.221H-207.067M-328.328 288.221L-308.228 268.039M-328.328 288.221H-449.59M-328.328 288.221L-349.427 309.408M-207.067 288.221L-189.838 268.039M-207.067 288.221L-225.153 309.408M-207.067 288.221H-85.8064M-308.228 268.039H-189.838M-308.228 268.039H-426.619M-308.228 268.039L-289.058 248.791M-189.838 268.039L-173.407 248.791M-189.838 268.039H-71.4488M-253.262 212.846H-142.724M-253.262 212.846L-236.524 196.041M-253.262 212.846H-363.799M-253.262 212.846L-270.755 230.412M-142.724 212.846L-128.379 196.041M-142.724 212.846L-157.718 230.412M-142.724 212.846H-32.1869M-236.524 196.041H-128.379M-236.524 196.041H-344.672M-236.524 196.041L-220.496 179.947M-128.379 196.041L-114.64 179.947M-128.379 196.041H-20.2315M-190.394 149.719H-88.8364M-190.394 149.719L-176.241 135.509M-190.394 149.719H-291.95M-190.394 149.719L-205.134 164.519M-88.8364 149.719L-90.3892 151.536L-101.471 164.519M-88.8364 149.719L-76.7073 135.509M-88.8364 149.719H12.7194M-176.241 135.509H-76.7073M-176.241 135.509H-275.775M-176.241 135.509L-162.641 121.853M-76.7073 135.509L-65.0492 121.853M-76.7073 135.509H22.8284M-136.974 96.0797H-43.0494M-136.974 96.0797L-124.85 83.9065M-136.974 96.0797H-230.899M-136.974 96.0797L-149.561 108.719M-43.0494 96.0797L-32.6577 83.9065M-43.0494 96.0797L-47.0468 100.764L-49.7444 103.924L-53.8378 108.719M-43.0494 96.0797H50.8753M-124.85 83.9065H-32.6577M-124.85 83.9065H-217.043M-124.85 83.9065L-113.166 72.1739M-32.6577 83.9065L-28.8578 79.456L-26.3541 76.5228L-22.641 72.1739M-32.6577 83.9065H59.5349M-91.0206 49.9377H-3.66186M-91.0206 49.9377L-83.1107 41.9957L-80.5201 39.3924M-91.0206 49.9377H-178.381M-91.0206 49.9377L-100.517 59.4714L-101.896 60.8582M-3.66186 49.9377L3.11993 41.9957L4.23155 40.6904L5.34115 39.3924M-3.66186 49.9377L-8.28158 55.349L-12.9826 60.8582M-3.66186 49.9377H83.6988M-80.5201 39.3924H5.34115M-80.5201 39.3924L-70.3724 29.2044M-80.5201 39.3924H-166.38M5.34115 39.3924H91.2007M5.34115 39.3924L14.0377 29.2044M-185.977 1091.13H49.5145M-185.977 1091.13L-154.199 1016.68M-185.977 1091.13H-421.469M-185.977 1091.13L-220.898 1172.95M49.5145 1091.13L70.702 1016.68M49.5145 1091.13L26.2351 1172.95M49.5145 1091.13H285.008M-154.199 1016.68H70.702M-154.199 1016.68H-379.098M-154.199 1016.68L-125.155 948.632M70.702 1016.68L90.0633 948.632M70.702 1016.68H295.601M-73.9747 828.72H124.183M-73.9747 828.72L-51.312 775.621M-73.9747 828.72H-272.134M-73.9747 828.72L-98.5097 886.201M124.183 828.72L139.292 775.621M124.183 828.72L107.828 886.201M124.183 828.72H322.343M-51.312 775.621H139.292M-51.312 775.621H-241.916M-51.312 775.621L-30.3129 726.422M139.292 775.621L153.292 726.422M139.292 775.621H329.896M7.37407 638.123H178.415M7.37407 638.123L24.348 598.355M7.37407 638.123H-163.667M7.37407 638.123L-10.8019 680.708M178.415 638.123L189.732 598.355M178.415 638.123L166.299 680.708M178.415 638.123H349.459M24.348 598.355H189.732M24.348 598.355H-141.036M24.348 598.355L40.2345 561.134M189.732 598.355L200.323 561.134M189.732 598.355H355.116M69.1399 493.41H219.592M69.1399 493.41L82.3251 462.518M69.1399 493.41H-81.3142M69.1399 493.41L55.1349 526.222M219.592 493.41L228.383 462.518M219.592 493.41L210.257 526.222M219.592 493.41H370.046M82.3251 462.518H228.383M82.3251 462.518H-63.7327M82.3251 462.518L94.7624 433.377M228.383 462.518L236.675 433.377M228.383 462.518H374.442M117.632 379.793H251.923M117.632 379.793L128.169 355.104M117.632 379.793H-16.6569M117.632 379.793L106.513 405.847M251.923 379.793L258.946 355.104M251.923 379.793L244.509 405.847M251.923 379.793H386.211M128.169 355.104H258.946M128.169 355.104H-2.60568M128.169 355.104L138.171 331.673M258.946 355.104L265.614 331.673M258.946 355.104H389.723M156.717 288.221H277.977M156.717 288.221L165.33 268.039M156.717 288.221H35.456M156.717 288.221L147.675 309.408M277.977 288.221L283.721 268.039M277.977 288.221L271.949 309.408M277.977 288.221H399.24M165.33 268.039H283.721M165.33 268.039H46.9406M165.33 268.039L168.458 260.715L173.546 248.791M283.721 268.039L289.198 248.791M283.721 268.039H402.111M188.888 212.846H299.425M188.888 212.846L196.062 196.041M188.888 212.846H78.3497M188.888 212.846L183.297 225.947L181.39 230.412M299.425 212.846L301.244 206.457L304.207 196.041M299.425 212.846L294.427 230.412M299.425 212.846H409.963M196.062 196.041L196.935 193.991L202.93 179.947M196.062 196.041H304.207M196.062 196.041H87.9141M304.207 196.041L305.948 189.924L306.521 187.907L307.093 185.902L308.786 179.947M304.207 196.041H412.355M215.831 149.719H317.387M215.831 149.719L218.894 142.542L219.651 140.771L220.403 139.007L221.152 137.254L221.896 135.509M215.831 149.719H114.275M215.831 149.719L209.514 164.519M317.387 149.719L320.435 139.007L320.936 137.254L321.43 135.509M317.387 149.719L313.177 164.519M317.387 149.719H418.944M221.896 135.509H321.43M221.896 135.509H122.362M221.896 135.509L225.567 126.91L226.289 125.215L227.725 121.853M321.43 135.509L323.877 126.91L324.361 125.215L324.839 123.53L325.317 121.853M321.43 135.509H420.966M238.726 96.0797H332.651M238.726 96.0797L243.922 83.9065M238.726 96.0797H144.8M238.726 96.0797L237.395 99.1941L235.377 103.924L233.331 108.719M332.651 96.0797L332.208 97.6332L329.51 107.113L329.054 108.719M332.651 96.0797L336.115 83.9065M332.651 96.0797H426.576M243.922 83.9065H336.115M243.922 83.9065H151.729M243.922 83.9065L248.93 72.1739M336.115 83.9065L337.381 79.456L337.799 77.9858L338.216 76.5228L339.453 72.1739M336.115 83.9065H428.307M258.42 49.9377H345.779M258.42 49.9377L261.81 41.9957L262.92 39.3924M258.42 49.9377H171.059M258.42 49.9377L256.69 53.9875L256.11 55.349L255.525 56.7177L253.758 60.8582M345.779 49.9377L346.161 48.5998L346.916 45.9404L347.668 43.3046L348.779 39.3924M345.779 49.9377L344.239 55.349L343.851 56.7177L343.067 59.4714L342.673 60.8582M345.779 49.9377H433.139M262.92 39.3924H348.779M262.92 39.3924L266.733 30.4589L267.27 29.2044M262.92 39.3924H177.06M348.779 39.3924L349.149 38.0999L349.514 36.8128L349.88 35.5311L350.242 34.2549L351.322 30.4589L351.68 29.2044M348.779 39.3924H434.641M755.992 1091.13H991.486M755.992 1091.13L745.399 1016.68M755.992 1091.13H520.5M755.992 1091.13L767.633 1172.95M991.486 1091.13L970.3 1016.68M991.486 1091.13L1014.77 1172.95M991.486 1091.13H1226.98M745.399 1016.68H970.3M745.399 1016.68H520.5M745.399 1016.68L735.719 948.632M970.3 1016.68L950.937 948.632M970.3 1016.68H1195.2M718.658 828.72H916.817M718.658 828.72L711.104 775.621M718.658 828.72H520.5M718.658 828.72L726.837 886.201M916.817 828.72L901.708 775.621M916.817 828.72L933.173 886.201M916.817 828.72H1114.97M711.104 775.621H901.708M711.104 775.621H520.5M711.104 775.621L704.104 726.422M901.708 775.621L887.709 726.422M901.708 775.621H1092.31M691.541 638.123H862.585M691.541 638.123L685.884 598.355M691.541 638.123H520.5M691.541 638.123L697.601 680.708M862.585 638.123L851.268 598.355M862.585 638.123L874.701 680.708M862.585 638.123H1033.63M685.884 598.355H851.268M685.884 598.355H520.5M685.884 598.355L680.589 561.134M851.268 598.355L840.677 561.134M851.268 598.355H1016.65M670.954 493.41H821.408M670.954 493.41L666.558 462.518M670.954 493.41H520.5M670.954 493.41L675.622 526.222M821.408 493.41L812.617 462.518M821.408 493.41L830.744 526.222M821.408 493.41H971.86M666.558 462.518H812.617M666.558 462.518H520.5M666.558 462.518L662.413 433.377M812.617 462.518L804.325 433.377M812.617 462.518H958.675M654.789 379.793H789.078M654.789 379.793L651.277 355.104M654.789 379.793H520.5M654.789 379.793L658.496 405.847M789.078 379.793L782.054 355.104M789.078 379.793L796.491 405.847M789.078 379.793H923.368M651.277 355.104H782.054M651.277 355.104H520.5M651.277 355.104L647.942 331.673M782.054 355.104L775.387 331.673M782.054 355.104H912.831M641.761 288.221H763.023M641.761 288.221L638.889 268.039M641.761 288.221H520.5M641.761 288.221L644.776 309.408M763.023 288.221L757.279 268.039M763.023 288.221L769.052 309.408M763.023 288.221H884.284M638.889 268.039H757.279M638.889 268.039H520.5M638.889 268.039L636.151 248.791M757.279 268.039L751.802 248.791M757.279 268.039H875.67M631.037 212.846H741.575M631.037 212.846L628.646 196.041M631.037 212.846H520.5M631.037 212.846L633.537 230.412M741.575 212.846L737.378 198.102L736.793 196.041M741.575 212.846L746.573 230.412M741.575 212.846H852.112M628.646 196.041L628.356 193.991L626.356 179.947M628.646 196.041H736.793M628.646 196.041H520.5M736.793 196.041L735.052 189.924L734.48 187.907L733.907 185.902L732.214 179.947M736.793 196.041H844.939M622.056 149.719H723.613M622.056 149.719L620.034 135.509M622.056 149.719H520.5M622.056 149.719L622.835 155.198L623.099 157.043L623.362 158.898L623.893 162.636L624.163 164.519M723.613 149.719L720.565 139.007L719.568 135.509M723.613 149.719L727.823 164.519M723.613 149.719H825.169M620.034 135.509H719.568M620.034 135.509H520.5M620.034 135.509L618.092 121.853M719.568 135.509L717.123 126.91L716.64 125.215L716.161 123.53L715.683 121.853M719.568 135.509H819.104M614.425 96.0797H708.349M614.425 96.0797L612.693 83.9065M614.425 96.0797H520.5M614.425 96.0797L616.223 108.719M708.349 96.0797L708.792 97.6332L711.49 107.113L711.946 108.719M708.349 96.0797L704.886 83.9065M708.349 96.0797H802.274M612.693 83.9065H704.886M612.693 83.9065H520.5M612.693 83.9065L611.024 72.1739M704.886 83.9065L703.619 79.456L703.201 77.9858L702.784 76.5228L701.547 72.1739M704.886 83.9065H797.078M607.861 49.9377H695.221M607.861 49.9377L606.36 39.3924M607.861 49.9377H520.5M607.861 49.9377L609.414 60.8582M695.221 49.9377L694.839 48.5998L694.082 45.9404L693.707 44.6188L692.959 41.9957L692.59 40.6904L692.219 39.3924M695.221 49.9377L696.761 55.349L697.149 56.7177L697.934 59.4714L698.327 60.8582M695.221 49.9377H782.58M606.36 39.3924L606.177 38.0999L605.992 36.8128L605.811 35.5311L604.91 29.2044M606.36 39.3924H692.219M606.36 39.3924H520.5M692.219 39.3924H778.08M692.219 39.3924L691.486 36.8128L691.12 35.5311L690.759 34.2549L689.678 30.4589L689.32 29.2044M1697.96 1091.13H1933.46M1697.96 1091.13L1645 1016.68M1697.96 1091.13H1462.47M1697.96 1091.13L1756.17 1172.95M1933.46 1091.13L1869.9 1016.68M1933.46 1091.13L2003.3 1172.95M1933.46 1091.13H2168.95M1645 1016.68H1869.9M1645 1016.68H1420.1M1645 1016.68L1596.59 948.632M1869.9 1016.68L1811.81 948.632M1869.9 1016.68H2094.8M1511.29 828.72H1709.45M1511.29 828.72L1473.52 775.621M1511.29 828.72H1313.13M1511.29 828.72L1552.18 886.201M1709.45 828.72L1664.12 775.621M1709.45 828.72L1758.52 886.201M1709.45 828.72H1907.61M1473.52 775.621H1664.12M1473.52 775.621H1282.92M1473.52 775.621L1438.52 726.422M1664.12 775.621L1622.13 726.422M1664.12 775.621H1854.73M1375.71 638.123H1546.75M1375.71 638.123L1347.42 598.355M1375.71 638.123H1204.67M1375.71 638.123L1406 680.708M1546.75 638.123L1512.81 598.355M1546.75 638.123L1583.1 680.708M1546.75 638.123H1717.79M1347.42 598.355H1512.81M1347.42 598.355H1182.04M1347.42 598.355L1320.94 561.134M1512.81 598.355L1481.03 561.134M1512.81 598.355H1678.19M1272.77 493.41H1423.22M1272.77 493.41L1250.79 462.518M1272.77 493.41H1122.31M1272.77 493.41L1296.11 526.222M1423.22 493.41L1396.85 462.518M1423.22 493.41L1451.23 526.222M1423.22 493.41H1573.68M1250.79 462.518H1396.85M1250.79 462.518H1104.73M1250.79 462.518L1230.06 433.377M1396.85 462.518L1371.98 433.377M1396.85 462.518H1542.91M1191.95 379.793H1326.23M1191.95 379.793L1174.38 355.104M1191.95 379.793H1057.66M1191.95 379.793L1210.48 405.847M1326.23 379.793L1305.16 355.104M1326.23 379.793L1348.47 405.847M1326.23 379.793H1460.53M1174.38 355.104H1305.16M1174.38 355.104H1043.61M1174.38 355.104L1157.72 331.673M1305.16 355.104L1285.16 331.673M1305.16 355.104H1435.94M1126.81 288.221H1248.07M1126.81 288.221L1112.45 268.039M1126.81 288.221H1005.54M1126.81 288.221L1141.88 309.408M1248.07 288.221L1230.84 268.039M1248.07 288.221L1266.15 309.408M1248.07 288.221H1369.33M1112.45 268.039H1230.84M1112.45 268.039H994.06M1112.45 268.039L1098.76 248.791M1230.84 268.039L1214.41 248.791M1230.84 268.039H1349.23M1073.19 212.846L1074.72 214.999L1076.26 217.164L1085.68 230.412M1073.19 212.846H1183.72M1073.19 212.846L1061.23 196.041M1073.19 212.846H962.65M1183.72 212.846L1169.38 196.041M1183.72 212.846L1198.72 230.412M1183.72 212.846H1294.26M1061.23 196.041H1169.38M1061.23 196.041H953.086M1061.23 196.041L1049.78 179.947M1169.38 196.041L1155.64 179.947M1169.38 196.041H1277.52M1028.28 149.719H1129.84M1028.28 149.719L1018.17 135.509M1028.28 149.719H926.725M1028.28 149.719L1038.81 164.519M1129.84 149.719L1122.2 140.771L1117.71 135.509M1129.84 149.719L1142.47 164.519M1129.84 149.719H1231.39M1018.17 135.509H1117.71M1018.17 135.509H918.638M1018.17 135.509L1009.65 123.53L1008.46 121.853M1117.71 135.509L1106.05 121.853M1117.71 135.509H1217.24M990.125 96.0797H1084.05M990.125 96.0797L987.929 92.9924L981.465 83.9065M990.125 96.0797H896.2M990.125 96.0797L992.341 99.1941L996.836 105.514L999.115 108.719M1084.05 96.0797L1073.66 83.9065M1084.05 96.0797L1088.05 100.764L1090.74 103.924L1094.84 108.719M1084.05 96.0797H1177.97M981.465 83.9065H1073.66M981.465 83.9065H889.271M981.465 83.9065L975.176 75.0653L973.118 72.1739M1073.66 83.9065L1069.86 79.456L1067.35 76.5228L1063.64 72.1739M1073.66 83.9065H1165.85M957.301 49.9377H1044.66M957.301 49.9377L952.582 43.3046L949.799 39.3924M957.301 49.9377H869.941M957.301 49.9377L965.069 60.8582M1044.66 49.9377L1037.88 41.9957L1036.77 40.6904L1035.66 39.3924M1044.66 49.9377L1049.28 55.349L1053.98 60.8582M1044.66 49.9377H1132.02M949.799 39.3924H1035.66M949.799 39.3924L946.145 34.2549L944.342 31.7187L943.444 30.4589L942.552 29.2044M949.799 39.3924H863.94M1035.66 39.3924H1121.52M1035.66 39.3924L1026.96 29.2044M2235.94 775.621H2045.33M2235.94 775.621L2172.94 726.422M2235.94 775.621H2293.05M2235.94 775.621L2293.05 820.222M2059.88 638.123H2230.92M2059.88 638.123L2008.96 598.355M2059.88 638.123H1888.84M2059.88 638.123L2114.41 680.708M2230.92 638.123L2174.34 598.355M2230.92 638.123L2291.51 680.708M2230.92 638.123H2293.05M2008.96 598.355H2174.34M2008.96 598.355H1843.57M2008.96 598.355L1961.3 561.134M2174.34 598.355L2121.39 561.134M2174.34 598.355H2293.05M1874.58 493.41H2025.04M1874.58 493.41L1835.03 462.518M1874.58 493.41H1724.13M1874.58 493.41L1916.6 526.222M2025.04 493.41L1981.08 462.518M2025.04 493.41L2071.72 526.222M2025.04 493.41H2175.49M1835.03 462.518H1981.08M1835.03 462.518H1688.97M1835.03 462.518L1797.71 433.377M1981.08 462.518L1939.63 433.377M1981.08 462.518H2127.14M1729.1 379.793H1863.39M1729.1 379.793L1697.49 355.104M1729.1 379.793H1594.81M1729.1 379.793L1762.46 405.847M1863.39 379.793L1828.27 355.104M1863.39 379.793L1900.46 405.847M1863.39 379.793H1997.68M1697.49 355.104H1828.27M1697.49 355.104H1566.71M1697.49 355.104L1667.49 331.673M1828.27 355.104L1794.93 331.673M1828.27 355.104H1959.04M1611.85 288.221H1733.11M1611.85 288.221L1586.01 268.039M1611.85 288.221H1490.59M1611.85 288.221L1638.98 309.408M1733.11 288.221L1704.4 268.039M1733.11 288.221L1763.25 309.408M1733.11 288.221H1854.37M1586.01 268.039H1704.4M1586.01 268.039H1467.62M1586.01 268.039L1561.36 248.791M1704.4 268.039L1677.01 248.791M1704.4 268.039H1822.79M1515.34 212.846H1625.87M1515.34 212.846L1493.82 196.041M1515.34 212.846H1404.8M1515.34 212.846L1537.83 230.412M1625.87 212.846L1601.96 196.041M1625.87 212.846L1650.87 230.412M1625.87 212.846H1736.41M1493.82 196.041H1601.96M1493.82 196.041H1385.67M1493.82 196.041L1473.21 179.947M1601.96 196.041L1579.07 179.947M1601.96 196.041H1710.11M1434.51 149.719H1536.06M1434.51 149.719L1416.31 135.509M1434.51 149.719H1332.95M1434.51 149.719L1453.46 164.519M1536.06 149.719L1515.85 135.509M1536.06 149.719L1557.12 164.519M1536.06 149.719H1637.62M1416.31 135.509H1515.85M1416.31 135.509H1316.78M1416.31 135.509L1398.82 121.853M1515.85 135.509L1496.42 121.853M1515.85 135.509H1615.38M1365.82 96.0797H1459.75M1365.82 96.0797L1350.24 83.9065M1365.82 96.0797H1271.9M1365.82 96.0797L1369.81 99.1941L1371.82 100.764L1382.01 108.719M1459.75 96.0797L1442.43 83.9065M1459.75 96.0797L1477.73 108.719M1459.75 96.0797H1553.67M1350.24 83.9065H1442.43M1350.24 83.9065H1258.04M1350.24 83.9065L1335.21 72.1739M1442.43 83.9065L1425.74 72.1739M1442.43 83.9065H1534.62M1306.74 49.9377H1394.1M1306.74 49.9377L1293.24 39.3924M1306.74 49.9377H1219.38M1306.74 49.9377L1320.72 60.8582M1394.1 49.9377L1382.8 41.9957L1380.95 40.6904L1379.1 39.3924M1394.1 49.9377L1409.64 60.8582M1394.1 49.9377H1481.46M1293.24 39.3924H1379.1M1293.24 39.3924L1281.8 30.4589L1280.19 29.2044M1293.24 39.3924H1207.38M1379.1 39.3924H1464.96M1379.1 39.3924L1364.6 29.2044M2266.26 379.793L2220.6 355.104M2266.26 379.793H2131.97M2266.26 379.793L2293.05 394.276M2266.26 379.793H2293.05M2220.6 355.104H2089.82M2220.6 355.104L2177.26 331.673M2220.6 355.104H2293.05M2096.89 288.221H2218.16M2096.89 288.221L2059.57 268.039M2096.89 288.221H1975.63M2096.89 288.221L2136.08 309.408M2218.16 288.221L2177.96 268.039M2218.16 288.221L2260.36 309.408M2218.16 288.221H2293.05M2059.57 268.039H2177.96M2059.57 268.039H1941.18M2059.57 268.039L2023.97 248.791M2177.96 268.039L2139.62 248.791M2177.96 268.039H2293.05M1957.49 212.846H2068.02M1957.49 212.846L1926.4 196.041M1957.49 212.846H1846.95M1957.49 212.846L1989.98 230.412M2068.02 212.846L2034.55 196.041M2068.02 212.846L2103.01 230.412M2068.02 212.846H2178.56M1926.4 196.041H2034.55M1926.4 196.041H1818.26M1926.4 196.041L1896.64 179.947M2034.55 196.041L2002.49 179.947M2034.55 196.041H2142.7M1840.73 149.719H1942.29M1840.73 149.719L1814.45 135.509M1840.73 149.719H1739.17M1840.73 149.719L1868.1 164.519M1942.29 149.719L1913.98 135.509M1942.29 149.719L1971.77 164.519M1942.29 149.719H2043.84M1814.45 135.509H1913.98M1814.45 135.509H1714.91M1814.45 135.509L1789.19 121.853M1913.98 135.509L1886.78 121.853M1913.98 135.509H2013.52M1741.52 96.0797H1835.45M1741.52 96.0797L1719.01 83.9065M1741.52 96.0797H1647.6M1741.52 96.0797L1764.9 108.719M1835.45 96.0797L1811.2 83.9065M1835.45 96.0797L1860.62 108.719M1835.45 96.0797H1929.37M1719.01 83.9065H1811.2M1719.01 83.9065H1626.81M1719.01 83.9065L1697.31 72.1739M1811.2 83.9065L1787.83 72.1739M1811.2 83.9065H1903.39M1656.18 49.9377H1743.54M1656.18 49.9377L1636.68 39.3924M1656.18 49.9377H1568.82M1656.18 49.9377L1676.38 60.8582M1743.54 49.9377L1722.54 39.3924M1743.54 49.9377L1765.29 60.8582M1743.54 49.9377H1830.9M1636.68 39.3924H1722.54M1636.68 39.3924L1617.84 29.2044M1636.68 39.3924H1550.82M1722.54 39.3924H1808.4M1722.54 39.3924L1702.25 29.2044M2246.96 149.719L2212.58 135.509M2246.96 149.719H2145.4M2246.96 149.719L2282.75 164.519M2246.96 149.719H2293.05M2212.58 135.509H2113.05M2212.58 135.509L2179.56 121.853M2212.58 135.509H2293.05M2117.22 96.0797H2211.15M2117.22 96.0797L2087.78 83.9065M2117.22 96.0797H2023.3M2117.22 96.0797L2147.79 108.719M2211.15 96.0797L2179.97 83.9065M2211.15 96.0797L2243.52 108.719M2211.15 96.0797H2293.05M2087.78 83.9065H2179.97M2087.78 83.9065H1995.59M2087.78 83.9065L2059.4 72.1739M2179.97 83.9065L2149.93 72.1739M2179.97 83.9065H2272.16M2005.62 49.9377H2092.98M2005.62 49.9377L1980.12 39.3924M2005.62 49.9377H1918.26M2005.62 49.9377L2032.03 60.8582M2092.98 49.9377L2065.98 39.3924M2092.98 49.9377L2120.95 60.8582M2092.98 49.9377H2180.34M1980.12 39.3924H2065.98M1980.12 39.3924L1955.48 29.2044M1980.12 39.3924H1894.26M2065.98 39.3924H2151.84M2065.98 39.3924L2039.89 29.2044M2120.95 60.8582L2149.93 72.1739M2120.95 60.8582H2209.86M2120.95 60.8582H2032.03M2180.34 49.9377L2151.84 39.3924M2180.34 49.9377L2209.86 60.8582M2180.34 49.9377H2267.7M2151.84 39.3924H2237.7M2151.84 39.3924L2124.3 29.2044M2039.89 29.2044H1955.48M2039.89 29.2044H2124.3M2039.89 29.2044L2014.66 19.3535M2209.86 60.8582L2240.45 72.1739M2209.86 60.8582H2293.05M2267.7 49.9377L2237.7 39.3924M2267.7 49.9377L2293.05 58.8433M2267.7 49.9377H2293.05M2237.7 39.3924L2208.71 29.2044M2237.7 39.3924H2293.05M2124.3 29.2044H2208.71M2124.3 29.2044L2097.67 19.3535M2208.71 29.2044L2180.68 19.3535M2208.71 29.2044H2293.05M2149.93 72.1739H2240.45M2149.93 72.1739H2059.4M2272.16 83.9065L2240.45 72.1739M2272.16 83.9065L2293.05 91.6294M2272.16 83.9065H2293.05M2240.45 72.1739H2293.05M2059.4 72.1739H1968.88M2059.4 72.1739L2032.03 60.8582M2032.03 60.8582H1943.12M2243.52 108.719L2277.15 121.853M2243.52 108.719H2147.79M2243.52 108.719H2293.05M2293.33 96.0797H2293.05M2277.15 121.853H2179.56M2277.15 121.853L2293.05 128.06M2277.15 121.853H2293.05M2179.56 121.853H2081.97M2179.56 121.853L2147.79 108.719M2147.79 108.719H2052.07M1765.29 60.8582L1787.83 72.1739M1765.29 60.8582H1854.21M1765.29 60.8582H1676.38M1830.9 49.9377L1808.4 39.3924M1830.9 49.9377L1854.21 60.8582M1830.9 49.9377H1918.26M1808.4 39.3924H1894.26M1808.4 39.3924L1786.66 29.2044M1702.25 29.2044H1786.66M1702.25 29.2044L1682.63 19.3535M1702.25 29.2044H1617.84M1854.21 60.8582L1878.35 72.1739M1854.21 60.8582H1943.12M1918.26 49.9377L1894.26 39.3924M1918.26 49.9377L1943.12 60.8582M1894.26 39.3924L1871.07 29.2044M1786.66 29.2044H1871.07M1786.66 29.2044L1765.63 19.3535M1943.12 60.8582L1968.88 72.1739M1955.48 29.2044H1871.07M1955.48 29.2044L1931.65 19.3535M1871.07 29.2044L1848.64 19.3535M1787.83 72.1739H1878.35M1787.83 72.1739H1697.31M1903.39 83.9065L1878.35 72.1739M1903.39 83.9065L1929.37 96.0797M1903.39 83.9065H1995.59M1878.35 72.1739H1968.88M1697.31 72.1739H1606.78M1697.31 72.1739L1676.38 60.8582M1968.88 72.1739L1995.59 83.9065M1676.38 60.8582H1587.47M1929.37 96.0797L1956.35 108.719M1929.37 96.0797H2023.3M1995.59 83.9065L2023.3 96.0797M2023.3 96.0797L2052.07 108.719M1860.62 108.719L1886.78 121.853M1860.62 108.719H1956.35M1860.62 108.719H1764.9M1956.35 108.719L1984.37 121.853M1956.35 108.719H2052.07M2052.07 108.719L2081.97 121.853M1886.78 121.853H1984.37M1886.78 121.853H1789.19M2013.52 135.509L1984.37 121.853M2013.52 135.509L2043.84 149.719M2013.52 135.509H2113.05M1984.37 121.853H2081.97M1789.19 121.853H1691.6M1789.19 121.853L1764.9 108.719M2081.97 121.853L2113.05 135.509M1764.9 108.719H1669.18M2043.84 149.719L2075.43 164.519M2043.84 149.719H2145.4M2113.05 135.509L2145.4 149.719M2145.4 149.719L2179.09 164.519M1971.77 164.519L2002.49 179.947M1971.77 164.519H2075.43M1971.77 164.519H1868.1M2075.43 164.519L2108.35 179.947M2075.43 164.519H2179.09M2179.09 164.519L2214.21 179.947M2179.09 164.519H2282.75M2282.75 164.519H2293.05M2282.75 164.519L2293.05 168.775M2002.49 179.947H2108.35M2002.49 179.947H1896.64M2142.7 196.041L2108.35 179.947M2142.7 196.041L2178.56 212.846M2142.7 196.041H2250.84M2108.35 179.947H2214.21M1896.64 179.947H1790.78M1896.64 179.947L1868.1 164.519M2214.21 179.947L2250.84 196.041M2214.21 179.947H2293.05M1868.1 164.519H1764.44M2178.56 212.846L2216.05 230.412M2178.56 212.846H2289.1M2250.84 196.041L2289.1 212.846M2250.84 196.041H2293.05M2293.6 179.947H2293.05M2289.1 212.846L2293.05 214.58M2289.1 212.846H2293.05M2103.01 230.412L2139.62 248.791M2103.01 230.412H2216.05M2103.01 230.412H1989.98M2216.05 230.412L2255.27 248.791M2216.05 230.412H2293.05M2294 214.999L2293.05 214.58M2139.62 248.791H2255.27M2139.62 248.791H2023.97M2255.27 248.791H2293.05M2255.27 248.791L2293.05 266.492M2023.97 248.791H1908.31M2023.97 248.791L1989.98 230.412M1989.98 230.412H1876.94M2260.36 309.408H2136.08M2260.36 309.408L2293.05 325.82M2260.36 309.408H2293.05M2293.94 288.221H2293.05M2136.08 309.408H2011.8M2136.08 309.408L2177.26 331.673M2293.41 326.001L2293.05 325.82M1409.64 60.8582L1425.74 72.1739M1409.64 60.8582H1498.55M1409.64 60.8582H1320.72M1481.46 49.9377L1464.96 39.3924M1481.46 49.9377L1498.55 60.8582M1481.46 49.9377H1568.82M1464.96 39.3924H1550.82M1464.96 39.3924L1449.01 29.2044M1364.6 29.2044H1449.01M1364.6 29.2044L1359.29 25.4718L1350.59 19.3535M1364.6 29.2044H1280.19M1498.55 60.8582L1516.26 72.1739M1498.55 60.8582H1587.47M1568.82 49.9377L1550.82 39.3924M1568.82 49.9377L1587.47 60.8582M1550.82 39.3924L1533.42 29.2044M1449.01 29.2044H1533.42M1449.01 29.2044L1433.6 19.3535M1587.47 60.8582L1606.78 72.1739M1617.84 29.2044L1599.62 19.3535M1617.84 29.2044H1533.42M1533.42 29.2044L1531.29 27.9535L1527.05 25.4718L1516.61 19.3535M1425.74 72.1739H1516.26M1425.74 72.1739H1335.21M1534.62 83.9065L1516.26 72.1739M1534.62 83.9065L1553.67 96.0797M1534.62 83.9065H1626.81M1516.26 72.1739H1606.78M1335.21 72.1739H1244.69M1335.21 72.1739L1320.72 60.8582M1606.78 72.1739L1626.81 83.9065M1320.72 60.8582H1231.81M1553.67 96.0797L1573.45 108.719M1553.67 96.0797H1647.6M1626.81 83.9065L1629.37 85.4021L1647.6 96.0797M1647.6 96.0797L1669.18 108.719M1477.73 108.719L1480.03 110.334L1496.42 121.853M1477.73 108.719H1573.45M1477.73 108.719H1382.01M1573.45 108.719L1594.01 121.853M1573.45 108.719H1669.18M1669.18 108.719L1691.6 121.853M1496.42 121.853H1594.01M1496.42 121.853H1398.82M1615.38 135.509L1594.01 121.853M1615.38 135.509L1637.62 149.719M1615.38 135.509H1714.91M1594.01 121.853H1691.6M1398.82 121.853H1301.23M1398.82 121.853L1382.01 108.719M1691.6 121.853L1714.91 135.509M1382.01 108.719H1286.29M1637.62 149.719L1660.78 164.519M1637.62 149.719H1739.17M1714.91 135.509L1739.17 149.719M1739.17 149.719L1764.44 164.519M1557.12 164.519L1579.07 179.947M1557.12 164.519H1660.78M1557.12 164.519H1453.46M1660.78 164.519L1684.92 179.947M1660.78 164.519H1764.44M1764.44 164.519L1790.78 179.947M1579.07 179.947H1684.92M1579.07 179.947H1473.21M1710.11 196.041L1684.92 179.947M1710.11 196.041L1736.41 212.846M1710.11 196.041H1818.26M1684.92 179.947H1790.78M1473.21 179.947H1367.35M1473.21 179.947L1453.46 164.519M1790.78 179.947L1818.26 196.041M1453.46 164.519H1349.79M1736.41 212.846L1763.9 230.412M1736.41 212.846H1846.95M1818.26 196.041L1846.95 212.846M1846.95 212.846L1876.94 230.412M1650.87 230.412L1677.01 248.791M1650.87 230.412H1763.9M1650.87 230.412H1537.83M1763.9 230.412L1792.66 248.791M1763.9 230.412H1876.94M1876.94 230.412L1908.31 248.791M1677.01 248.791H1792.66M1677.01 248.791H1561.36M1822.79 268.039L1792.66 248.791M1822.79 268.039L1854.37 288.221M1822.79 268.039H1941.18M1792.66 248.791H1908.31M1561.36 248.791H1445.71M1561.36 248.791L1537.83 230.412M1908.31 248.791L1941.18 268.039M1537.83 230.412H1424.79M1854.37 288.221L1887.53 309.408M1854.37 288.221H1975.63M1941.18 268.039L1975.63 288.221M1975.63 288.221L2011.8 309.408M1763.25 309.408L1794.93 331.673M1763.25 309.408H1887.53M1763.25 309.408H1638.98M1887.53 309.408L1922.37 331.673M1887.53 309.408H2011.8M2011.8 309.408L2049.82 331.673M1794.93 331.673H1922.37M1794.93 331.673H1667.49M1959.04 355.104L1922.37 331.673M1959.04 355.104L1997.68 379.793M1959.04 355.104H2089.82M1922.37 331.673H2049.82M1667.49 331.673H1540.04M1667.49 331.673L1638.98 309.408M2049.82 331.673L2089.82 355.104M2049.82 331.673H2177.26M1638.98 309.408H1514.7M1997.68 379.793L2038.45 405.847M1997.68 379.793H2131.97M2089.82 355.104L2131.97 379.793M2177.26 331.673H2293.05M2131.97 379.793L2176.45 405.847M1900.46 405.847L1939.63 433.377M1900.46 405.847H2038.45M1900.46 405.847H1762.46M2038.45 405.847L2081.54 433.377M2038.45 405.847H2176.45M2176.45 405.847L2223.45 433.377M2176.45 405.847H2293.05M1939.63 433.377H2081.54M1939.63 433.377H1797.71M2127.14 462.518L2081.54 433.377M2127.14 462.518L2175.49 493.41M2127.14 462.518H2273.2M2081.54 433.377H2223.45M1797.71 433.377H1655.8M1797.71 433.377L1762.46 405.847M2223.45 433.377L2273.2 462.518M2223.45 433.377H2293.05M1762.46 405.847H1624.47M2175.49 493.41L2226.84 526.222M2175.49 493.41H2293.05M2273.2 462.518H2293.05M2273.2 462.518L2293.05 474.141M2071.72 526.222L2121.39 561.134M2071.72 526.222H2226.84M2071.72 526.222H1916.6M2226.84 526.222L2281.47 561.134M2226.84 526.222H2293.05M2121.39 561.134H2281.47M2121.39 561.134H1961.3M2281.47 561.134L2293.05 568.527M2281.47 561.134H2293.05M1961.3 561.134H1801.21M1961.3 561.134L1916.6 526.222M1916.6 526.222H1761.47M2291.51 680.708H2114.41M2291.51 680.708H2293.05M2291.51 680.708L2293.05 681.789M2114.41 680.708H1937.31M2114.41 680.708L2172.94 726.422M1053.98 60.8582L1057.56 65.053L1058.77 66.4653L1063.64 72.1739M1053.98 60.8582H1142.9M1053.98 60.8582H965.069M1132.02 49.9377L1124.11 41.9957L1121.52 39.3924M1132.02 49.9377L1141.52 59.4714L1142.9 60.8582M1132.02 49.9377H1219.38M1121.52 39.3924H1207.38M1121.52 39.3924L1111.37 29.2044M1026.96 29.2044H1111.37M1026.96 29.2044L1023.78 25.4718L1018.55 19.3535M1026.96 29.2044H942.552M1142.9 60.8582L1145.68 63.6481L1154.17 72.1739M1142.9 60.8582H1231.81M1219.38 49.9377L1207.38 39.3924M1219.38 49.9377L1231.81 60.8582M1207.38 39.3924L1198.64 31.7187L1195.78 29.2044M1111.37 29.2044H1195.78M1111.37 29.2044L1101.56 19.3535M1231.81 60.8582L1244.69 72.1739M1280.19 29.2044L1278.59 27.9535L1267.58 19.3535M1280.19 29.2044H1195.78M1195.78 29.2044L1191.53 25.4718L1184.57 19.3535M1063.64 72.1739H1154.17M1063.64 72.1739H973.118M1165.85 83.9065L1154.17 72.1739M1165.85 83.9065L1177.97 96.0797M1165.85 83.9065H1258.04M1154.17 72.1739H1244.69M973.118 72.1739H882.594M973.118 72.1739L965.069 60.8582M1244.69 72.1739L1258.04 83.9065M965.069 60.8582H876.156M1177.97 96.0797L1185.78 103.924L1187.37 105.514L1190.56 108.719M1177.97 96.0797H1271.9M1258.04 83.9065L1271.9 96.0797M1271.9 96.0797L1286.29 108.719M1094.84 108.719L1106.05 121.853M1094.84 108.719H1190.56M1094.84 108.719H999.115M1190.56 108.719L1203.64 121.853M1190.56 108.719H1286.29M1286.29 108.719L1301.23 121.853M1106.05 121.853H1203.64M1106.05 121.853H1008.46M1217.24 135.509L1208.68 126.91L1206.99 125.215L1203.64 121.853M1217.24 135.509L1231.39 149.719M1217.24 135.509H1316.78M1203.64 121.853H1301.23M1008.46 121.853H910.866M1008.46 121.853L999.115 108.719M1301.23 121.853L1316.78 135.509M999.115 108.719H903.392M1231.39 149.719L1246.13 164.519M1231.39 149.719H1332.95M1316.78 135.509L1332.95 149.719M1332.95 149.719L1349.79 164.519M1142.47 164.519L1148.99 172.151L1150.64 174.086L1155.64 179.947M1142.47 164.519H1246.13M1142.47 164.519H1038.81M1246.13 164.519L1261.5 179.947M1246.13 164.519H1349.79M1349.79 164.519L1367.35 179.947M1155.64 179.947H1261.5M1155.64 179.947H1049.78M1277.52 196.041L1261.5 179.947M1277.52 196.041L1294.26 212.846M1277.52 196.041H1385.67M1261.5 179.947H1367.35M1049.78 179.947H943.926M1049.78 179.947L1047 176.029L1038.81 164.519M1367.35 179.947L1385.67 196.041M1038.81 164.519H935.148M1294.26 212.846L1311.76 230.412M1294.26 212.846H1404.8M1385.67 196.041L1404.8 212.846M1404.8 212.846L1424.79 230.412M1198.72 230.412L1214.41 248.791M1198.72 230.412H1311.76M1198.72 230.412H1085.68M1311.76 230.412L1330.06 248.791M1311.76 230.412H1424.79M1424.79 230.412L1445.71 248.791M1214.41 248.791H1330.06M1214.41 248.791H1098.76M1349.23 268.039L1330.06 248.791M1349.23 268.039L1369.33 288.221M1349.23 268.039H1467.62M1330.06 248.791H1445.71M1098.76 248.791H983.105M1098.76 248.791L1085.68 230.412M1445.71 248.791L1467.62 268.039M1085.68 230.412H972.647M1369.33 288.221L1390.43 309.408M1369.33 288.221H1490.59M1467.62 268.039L1490.59 288.221M1490.59 288.221L1514.7 309.408M1266.15 309.408L1285.16 331.673M1266.15 309.408H1390.43M1266.15 309.408H1141.88M1390.43 309.408L1412.6 331.673M1390.43 309.408H1514.7M1514.7 309.408L1540.04 331.673M1285.16 331.673H1412.6M1285.16 331.673H1157.72M1435.94 355.104L1412.6 331.673M1435.94 355.104L1460.53 379.793M1435.94 355.104H1566.71M1412.6 331.673H1540.04M1157.72 331.673H1030.27M1157.72 331.673L1141.88 309.408M1540.04 331.673L1566.71 355.104M1141.88 309.408H1017.6M1460.53 379.793L1486.47 405.847M1460.53 379.793H1594.81M1566.71 355.104L1594.81 379.793M1594.81 379.793L1624.47 405.847M1348.47 405.847L1371.98 433.377M1348.47 405.847H1486.47M1348.47 405.847H1210.48M1486.47 405.847L1513.89 433.377M1486.47 405.847H1624.47M1624.47 405.847L1655.8 433.377M1371.98 433.377H1513.89M1371.98 433.377H1230.06M1542.91 462.518L1513.89 433.377M1542.91 462.518L1573.68 493.41M1542.91 462.518H1688.97M1513.89 433.377H1655.8M1230.06 433.377H1088.15M1230.06 433.377L1210.48 405.847M1655.8 433.377L1688.97 462.518M1210.48 405.847H1072.48M1573.68 493.41L1606.35 526.222M1573.68 493.41H1724.13M1688.97 462.518L1724.13 493.41M1724.13 493.41L1761.47 526.222M1451.23 526.222L1481.03 561.134M1451.23 526.222H1606.35M1451.23 526.222H1296.11M1606.35 526.222L1641.12 561.134M1606.35 526.222H1761.47M1761.47 526.222L1801.21 561.134M1481.03 561.134H1641.12M1481.03 561.134H1320.94M1678.19 598.355L1641.12 561.134M1678.19 598.355L1717.79 638.123M1678.19 598.355H1843.57M1641.12 561.134H1801.21M1320.94 561.134H1160.85M1320.94 561.134L1296.11 526.222M1801.21 561.134L1843.57 598.355M1296.11 526.222H1140.99M1717.79 638.123L1760.21 680.708M1717.79 638.123H1888.84M1843.57 598.355L1888.84 638.123M1888.84 638.123L1937.31 680.708M1583.1 680.708L1622.13 726.422M1583.1 680.708H1760.21M1583.1 680.708H1406M1760.21 680.708L1805.73 726.422M1760.21 680.708H1937.31M1937.31 680.708L1989.34 726.422M1622.13 726.422H1805.73M1622.13 726.422H1438.52M1854.73 775.621L1805.73 726.422M1854.73 775.621L1907.61 828.72M1854.73 775.621H2045.33M1805.73 726.422H1989.34M1438.52 726.422H1254.92M1438.52 726.422L1406 680.708M1989.34 726.422L2045.33 775.621M1989.34 726.422H2172.94M1406 680.708H1228.9M1907.61 828.72L1964.86 886.201M1907.61 828.72H2105.77M2045.33 775.621L2105.77 828.72M2172.94 726.422H2293.05M2105.77 828.72L2171.19 886.201M2105.77 828.72H2293.05M1758.52 886.201L1811.81 948.632M1758.52 886.201H1964.86M1758.52 886.201H1552.18M1964.86 886.201L2027.03 948.632M1964.86 886.201H2171.19M2171.19 886.201L2242.25 948.632M2171.19 886.201H2293.05M1811.81 948.632H2027.03M1811.81 948.632H1596.59M2094.8 1016.68L2027.03 948.632M2094.8 1016.68L2168.95 1091.13M2094.8 1016.68H2293.05M2027.03 948.632H2242.25M1596.59 948.632H1381.37M1596.59 948.632L1552.18 886.201M2242.25 948.632H2293.05M2242.25 948.632L2293.05 993.264M1552.18 886.201H1345.85M2168.95 1091.13L2250.43 1172.95M2168.95 1091.13H2293.05M2003.3 1172.95L2080.4 1263.28M2003.3 1172.95H2250.43M2003.3 1172.95H1756.17M2250.43 1172.95L2293.05 1215.74M2250.43 1172.95H2293.05M2080.4 1263.28H1820.42M2080.4 1263.28L2293.05 1263.28M1820.42 1263.28H1560.44M1820.42 1263.28L1756.17 1172.95M1756.17 1172.95H1509.03M698.327 60.8582L698.724 62.2504L699.121 63.6481L699.522 65.053L699.922 66.4653L701.139 70.7363L701.547 72.1739M698.327 60.8582H787.242M698.327 60.8582H609.414M782.58 49.9377L779.19 41.9957L778.08 39.3924M782.58 49.9377L785.475 56.7177L787.242 60.8582M782.58 49.9377H869.941M778.08 39.3924H863.94M778.08 39.3924L774.805 31.7187L773.73 29.2044M689.32 29.2044L688.966 27.9535L687.559 23.0081L686.517 19.3535M689.32 29.2044H773.73M689.32 29.2044H604.91M787.242 60.8582L787.835 62.2504L788.433 63.6481L789.032 65.053L789.635 66.4653L792.071 72.1739M787.242 60.8582H876.156M869.941 49.9377L865.421 41.9957L863.94 39.3924M869.941 49.9377L876.156 60.8582M863.94 39.3924L861.015 34.2549L858.855 30.4589L858.142 29.2044M773.73 29.2044L773.199 27.9535L772.139 25.4718L771.086 23.0081L770.566 21.7845L769.526 19.3535M773.73 29.2044H858.142M876.156 60.8582L880.964 69.306L882.594 72.1739M942.552 29.2044L937.275 21.7845L935.545 19.3535M942.552 29.2044H858.142M858.142 29.2044L853.227 20.5663L852.535 19.3535M701.547 72.1739H792.071M701.547 72.1739H611.024M797.078 83.9065L792.071 72.1739M797.078 83.9065L802.274 96.0797M797.078 83.9065H889.271M792.071 72.1739H882.594M611.024 72.1739H520.5M611.024 72.1739L609.414 60.8582M882.594 72.1739L889.271 83.9065M609.414 60.8582H520.5M802.274 96.0797L803.605 99.1941L805.623 103.924L807.669 108.719M802.274 96.0797H896.2M889.271 83.9065L890.124 85.4021L896.2 96.0797M896.2 96.0797L897.083 97.6332L897.973 99.1941L898.865 100.764L903.392 108.719M711.946 108.719L715.683 121.853M711.946 108.719H807.669M711.946 108.719H616.223M807.669 108.719L813.275 121.853M807.669 108.719H903.392M903.392 108.719L908.97 118.521L909.917 120.183L910.866 121.853M715.683 121.853H813.275M715.683 121.853H618.092M819.104 135.509L819.848 137.254L820.598 139.007L821.349 140.771L825.169 149.719M819.104 135.509L816.161 128.613L815.433 126.91L814.711 125.215L813.275 121.853M819.104 135.509H918.638M813.275 121.853H910.866M618.092 121.853H520.5M618.092 121.853L616.223 108.719M910.866 121.853L918.638 135.509M616.223 108.719H520.5M825.169 149.719L830.683 162.636L831.486 164.519M825.169 149.719H926.725M918.638 135.509L920.63 139.007L926.725 149.719M926.725 149.719L929.844 155.198L935.148 164.519M727.823 164.519L729.997 172.151L730.545 174.086L732.214 179.947M727.823 164.519H831.486M727.823 164.519H624.163M831.486 164.519L838.07 179.947M831.486 164.519H935.148M935.148 164.519L943.926 179.947M732.214 179.947H838.07M732.214 179.947H626.356M844.939 196.041L838.07 179.947M844.939 196.041L852.112 212.846M844.939 196.041H953.086M838.07 179.947H943.926M626.356 179.947H520.5M626.356 179.947L625.799 176.029L624.702 168.315L624.163 164.519M943.926 179.947L953.086 196.041M624.163 164.519H520.5M852.112 212.846L857.703 225.947L859.61 230.412M852.112 212.846H962.65M953.086 196.041L962.65 212.846M962.65 212.846L967.591 221.531L972.647 230.412M746.573 230.412L751.802 248.791M746.573 230.412H859.61M746.573 230.412H633.537M859.61 230.412L867.454 248.791M859.61 230.412H972.647M972.647 230.412L983.105 248.791M751.802 248.791H867.454M751.802 248.791H636.151M875.67 268.039L873.578 263.143L867.454 248.791M875.67 268.039L884.284 288.221M875.67 268.039H994.06M867.454 248.791H983.105M636.151 248.791H520.5M636.151 248.791L633.537 230.412M983.105 248.791L994.06 268.039M633.537 230.412H520.5M884.284 288.221L893.326 309.408M884.284 288.221H1005.54M994.06 268.039L1005.54 288.221M1005.54 288.221L1017.6 309.408M769.052 309.408L775.387 331.673M769.052 309.408H893.326M769.052 309.408H644.776M893.326 309.408L902.829 331.673M893.326 309.408H1017.6M1017.6 309.408L1030.27 331.673M775.387 331.673H902.829M775.387 331.673H647.942M912.831 355.104L902.829 331.673M912.831 355.104L923.368 379.793M912.831 355.104H1043.61M902.829 331.673H1030.27M647.942 331.673H520.5M647.942 331.673L645.162 312.131L644.776 309.408M1030.27 331.673L1043.61 355.104M644.776 309.408H520.5M923.368 379.793L934.487 405.847M923.368 379.793H1057.66M1043.61 355.104L1054.07 373.499L1057.66 379.793M1057.66 379.793L1072.48 405.847M796.491 405.847L804.325 433.377M796.491 405.847H934.487M796.491 405.847H658.496M934.487 405.847L946.238 433.377M934.487 405.847H1072.48M1072.48 405.847L1088.15 433.377M804.325 433.377H946.238M804.325 433.377H662.413M958.675 462.518L946.238 433.377M958.675 462.518L971.86 493.41M958.675 462.518H1104.73M946.238 433.377H1088.15M662.413 433.377H520.5M662.413 433.377L658.496 405.847M1088.15 433.377L1104.73 462.518M658.496 405.847H520.5M971.86 493.41L985.865 526.222M971.86 493.41H1122.31M1104.73 462.518L1122.31 493.41M1122.31 493.41L1140.99 526.222M830.744 526.222L840.677 561.134M830.744 526.222H985.865M830.744 526.222H675.622M985.865 526.222L1000.77 561.134M985.865 526.222H1140.99M1140.99 526.222L1160.85 561.134M840.677 561.134H1000.77M840.677 561.134H680.589M1016.65 598.355L1000.77 561.134M1016.65 598.355L1033.63 638.123M1016.65 598.355H1182.04M1000.77 561.134H1160.85M680.589 561.134H520.5M680.589 561.134L675.622 526.222M1160.85 561.134L1182.04 598.355M675.622 526.222H520.5M1033.63 638.123L1051.8 680.708M1033.63 638.123H1204.67M1182.04 598.355L1204.67 638.123M1204.67 638.123L1228.9 680.708M874.701 680.708L887.709 726.422M874.701 680.708H1051.8M874.701 680.708H697.601M1051.8 680.708L1071.31 726.422M1051.8 680.708H1228.9M1228.9 680.708L1254.92 726.422M887.709 726.422H1071.31M887.709 726.422H704.104M1092.31 775.621L1071.31 726.422M1092.31 775.621L1114.97 828.72M1092.31 775.621H1282.92M1071.31 726.422H1254.92M704.104 726.422H520.5M704.104 726.422L697.601 680.708M1254.92 726.422L1282.92 775.621M697.601 680.708H520.5M1114.97 828.72L1139.51 886.201M1114.97 828.72H1313.13M1282.92 775.621L1313.13 828.72M1313.13 828.72L1345.85 886.201M933.173 886.201L950.937 948.632M933.173 886.201H1139.51M933.173 886.201H726.837M1139.51 886.201L1166.16 948.632M1139.51 886.201H1345.85M1345.85 886.201L1381.37 948.632M950.937 948.632H1166.16M950.937 948.632H735.719M1195.2 1016.68L1166.16 948.632M1195.2 1016.68L1226.98 1091.13M1195.2 1016.68H1420.1M1166.16 948.632H1381.37M735.719 948.632H520.5M735.719 948.632L726.837 886.201M1381.37 948.632L1420.1 1016.68M726.837 886.201H520.5M1226.98 1091.13L1261.9 1172.95M1226.98 1091.13H1462.47M1420.1 1016.68L1462.47 1091.13M1462.47 1091.13L1509.03 1172.95M1014.77 1172.95L1040.47 1263.28M1014.77 1172.95H1261.9M1014.77 1172.95H767.633M1261.9 1172.95L1300.45 1263.28M1261.9 1172.95H1509.03M1509.03 1172.95L1560.44 1263.28M1300.45 1263.28H1040.47M1300.45 1263.28H1560.44M1040.47 1263.28H780.485M780.485 1263.28H520.5M780.485 1263.28L767.633 1172.95M767.633 1172.95H520.5M342.673 60.8582L342.276 62.2504L341.879 63.6481L341.479 65.053L341.078 66.4653L340.269 69.306L339.861 70.7363L339.453 72.1739M342.673 60.8582H431.587M342.673 60.8582H253.758M433.139 49.9377L434.641 39.3924M433.139 49.9377L431.587 60.8582M433.139 49.9377H520.5M434.641 39.3924L434.823 38.0999L435.008 36.8128L435.189 35.5311L436.09 29.2044M434.641 39.3924H520.5M351.68 29.2044L352.034 27.9535L353.441 23.0081L354.483 19.3535M351.68 29.2044H436.09M351.68 29.2044H267.27M431.587 60.8582L431.387 62.2504L431.19 63.6481L430.988 65.053L429.977 72.1739M431.587 60.8582H520.5M520.5 49.9377V39.3924M520.5 49.9377V60.8582M520.5 39.3924V29.2044M436.09 29.2044H520.5M436.09 29.2044L436.62 25.4718L436.797 24.2372L437.492 19.3535M520.5 60.8582V72.1739M604.91 29.2044L604.38 25.4718L604.203 24.2372L604.03 23.0081L603.854 21.7845L603.682 20.5663L603.509 19.3535M604.91 29.2044H520.5M520.5 29.2044V19.3535M339.453 72.1739H429.977M339.453 72.1739H248.93M428.307 83.9065L428.093 85.4021L427.881 86.9067L426.576 96.0797M428.307 83.9065L429.977 72.1739M428.307 83.9065H520.5M429.977 72.1739H520.5M248.93 72.1739H158.406M248.93 72.1739L250.152 69.306L250.761 67.8829L251.365 66.4653L251.969 65.053L252.567 63.6481L253.165 62.2504L253.758 60.8582M520.5 72.1739V83.9065M253.758 60.8582H164.844M426.576 96.0797L424.777 108.719M426.576 96.0797H520.5M520.5 83.9065V96.0797M520.5 96.0797V108.719M329.054 108.719L325.317 121.853M329.054 108.719H424.777M329.054 108.719H233.331M424.777 108.719L422.909 121.853M424.777 108.719H520.5M520.5 108.719V121.853M325.317 121.853H422.909M325.317 121.853H227.725M420.966 135.509L422.909 121.853M420.966 135.509L418.944 149.719M420.966 135.509H520.5M422.909 121.853H520.5M227.725 121.853H130.134M227.725 121.853L233.331 108.719M520.5 121.853V135.509M233.331 108.719H137.608M418.944 149.719L418.165 155.198L417.373 160.761L416.838 164.519M418.944 149.719H520.5M520.5 135.509V149.719M520.5 149.719V164.519M313.177 164.519L311.004 172.151L310.455 174.086L308.786 179.947M313.177 164.519H416.838M313.177 164.519H209.514M416.838 164.519L416.298 168.315L415.202 176.029L414.644 179.947M416.838 164.519H520.5M520.5 164.519V179.947M308.786 179.947H414.644M308.786 179.947H202.93M412.355 196.041L412.644 193.991L414.644 179.947M412.355 196.041L409.963 212.846M412.355 196.041H520.5M414.644 179.947H520.5M202.93 179.947H97.0741M202.93 179.947L209.514 164.519M520.5 179.947V196.041M209.514 164.519H105.852M409.963 212.846L407.464 230.412M409.963 212.846H520.5M520.5 196.041V212.846M520.5 212.846V230.412M294.427 230.412L289.198 248.791M294.427 230.412H407.464M294.427 230.412H181.39M407.464 230.412L404.849 248.791M407.464 230.412H520.5M520.5 230.412V248.791M289.198 248.791H404.849M289.198 248.791H173.546M402.111 268.039L404.849 248.791M402.111 268.039L399.24 288.221M402.111 268.039H520.5M404.849 248.791H520.5M173.546 248.791H57.8953M173.546 248.791L181.39 230.412M520.5 248.791V268.039M181.39 230.412H68.3533M399.24 288.221L396.224 309.408M399.24 288.221H520.5M520.5 268.039V288.221M520.5 288.221V309.408M271.949 309.408L265.614 331.673M271.949 309.408H396.224M271.949 309.408H147.675M396.224 309.408L393.058 331.673M396.224 309.408H520.5M520.5 309.408V331.673M265.614 331.673H393.058M265.614 331.673H138.171M389.723 355.104L393.058 331.673M389.723 355.104L386.211 379.793M389.723 355.104H520.5M393.058 331.673H520.5M138.171 331.673H10.7271M138.171 331.673L147.675 309.408M520.5 331.673V355.104M147.675 309.408H23.399M386.211 379.793L382.504 405.847M386.211 379.793H520.5M520.5 355.104V379.793M520.5 379.793V405.847M244.509 405.847L236.675 433.377M244.509 405.847H382.504M244.509 405.847H106.513M382.504 405.847L378.588 433.377M382.504 405.847H520.5M520.5 405.847V433.377M236.675 433.377H378.588M236.675 433.377H94.7624M374.442 462.518L378.588 433.377M374.442 462.518L370.046 493.41M374.442 462.518H520.5M378.588 433.377H520.5M94.7624 433.377H-47.1501M94.7624 433.377L106.513 405.847M520.5 433.377V462.518M106.513 405.847H-31.4834M370.046 493.41L365.378 526.222M370.046 493.41H520.5M520.5 462.518V493.41M520.5 493.41V526.222M210.257 526.222L200.323 561.134M210.257 526.222H365.378M210.257 526.222H55.1349M365.378 526.222L360.412 561.134M365.378 526.222H520.5M520.5 526.222V561.134M200.323 561.134H360.412M200.323 561.134H40.2345M355.116 598.355L360.412 561.134M355.116 598.355L349.459 638.123M355.116 598.355H520.5M360.412 561.134H520.5M40.2345 561.134H-119.854M40.2345 561.134L55.1349 526.222M520.5 561.134V598.355M55.1349 526.222H-99.9868M349.459 638.123L343.399 680.708M349.459 638.123H520.5M520.5 598.355V638.123M520.5 638.123V680.708M166.299 680.708L153.292 726.422M166.299 680.708H343.399M166.299 680.708H-10.8019M343.399 680.708L336.896 726.422M343.399 680.708H520.5M520.5 680.708V726.422M153.292 726.422H336.896M153.292 726.422H-30.3129M329.896 775.621L336.896 726.422M329.896 775.621L322.343 828.72M329.896 775.621H520.5M336.896 726.422H520.5M-30.3129 726.422H-213.917M-30.3129 726.422L-10.8019 680.708M520.5 726.422V775.621M-10.8019 680.708H-187.903M322.343 828.72L314.163 886.201M322.343 828.72H520.5M520.5 775.621V828.72M520.5 828.72V886.201M107.828 886.201L90.0633 948.632M107.828 886.201H314.163M107.828 886.201H-98.5097M314.163 886.201L305.282 948.632M314.163 886.201H520.5M520.5 886.201V948.632M90.0633 948.632H305.282M90.0633 948.632H-125.155M295.601 1016.68L305.282 948.632M295.601 1016.68L285.008 1091.13M295.601 1016.68H520.5M305.282 948.632H520.5M-125.155 948.632H-340.374M-125.155 948.632L-98.5097 886.201M520.5 948.632V1016.68M-98.5097 886.201H-304.845M285.008 1091.13L273.367 1172.95M285.008 1091.13H520.5M520.5 1016.68V1091.13M520.5 1091.13V1172.95M26.2351 1172.95L0.533117 1263.28M26.2351 1172.95H273.367M26.2351 1172.95H-220.898M273.367 1172.95L260.516 1263.28M273.367 1172.95H520.5M520.5 1172.95V1263.28M260.516 1263.28H0.533117M260.516 1263.28H520.5M0.533117 1263.28H-259.451M-259.451 1263.28H-519.436M-259.451 1263.28L-220.898 1172.95M-220.898 1172.95H-468.032M-12.9826 60.8582L-17.7684 66.4653L-22.641 72.1739M-12.9826 60.8582H75.931M-12.9826 60.8582H-101.896M83.6988 49.9377L91.2007 39.3924M83.6988 49.9377L75.931 60.8582M83.6988 49.9377H171.059M91.2007 39.3924H177.06M91.2007 39.3924L96.6587 31.7187L98.4478 29.2044M14.0377 29.2044H98.4478M14.0377 29.2044L17.2247 25.4718L22.4463 19.3535M14.0377 29.2044H-70.3724M75.931 60.8582L67.8825 72.1739M75.931 60.8582H164.844M171.059 49.9377L177.06 39.3924M171.059 49.9377L164.844 60.8582M177.06 39.3924L179.985 34.2549L182.145 30.4589L182.858 29.2044M98.4478 29.2044H182.858M98.4478 29.2044L103.725 21.7845L105.455 19.3535M164.844 60.8582L160.036 69.306L158.406 72.1739M267.27 29.2044L267.802 27.9535L268.861 25.4718L270.435 21.7845L271.474 19.3535M267.27 29.2044H182.858M182.858 29.2044L183.569 27.9535L184.983 25.4718L188.464 19.3535M-22.641 72.1739H67.8825M-22.641 72.1739H-113.166M59.5349 83.9065L60.5966 82.4163L61.6509 80.9316L65.8238 75.0653L67.8825 72.1739M59.5349 83.9065L53.0707 92.9924L50.8753 96.0797M59.5349 83.9065H151.729M67.8825 72.1739H158.406M-113.166 72.1739H-203.69M-113.166 72.1739L-104.677 63.6481L-101.896 60.8582M158.406 72.1739L151.729 83.9065M-101.896 60.8582H-190.811M50.8753 96.0797L49.7712 97.6332L48.6596 99.1941L45.2973 103.924L44.1636 105.514L41.8851 108.719M50.8753 96.0797H144.8M151.729 83.9065L150.876 85.4021L144.8 96.0797M144.8 96.0797L143.917 97.6332L143.027 99.1941L142.136 100.764L137.608 108.719M-53.8378 108.719L-65.0492 121.853M-53.8378 108.719H41.8851M-53.8378 108.719H-149.561M41.8851 108.719L32.5423 121.853M41.8851 108.719H137.608M137.608 108.719L130.134 121.853M-65.0492 121.853H32.5423M-65.0492 121.853H-162.641M22.8284 135.509L32.5423 121.853M22.8284 135.509L12.7194 149.719M22.8284 135.509H122.362M32.5423 121.853H130.134M-162.641 121.853H-260.232M-162.641 121.853L-149.561 108.719M130.134 121.853L122.362 135.509M-149.561 108.719H-245.286M12.7194 149.719L2.1912 164.519M12.7194 149.719H114.275M122.362 135.509L120.37 139.007L114.275 149.719M114.275 149.719L111.157 155.198L107.99 160.761L105.852 164.519M-101.471 164.519L-107.987 172.151L-114.64 179.947M-101.471 164.519H2.1912M-101.471 164.519H-205.134M2.1912 164.519L-8.78375 179.947M2.1912 164.519H105.852M105.852 164.519L97.0741 179.947M-114.64 179.947H-8.78375M-114.64 179.947H-220.496M-20.2315 196.041L-8.78375 179.947M-20.2315 196.041L-32.1869 212.846M-20.2315 196.041H87.9141M-8.78375 179.947H97.0741M-220.496 179.947H-326.354M-220.496 179.947L-205.134 164.519M97.0741 179.947L87.9141 196.041M-205.134 164.519H-308.795M-32.1869 212.846L-35.2593 217.164L-44.6815 230.412M-32.1869 212.846H78.3497M87.9141 196.041L78.3497 212.846M78.3497 212.846L77.1255 214.999L73.4087 221.531L68.3533 230.412M-157.718 230.412L-173.407 248.791M-157.718 230.412H-44.6815M-157.718 230.412H-270.755M-44.6815 230.412L-57.7559 248.791M-44.6815 230.412H68.3533M68.3533 230.412L57.8953 248.791M-173.407 248.791H-57.7559M-173.407 248.791H-289.058M-71.4488 268.039L-62.815 255.904L-57.7559 248.791M-71.4488 268.039L-85.8064 288.221M-71.4488 268.039H46.9406M-57.7559 248.791H57.8953M-289.058 248.791H-404.71M-289.058 248.791L-270.755 230.412M57.8953 248.791L46.9406 268.039M-270.755 230.412H-383.792M-85.8064 288.221L-100.877 309.408M-85.8064 288.221H35.456M46.9406 268.039L35.456 288.221M35.456 288.221L23.399 309.408M-225.153 309.408L-244.159 331.673M-225.153 309.408H-100.877M-225.153 309.408H-349.427M-100.877 309.408L-116.715 331.673M-100.877 309.408H23.399M23.399 309.408L10.7271 331.673M-244.159 331.673H-116.715M-244.159 331.673H-371.602M-133.383 355.104L-116.715 331.673M-133.383 355.104L-150.946 379.793M-133.383 355.104H-2.60568M-116.715 331.673H10.7271M-371.602 331.673H-499.044M-371.602 331.673L-349.427 309.408M10.7271 331.673L-2.60568 355.104M-349.427 309.408H-473.702M-150.946 379.793L-169.478 405.847M-150.946 379.793H-16.6569M-2.60568 355.104L-16.6569 379.793M-16.6569 379.793L-31.4834 405.847M-307.474 405.847L-330.975 433.377M-307.474 405.847H-169.478M-307.474 405.847H-445.471M-169.478 405.847L-189.063 433.377M-169.478 405.847H-31.4834M-31.4834 405.847L-47.1501 433.377M-330.975 433.377H-189.063M-330.975 433.377H-472.888M-209.792 462.518L-189.063 433.377M-209.792 462.518L-231.768 493.41M-209.792 462.518H-63.7327M-189.063 433.377H-47.1501M-472.888 433.377H-614.801M-472.888 433.377L-445.471 405.847M-47.1501 433.377L-63.7327 462.518M-445.471 405.847H-583.465M-231.768 493.41L-255.109 526.222M-231.768 493.41H-81.3142M-63.7327 462.518L-81.3142 493.41M-81.3142 493.41L-99.9868 526.222M-410.23 526.222L-440.031 561.134M-410.23 526.222H-255.109M-410.23 526.222H-565.352M-255.109 526.222L-279.943 561.134M-255.109 526.222H-99.9868M-99.9868 526.222L-119.854 561.134M-440.031 561.134H-279.943M-440.031 561.134H-600.12M-306.42 598.355L-279.943 561.134M-306.42 598.355L-334.711 638.123M-306.42 598.355H-141.036M-279.943 561.134H-119.854M-600.12 561.134H-760.208M-600.12 561.134L-565.352 526.222M-119.854 561.134L-141.036 598.355M-565.352 526.222H-720.474M-334.711 638.123L-365.003 680.708M-334.711 638.123H-163.667M-141.036 598.355L-163.667 638.123M-163.667 638.123L-187.903 680.708M-542.104 680.708L-581.126 726.422M-542.104 680.708H-365.003M-542.104 680.708H-719.205M-365.003 680.708L-397.522 726.422M-365.003 680.708H-187.903M-187.903 680.708L-213.917 726.422M-581.126 726.422H-397.522M-581.126 726.422H-764.73M-432.52 775.621L-397.522 726.422M-432.52 775.621L-470.292 828.72M-432.52 775.621H-241.916M-397.522 726.422H-213.917M-764.73 726.422H-948.334M-764.73 726.422L-719.205 680.708M-213.917 726.422L-241.916 775.621M-719.205 680.708H-896.307M-470.292 828.72L-511.182 886.201M-470.292 828.72H-272.134M-241.916 775.621L-272.134 828.72M-272.134 828.72L-304.845 886.201M-717.518 886.201L-770.81 948.632M-717.518 886.201H-511.182M-717.518 886.201H-923.855M-511.182 886.201L-555.592 948.632M-511.182 886.201H-304.845M-304.845 886.201L-340.374 948.632M-770.81 948.632H-555.592M-770.81 948.632H-986.029M-603.997 1016.68L-555.592 948.632M-603.997 1016.68L-656.963 1091.13M-603.997 1016.68H-379.098M-555.592 948.632H-340.374M-986.029 948.632H-1201.25M-986.029 948.632L-923.855 886.201M-340.374 948.632L-379.098 1016.68M-923.855 886.201H-1130.19M-656.963 1091.13L-715.164 1172.95M-656.963 1091.13H-421.469M-379.098 1016.68L-421.469 1091.13M-421.469 1091.13L-468.032 1172.95M-962.297 1172.95L-1039.4 1263.28M-962.297 1172.95H-715.164M-962.297 1172.95H-1209.43M-715.164 1172.95L-779.418 1263.28M-715.164 1172.95H-468.032M-468.032 1172.95L-519.436 1263.28M-779.418 1263.28H-1039.4M-779.418 1263.28H-519.436M-1039.4 1263.28L-1252.05 1263.28M-1209.43 1172.95L-1252.05 1215.74M-1209.43 1172.95H-1252.05M-368.638 60.8582L-384.737 72.1739M-368.638 60.8582H-279.725M-368.638 60.8582H-457.552M-265.742 49.9377L-252.239 39.3924M-265.742 49.9377L-279.725 60.8582M-265.742 49.9377H-178.381M-252.239 39.3924H-166.38M-252.239 39.3924L-239.193 29.2044M-323.605 29.2044H-239.193M-323.605 29.2044L-318.293 25.4718L-309.589 19.3535M-323.605 29.2044H-408.015M-279.725 60.8582L-294.213 72.1739M-279.725 60.8582H-190.811M-178.381 49.9377L-166.38 39.3924M-178.381 49.9377L-190.811 60.8582M-166.38 39.3924L-157.644 31.7187L-154.782 29.2044M-239.193 29.2044L-237.594 27.9535L-226.58 19.3535M-239.193 29.2044H-154.782M-190.811 60.8582L-203.69 72.1739M-70.3724 29.2044L-60.5624 19.3535M-70.3724 29.2044H-154.782M-154.782 29.2044L-150.534 25.4718L-143.571 19.3535M-384.737 72.1739H-294.213M-384.737 72.1739H-475.261M-309.236 83.9065L-294.213 72.1739M-309.236 83.9065L-324.823 96.0797M-309.236 83.9065H-217.043M-294.213 72.1739H-203.69M-475.261 72.1739H-565.784M-475.261 72.1739L-457.552 60.8582M-203.69 72.1739L-217.043 83.9065M-457.552 60.8582H-546.465M-324.823 96.0797L-328.813 99.1941L-341.009 108.719M-324.823 96.0797H-230.899M-217.043 83.9065L-230.899 96.0797M-230.899 96.0797L-245.286 108.719M-436.732 108.719L-439.027 110.334L-455.415 121.853M-436.732 108.719H-341.009M-436.732 108.719H-532.455M-341.009 108.719L-357.824 121.853M-341.009 108.719H-245.286M-245.286 108.719L-247.121 110.334L-260.232 121.853M-455.415 121.853H-357.824M-455.415 121.853H-553.007M-375.309 135.509L-357.824 121.853M-375.309 135.509L-393.506 149.719M-375.309 135.509H-275.775M-357.824 121.853H-260.232M-553.007 121.853H-650.599M-553.007 121.853L-532.455 108.719M-260.232 121.853L-275.775 135.509M-532.455 108.719H-628.178M-393.506 149.719L-412.457 164.519M-393.506 149.719H-291.95M-275.775 135.509L-291.95 149.719M-291.95 149.719L-308.795 164.519M-516.118 164.519L-538.066 179.947M-516.118 164.519H-412.457M-516.118 164.519H-619.78M-412.457 164.519L-432.21 179.947M-412.457 164.519H-308.795M-308.795 164.519L-326.354 179.947M-538.066 179.947H-432.21M-538.066 179.947H-643.924M-452.818 196.041L-432.21 179.947M-452.818 196.041L-474.337 212.846M-452.818 196.041H-344.672M-432.21 179.947H-326.354M-643.924 179.947H-749.78M-643.924 179.947L-619.78 164.519M-326.354 179.947L-344.672 196.041M-619.78 164.519H-723.443M-474.337 212.846L-496.828 230.412M-474.337 212.846H-363.799M-344.672 196.041L-363.799 212.846M-363.799 212.846L-383.792 230.412M-609.865 230.412L-636.012 248.791M-609.865 230.412H-496.828M-609.865 230.412H-722.902M-496.828 230.412L-520.361 248.791M-496.828 230.412H-383.792M-383.792 230.412L-404.71 248.791M-636.012 248.791H-520.361M-636.012 248.791H-751.663M-545.008 268.039L-520.361 248.791M-545.008 268.039L-570.851 288.221M-545.008 268.039H-426.619M-520.361 248.791H-404.71M-751.663 248.791H-867.314M-751.663 248.791L-722.902 230.412M-404.71 248.791L-426.619 268.039M-722.902 230.412H-835.939M-570.851 288.221L-597.978 309.408M-570.851 288.221H-449.59M-426.619 268.039L-449.59 288.221M-449.59 288.221L-473.702 309.408M-722.254 309.408L-753.931 331.673M-722.254 309.408H-597.978M-722.254 309.408H-846.528M-597.978 309.408L-626.488 331.673M-597.978 309.408H-473.702M-473.702 309.408L-499.044 331.673M-753.931 331.673H-626.488M-753.931 331.673H-881.375M-656.49 355.104L-626.488 331.673M-656.49 355.104L-688.103 379.793M-656.49 355.104H-525.713M-626.488 331.673H-499.044M-881.375 331.673H-1008.82M-881.375 331.673L-846.528 309.408M-499.044 331.673L-525.713 355.104M-846.528 309.408H-970.803M-688.103 379.793L-721.462 405.847M-688.103 379.793H-553.814M-525.713 355.104L-553.814 379.793M-553.814 379.793L-583.465 405.847M-859.458 405.847L-898.626 433.377M-859.458 405.847H-721.462M-859.458 405.847H-997.452M-721.462 405.847L-756.713 433.377M-721.462 405.847H-583.465M-583.465 405.847L-614.801 433.377M-898.626 433.377H-756.713M-898.626 433.377H-1040.54M-794.025 462.518L-756.713 433.377M-794.025 462.518L-833.583 493.41M-794.025 462.518H-647.967M-756.713 433.377H-614.801M-1040.54 433.377H-1182.45M-1040.54 433.377L-997.452 405.847M-614.801 433.377L-647.967 462.518M-997.452 405.847H-1135.45M-833.583 493.41L-875.596 526.222M-833.583 493.41H-683.128M-647.967 462.518L-683.128 493.41M-683.128 493.41L-720.474 526.222M-1030.72 526.222L-1080.39 561.134M-1030.72 526.222H-875.596M-1030.72 526.222H-1185.84M-875.596 526.222L-920.297 561.134M-875.596 526.222H-720.474M-720.474 526.222L-760.208 561.134M-1080.39 561.134H-920.297M-1080.39 561.134H-1240.47M-967.958 598.355L-920.297 561.134M-967.958 598.355L-1018.88 638.123M-967.958 598.355H-802.574M-920.297 561.134H-760.208M-1240.47 561.134L-1185.84 526.222M-1240.47 561.134H-1252.05M-1240.47 561.134L-1252.05 568.527M-760.208 561.134L-802.574 598.355M-1185.84 526.222H-1252.05M-1018.88 638.123L-1073.41 680.708M-1018.88 638.123H-847.837M-802.574 598.355L-847.837 638.123M-847.837 638.123L-896.307 680.708M-1250.51 680.708H-1073.41M-1250.51 680.708H-1252.05M-1250.51 680.708L-1252.05 681.789M-1073.41 680.708L-1131.94 726.422M-1073.41 680.708H-896.307M-896.307 680.708L-948.334 726.422M-1194.94 775.621L-1131.94 726.422M-1194.94 775.621H-1004.33M-1194.94 775.621H-1252.05M-1194.94 775.621L-1252.05 820.222M-1131.94 726.422H-948.334M-1131.94 726.422H-1252.05M-948.334 726.422L-1004.33 775.621M-1004.33 775.621L-1064.77 828.72M-1064.77 828.72L-1130.19 886.201M-1064.77 828.72H-1252.05M-1130.19 886.201L-1201.25 948.632M-1130.19 886.201H-1252.05M-1201.25 948.632H-1252.05M-1201.25 948.632L-1252.05 993.264M-724.294 60.8582L-746.831 72.1739M-724.294 60.8582H-635.379M-724.294 60.8582H-813.207M-615.183 49.9377L-595.679 39.3924M-615.183 49.9377L-635.379 60.8582M-615.183 49.9377H-527.822M-595.679 39.3924H-509.82M-595.679 39.3924L-576.835 29.2044M-661.245 29.2044H-576.835M-661.245 29.2044L-641.625 19.3535M-661.245 29.2044H-745.655M-635.379 60.8582L-656.308 72.1739M-635.379 60.8582H-546.465M-527.822 49.9377L-509.82 39.3924M-527.822 49.9377L-546.465 60.8582M-509.82 39.3924L-492.425 29.2044M-576.835 29.2044L-574.525 27.9535L-558.616 19.3535M-576.835 29.2044H-492.425M-546.465 60.8582L-565.784 72.1739M-408.015 29.2044L-392.599 19.3535M-408.015 29.2044H-492.425M-492.425 29.2044L-490.292 27.9535L-475.608 19.3535M-746.831 72.1739H-656.308M-746.831 72.1739H-837.355M-678.008 83.9065L-656.308 72.1739M-678.008 83.9065L-700.523 96.0797M-678.008 83.9065H-585.814M-656.308 72.1739H-565.784M-837.355 72.1739H-927.878M-837.355 72.1739L-813.207 60.8582M-565.784 72.1739L-585.814 83.9065M-813.207 60.8582H-902.121M-700.523 96.0797L-723.901 108.719M-700.523 96.0797H-606.599M-585.814 83.9065L-588.371 85.4021L-606.599 96.0797M-606.599 96.0797L-628.178 108.719M-819.624 108.719L-845.782 121.853M-819.624 108.719H-723.901M-819.624 108.719H-915.347M-723.901 108.719L-748.19 121.853M-723.901 108.719H-628.178M-628.178 108.719L-650.599 121.853M-845.782 121.853H-748.19M-845.782 121.853H-943.373M-773.447 135.509L-748.19 121.853M-773.447 135.509L-799.731 149.719M-773.447 135.509H-673.913M-748.19 121.853H-650.599M-943.373 121.853H-1040.96M-943.373 121.853L-915.347 108.719M-650.599 121.853L-673.913 135.509M-915.347 108.719H-1011.07M-799.731 149.719L-827.103 164.519M-799.731 149.719H-698.175M-673.913 135.509L-698.175 149.719M-698.175 149.719L-723.443 164.519M-930.766 164.519L-961.494 179.947M-930.766 164.519H-827.103M-930.766 164.519H-1034.43M-827.103 164.519L-855.636 179.947M-827.103 164.519H-723.443M-723.443 164.519L-749.78 179.947M-961.494 179.947H-855.636M-961.494 179.947H-1067.35M-885.404 196.041L-855.636 179.947M-885.404 196.041L-916.486 212.846M-885.404 196.041H-777.256M-855.636 179.947H-749.78M-1067.35 179.947H-1173.21M-1067.35 179.947L-1034.43 164.519M-749.78 179.947L-777.256 196.041M-1034.43 164.519H-1138.09M-916.486 212.846L-948.975 230.412M-916.486 212.846H-805.949M-777.256 196.041L-805.949 212.846M-805.949 212.846L-835.939 230.412M-1062.01 230.412L-1098.62 248.791M-1062.01 230.412H-948.975M-1062.01 230.412H-1175.05M-948.975 230.412L-982.966 248.791M-948.975 230.412H-835.939M-835.939 230.412L-867.314 248.791M-1098.62 248.791H-982.966M-1018.57 268.039L-982.966 248.791M-1018.57 268.039L-1055.89 288.221M-1018.57 268.039H-900.177M-982.966 248.791H-867.314M-867.314 248.791L-900.177 268.039M-1175.05 230.412H-1252.05M-1055.89 288.221L-1095.08 309.408M-1055.89 288.221H-934.634M-900.177 268.039L-934.634 288.221M-934.634 288.221L-970.803 309.408M-1219.35 309.408H-1095.08M-1219.35 309.408H-1252.05M-1219.35 309.408L-1252.05 325.82M-1095.08 309.408L-1136.26 331.673M-1095.08 309.408H-970.803M-970.803 309.408L-1008.82 331.673M-1179.6 355.104L-1136.26 331.673M-1179.6 355.104L-1225.26 379.793M-1179.6 355.104H-1048.82M-1179.6 355.104H-1252.05M-1136.26 331.673H-1008.82M-1136.26 331.673H-1252.05M-1008.82 331.673L-1048.82 355.104M-1252.41 326.001L-1252.05 325.82M-1225.26 379.793H-1090.97M-1225.26 379.793H-1252.05M-1225.26 379.793L-1252.05 394.276M-1048.82 355.104L-1090.97 379.793M-1090.97 379.793L-1135.45 405.847M-1135.45 405.847L-1182.45 433.377M-1135.45 405.847H-1252.05M-1232.2 462.518L-1182.45 433.377M-1232.2 462.518H-1252.05M-1232.2 462.518L-1252.05 474.141M-1182.45 433.377H-1252.05M-1079.95 60.8582L-1108.93 72.1739M-1079.95 60.8582H-991.034M-1079.95 60.8582H-1168.86M-964.623 49.9377L-939.119 39.3924M-964.623 49.9377L-991.034 60.8582M-964.623 49.9377H-877.263M-939.119 39.3924H-853.26M-939.119 39.3924L-914.477 29.2044M-998.887 29.2044H-914.477M-998.887 29.2044L-973.662 19.3535M-998.887 29.2044H-1083.3M-991.034 60.8582L-1018.4 72.1739M-991.034 60.8582H-902.121M-877.263 49.9377L-853.26 39.3924M-877.263 49.9377L-902.121 60.8582M-853.26 39.3924L-830.067 29.2044M-914.477 29.2044H-830.067M-914.477 29.2044L-890.651 19.3535M-902.121 60.8582L-927.878 72.1739M-745.655 29.2044L-724.634 19.3535M-745.655 29.2044H-830.067M-830.067 29.2044L-807.642 19.3535M-1108.93 72.1739H-1018.4M-1108.93 72.1739H-1199.45M-1046.78 83.9065L-1018.4 72.1739M-1046.78 83.9065L-1076.22 96.0797M-1046.78 83.9065H-954.586M-1018.4 72.1739H-927.878M-1199.45 72.1739L-1168.86 60.8582M-1199.45 72.1739H-1252.05M-927.878 72.1739L-954.586 83.9065M-1168.86 60.8582H-1252.05M-1076.22 96.0797L-1106.79 108.719M-1076.22 96.0797H-982.297M-954.586 83.9065L-982.297 96.0797M-982.297 96.0797L-1011.07 108.719M-1202.52 108.719L-1236.15 121.853M-1202.52 108.719H-1106.79M-1202.52 108.719H-1252.05M-1106.79 108.719L-1138.56 121.853M-1106.79 108.719H-1011.07M-1011.07 108.719L-1040.96 121.853M-1171.58 135.509L-1138.56 121.853M-1171.58 135.509L-1205.96 149.719M-1171.58 135.509H-1072.05M-1171.58 135.509H-1252.05M-1138.56 121.853H-1236.15M-1138.56 121.853H-1040.96M-1236.15 121.853L-1252.05 128.06M-1236.15 121.853H-1252.05M-1040.96 121.853L-1072.05 135.509M-1205.96 149.719L-1241.75 164.519M-1205.96 149.719H-1104.4M-1205.96 149.719H-1252.05M-1072.05 135.509L-1104.4 149.719M-1104.4 149.719L-1138.09 164.519M-1241.75 164.519H-1138.09M-1241.75 164.519L-1252.05 168.775M-1241.75 164.519H-1252.05M-1138.09 164.519L-1173.21 179.947M-1209.84 196.041L-1173.21 179.947M-1209.84 196.041L-1248.1 212.846M-1209.84 196.041H-1252.05M-1173.21 179.947H-1252.05M-1252.6 179.947H-1252.05M-1248.1 212.846H-1252.05M-1248.1 212.846L-1252.05 214.58M-1253 214.999L-1252.05 214.58M-1226.7 49.9377L-1196.7 39.3924M-1226.7 49.9377H-1252.05M-1226.7 49.9377L-1252.05 58.8433M-1196.7 39.3924L-1167.71 29.2044M-1196.7 39.3924H-1252.05M-1083.3 29.2044L-1056.67 19.3535M-1083.3 29.2044H-1167.71M-1167.71 29.2044L-1139.68 19.3535M-1167.71 29.2044H-1252.05M1682.63 19.3535H1765.63M1682.63 19.3535H1599.62M1745.3 9.82521L1750.32 12.1783L1765.63 19.3535M1745.3 9.82521H1826.95M1765.63 19.3535H1848.64M1826.95 9.82521L1832.31 12.1783L1835 13.3602L1848.64 19.3535M1848.64 19.3535H1931.65M1931.65 19.3535H2014.66M1599.62 19.3535H1516.61M2014.66 19.3535H2097.67M2097.67 19.3535L2071.91 9.82521M2097.67 19.3535H2180.68M2071.91 9.82521H2153.56M1350.59 19.3535H1433.6M1350.59 19.3535H1267.58M1418.69 9.82521L1422.37 12.1783L1424.22 13.3602L1433.6 19.3535M1418.69 9.82521H1500.34M1433.6 19.3535H1516.61M1500.34 9.82521L1516.61 19.3535M1267.58 19.3535H1184.57M1018.55 19.3535H1101.56M1018.55 19.3535H935.545M1092.07 9.82521L1093.24 10.9981L1094.42 12.1783L1095.6 13.3602L1101.56 19.3535M1092.07 9.82521H1173.73M1101.56 19.3535H1184.57M1173.73 9.82521L1184.57 19.3535M935.545 19.3535H852.535M686.517 19.3535H769.526M686.517 19.3535H603.509M765.46 9.82521L769.526 19.3535M765.46 9.82521H847.114M769.526 19.3535H852.535M847.114 9.82521L847.782 10.9981L848.452 12.1783L849.126 13.3602L852.535 19.3535M603.509 19.3535H520.5M354.483 19.3535H437.492M354.483 19.3535H271.474M438.847 9.82521L437.492 19.3535M438.847 9.82521H520.5M437.492 19.3535H520.5M520.5 9.82521V19.3535M271.474 19.3535H188.464M22.4463 19.3535H105.455M22.4463 19.3535H-60.5624M112.233 9.82521L110.56 12.1783L107.17 16.9406L105.455 19.3535M112.233 9.82521H193.886M105.455 19.3535H188.464M193.886 9.82521L193.218 10.9981L192.548 12.1783L191.874 13.3602L188.464 19.3535M-60.5624 19.3535H-143.571M-309.589 19.3535H-226.58M-309.589 19.3535H-392.599M-214.379 9.82521L-217.392 12.1783L-218.908 13.3602L-226.58 19.3535M-214.379 9.82521H-132.725M-226.58 19.3535H-143.571M-132.725 9.82521L-134.062 10.9981L-143.571 19.3535M-392.599 19.3535H-475.608M-641.625 19.3535H-558.616M-641.625 19.3535H-724.634M-540.992 9.82521L-545.344 12.1783L-547.534 13.3602L-558.616 19.3535M-540.992 9.82521H-459.339M-558.616 19.3535H-475.608M-459.339 9.82521L-461.344 10.9981L-475.608 19.3535M-724.634 19.3535H-807.642M-973.662 19.3535H-890.651M-973.662 19.3535H-1056.67M-867.606 9.82521L-890.651 19.3535M-867.606 9.82521H-785.953M-890.651 19.3535H-807.642M-785.953 9.82521L-791.307 12.1783L-794.003 13.3602L-807.642 19.3535M-1056.67 19.3535H-1139.68M-1194.22 9.82521L-1222.69 19.3535M-1194.22 9.82521H-1112.56M-1194.22 9.82521H-1252.05M-1222.69 19.3535H-1139.68M-1222.69 19.3535L-1252.05 29.1803M-1222.69 19.3535H-1252.05M-1112.56 9.82521L-1119.26 12.1783L-1139.68 19.3535M2153.56 9.82521L2160.26 12.1783L2180.68 19.3535M2180.68 19.3535H2263.69M2263.69 19.3535L2293.05 29.1803M2263.69 19.3535H2293.05M2293.05 474.141V462.518M2293.05 474.141V493.41M2293.05 462.518V433.377M2293.05 493.41V499.168V526.222M2293.05 526.222V561.134M2293.05 248.791V230.412M2293.05 248.791V266.492M2293.05 9.82521V19.3535M2293.05 19.3535V29.1803M2293.05 29.1803L2293.12 29.2044H2293.05M2293.05 29.1803V29.2044M2293.05 29.2044V39.3924M2293.05 39.3924V49.9377M2293.05 49.9377V58.8433M2293.05 58.8433V60.8582M2293.05 60.8582V72.1739M2293.05 72.1739V83.9065M2293.05 83.9065V91.6294M2293.05 91.6294V96.0797M2293.05 96.0797V108.719M2293.05 108.719V121.853M2293.05 121.853V128.06M2293.05 128.06V135.509M2293.05 135.509V149.719M2293.05 149.719V164.519M2293.05 164.519V168.775M2293.05 168.775V179.947M2293.05 179.947V196.041M2293.05 196.041V212.846M2293.05 212.846V214.58M2293.05 214.58V230.412M2293.05 268.039V288.221M2293.05 268.039V266.492M2293.05 288.221V309.408M2293.05 309.408V325.82M2293.05 325.82V331.673M2293.05 331.673V355.104M2293.05 355.104V379.793M2293.05 379.793V394.276M2293.05 394.276V405.847M2293.05 405.847V433.377M2293.05 561.134V568.527M2293.05 568.527V598.355M2293.05 598.355V638.123M2293.05 638.123V680.708M2293.05 680.708V681.789M2293.05 681.789V726.422M2293.05 726.422V775.621M2293.05 775.621V820.222M2293.05 820.222V828.72M2293.05 828.72V886.201M2293.05 886.201V948.632M2293.05 948.632V993.264M2293.05 993.264V1016.68M2293.05 1016.68V1091.13M2293.05 1091.13V1172.95M2293.05 1172.95V1215.74M2293.05 1215.74V1263.28M2293.05 1263.28V1263.6H-1252.05V1263.28M-1252.05 268.039V288.221M-1252.05 268.039V266.492M-1252.05 266.492V248.791M-1252.05 248.791V230.412M-1252.05 230.412V214.58M-1252.05 214.58V212.846M-1252.05 212.846V196.041M-1252.05 196.041V179.947M-1252.05 179.947V168.775M-1252.05 168.775V164.519M-1252.05 164.519V149.719M-1252.05 149.719V135.509M-1252.05 135.509V128.06M-1252.05 128.06V121.853M-1252.05 121.853V108.719M-1252.05 108.719V96.0797M-1252.05 96.0797V91.6294M-1252.05 91.6294V83.9065M-1252.05 83.9065V72.1739M-1252.05 72.1739V60.8582M-1252.05 60.8582V58.8433M-1252.05 58.8433V49.9377M-1252.05 49.9377V39.3924M-1252.05 39.3924V29.2044M-1252.05 29.2044H-1252.12L-1252.05 29.1803M-1252.05 29.2044V29.1803M-1252.05 29.1803V19.3535M-1252.05 19.3535V9.82521M-1252.05 1263.28V1215.74M-1252.05 1215.74V1172.95M-1252.05 1172.95V1091.14M-1252.05 1091.14V1016.68M-1252.05 1016.68V993.264M-1252.05 993.264V948.632M-1252.05 948.632V886.201M-1252.05 886.201V828.72M-1252.05 828.72V820.222M-1252.05 820.222V775.621M-1252.05 775.621V726.422M-1252.05 726.422V681.789M-1252.05 681.789V680.708M-1252.05 680.708V638.123M-1252.05 638.123V598.355M-1252.05 598.355V568.527M-1252.05 568.527V561.134M-1252.05 561.134V526.222M-1252.05 526.222V493.41M-1252.05 493.41V474.141M-1252.05 474.141V462.518M-1252.05 462.518V433.377M-1252.05 433.377V405.847M-1252.05 405.847V394.276M-1252.05 394.276V379.793M-1252.05 379.793V355.104M-1252.05 355.104V331.673M-1252.05 331.673V325.82M-1252.05 325.82V309.408M-1252.05 309.408V288.221" stroke="url(#paint0_linear_9012_31884)" stroke-width="1.2" stroke-miterlimit="10" stroke-linecap="round" stroke-linejoin="round"/>
<defs>
<linearGradient id="paint0_linear_9012_31884" x1="520.5" y1="0.601562" x2="520.5" y2="886.119" gradientUnits="userSpaceOnUse">
<stop stop-opacity="0"/>
<stop offset="1"/>
</linearGradient>
</defs>
</svg>
