<svg preserveAspectRatio="none" width="100%" height="100%" overflow="visible" style="display: block;" viewBox="0 0 3548.2 1264.2" fill="none" xmlns="http://www.w3.org/2000/svg">
<path id="Pattern" opacity="0.2" d="M3488.82 9.82364L3461.26 0.6M3488.82 9.82364H3407.16M3488.82 9.82364L3517.29 19.3519M3488.82 9.82364H3546.65M3461.26 0.6L3471.29 0.603596L3481.21 0.623568L3490.93 0.679721L3500.34 0.790312L3509.34 0.96978L3517.84 1.23992L3525.74 1.61518L3533.06 2.09373L3539.35 2.75545L3545.07 3.52228L3546.65 3.79087V9.82364M3461.26 0.6H3380.92M3380.92 0.6H3300.58M3380.92 0.6L3407.16 9.82364M3300.58 0.6H3220.24M3300.58 0.6L3325.51 9.82364M3220.24 0.6H3139.9M3220.24 0.6L3243.86 9.82364M3139.9 0.6H3059.56M3139.9 0.6L3162.21 9.82364M3059.56 0.6H2979.22M3059.56 0.6L3080.55 9.82364M2979.22 0.6H2898.88M2979.22 0.6L2998.9 9.82364M2898.88 0.6H2818.54M2898.88 0.6L2917.25 9.82364M2818.54 0.6H2738.19M2818.54 0.6L2835.59 9.82364M2738.19 0.6H2657.85M2738.19 0.6L2753.94 9.82364M2657.85 0.6H2577.51M2657.85 0.6L2672.29 9.82364M2577.51 0.6H2497.17M2577.51 0.6L2590.63 9.82364M2497.17 0.6H2416.83M2497.17 0.6L2500.09 2.87871L2504.51 6.32855L2508.98 9.82364M2416.83 0.6H2336.49M2416.83 0.6L2419.42 2.87871L2427.33 9.82364M2336.49 0.6H2256.15M2336.49 0.6L2345.67 9.82364M2256.15 0.6H2175.81M2256.15 0.6L2259.07 4.02439L2262.03 7.48873L2263.02 8.65439L2264.02 9.82364M2175.81 0.6H2095.46M2175.81 0.6L2178.24 4.02439L2179.06 5.17373L2179.88 6.32855L2182.37 9.82364M2095.46 0.6H2015.12M2095.46 0.6L2100.71 9.82364M2015.12 0.6L2015.61 1.73661L2016.1 2.87871L2018.56 8.65439L2019.06 9.82364M2015.12 0.6H1934.78M1934.78 0.6H1854.44M1934.78 0.6L1937.41 9.82364M1854.44 0.6H1774.1M1854.44 0.6L1854.93 4.02439L1855.75 9.82364M1774.1 0.6H1693.76M1774.1 0.6V9.82364M1693.76 0.6H1613.42M1693.76 0.6L1693.27 4.02439L1692.45 9.82364M1613.42 0.6H1533.08M1613.42 0.6L1610.79 9.82364M1533.08 0.6L1532.59 1.73661L1532.11 2.87871L1529.64 8.65439L1529.14 9.82364M1533.08 0.6H1452.74M1452.74 0.6H1372.39M1452.74 0.6L1448.15 8.65439L1447.49 9.82364M1372.39 0.6H1292.05M1372.39 0.6L1369.96 4.02439L1369.14 5.17373L1367.49 7.48873L1366.67 8.65439L1365.83 9.82364M1292.05 0.6H1211.71M1292.05 0.6L1289.13 4.02439L1286.17 7.48873L1285.18 8.65439L1284.18 9.82364M1211.71 0.6H1131.37M1211.71 0.6L1202.53 9.82364M1131.37 0.6H1051.03M1131.37 0.6L1128.78 2.87871L1120.87 9.82364M1051.03 0.6H970.688M1051.03 0.6L1039.22 9.82364M970.688 0.6H890.348M970.688 0.6L957.568 9.82364M890.348 0.6H810.005M890.348 0.6L875.914 9.82364M810.005 0.6H729.665M810.005 0.6L794.261 9.82364M729.665 0.6H649.324M729.665 0.6L712.608 9.82364M649.324 0.6H568.984M649.324 0.6L630.954 9.82364M568.984 0.6H488.641M568.984 0.6L549.301 9.82364M488.641 0.6H408.3M488.641 0.6L467.647 9.82364M408.3 0.6H327.96M408.3 0.6L385.994 9.82364M327.96 0.6H247.617M327.96 0.6L304.341 9.82364M247.617 0.6H167.277M247.617 0.6L222.689 9.82364M167.277 0.6H86.936M167.277 0.6L141.036 9.82364M86.936 0.6L76.9101 0.603596L66.9875 0.623568L57.2718 0.679721L47.8606 0.790312L38.8576 0.96978L30.3586 1.23992L22.4652 1.61518L15.1387 2.09373L8.85172 2.75545L3.12788 3.52228L1.55475 3.79093V9.82364M86.936 0.6L59.3822 9.82364M222.689 9.82364H304.341M222.689 9.82364H141.036M222.689 9.82364L196.93 19.3519M304.341 9.82364L279.939 19.3519M304.341 9.82364H385.994M549.301 9.82364H630.954M549.301 9.82364H467.647M549.301 9.82364L544.281 12.1767L528.966 19.3519M630.954 9.82364L611.975 19.3519M630.954 9.82364H712.608M875.914 9.82364H957.568M875.914 9.82364H794.261M875.914 9.82364L872.233 12.1767L870.379 13.3587L861.001 19.3519M957.568 9.82364L955.897 10.9965L954.22 12.1767L944.012 19.3519M957.568 9.82364H1039.22M1202.53 9.82364L1201.36 10.9965L1193.04 19.3519M1202.53 9.82364H1284.18M1202.53 9.82364H1120.87M1284.18 9.82364L1282.17 12.1767L1281.16 13.3587L1280.15 14.5479L1276.05 19.3519M1284.18 9.82364H1365.83M1529.14 9.82364H1610.79M1529.14 9.82364H1447.49M1529.14 9.82364L1525.07 19.3519M1610.79 9.82364L1610.46 10.9965L1610.13 12.1767L1609.79 13.3587L1608.77 16.939L1608.08 19.3519M1610.79 9.82364H1692.45M1855.75 9.82364H1937.41M1855.75 9.82364H1774.1M1855.75 9.82364L1857.11 19.3519M1937.41 9.82364L1937.74 10.9965L1938.08 12.1767L1938.41 13.3587L1940.12 19.3519M1937.41 9.82364H2019.06M2182.37 9.82364H2264.02M2182.37 9.82364H2100.71M2182.37 9.82364L2184.04 12.1767L2187.43 16.939L2188.28 18.1428L2189.15 19.3519M2264.02 9.82364L2266.03 12.1767L2267.04 13.3587L2268.05 14.5479L2272.15 19.3519M2264.02 9.82364H2345.67M2508.98 9.82364H2590.63M2508.98 9.82364H2427.33M2508.98 9.82364L2511.99 12.1767L2513.51 13.3587L2521.18 19.3519M2590.63 9.82364L2592.3 10.9965L2593.98 12.1767L2604.19 19.3519M2590.63 9.82364H2672.29M2835.59 9.82364H2917.25M2835.59 9.82364H2753.94M2835.59 9.82364L2839.94 12.1767L2842.13 13.3587L2853.22 19.3519M2917.25 9.82364L2936.23 19.3519M2917.25 9.82364H2998.9M3162.21 9.82364H3243.86M3162.21 9.82364H3080.55M3162.21 9.82364L3185.25 19.3519M3243.86 9.82364L3268.26 19.3519M3243.86 9.82364H3325.51M1.26856 96.0781H1.55475M83.4537 96.0781L114.628 83.905M83.4537 96.0781L51.0845 108.717M83.4537 96.0781H177.378M83.4537 96.0781H1.55475M114.628 83.905H22.4357M114.628 83.905L144.675 72.1723M114.628 83.905H206.821M22.4357 83.905L54.1513 72.1723M22.4357 83.905H1.55475M22.4357 83.905L1.55475 91.6278M114.255 49.9361H201.616M114.255 49.9361L142.76 39.3909M114.255 49.9361H26.8966M114.255 49.9361L84.737 60.8566M201.616 49.9361L228.622 39.3909M201.616 49.9361L173.652 60.8566M201.616 49.9361H288.977M142.76 39.3909H228.622M142.76 39.3909L170.303 29.2028M142.76 39.3909H56.9006M228.622 39.3909H314.481M228.622 39.3909L254.713 29.2028M0.655555 288.22H1.55475M76.4429 288.22L116.643 268.038M76.4429 288.22L34.2453 309.406M76.4429 288.22H197.705M76.4429 288.22H1.55475M116.643 268.038L154.983 248.789M116.643 268.038H235.032M116.643 268.038H1.55475M39.3321 248.789H154.983M39.3321 248.789L78.5534 230.411M39.3321 248.789H1.55475M39.3321 248.789L1.55475 266.491M116.039 212.844H226.576M116.039 212.844L151.904 196.039M116.039 212.844H5.50236M116.039 212.844L78.5534 230.411M226.576 212.844L260.051 196.039M226.576 212.844L191.588 230.411M226.576 212.844H337.114M151.904 196.039H260.051M151.904 196.039H43.7579M151.904 196.039L186.25 179.945M260.051 196.039L292.106 179.945M260.051 196.039H368.197M250.756 149.718H352.312M250.756 149.718L281.083 135.507M250.756 149.718H149.2M250.756 149.718L219.172 164.518M352.312 149.718L380.617 135.507M352.312 149.718L322.834 164.518M352.312 149.718H453.87M281.083 135.507H380.617M281.083 135.507H181.549M281.083 135.507L310.227 121.851M380.617 135.507L407.818 121.851M380.617 135.507H480.153M365.228 96.0781H459.152M365.228 96.0781L391.206 83.905M365.228 96.0781H271.303M365.228 96.0781L338.254 108.717M459.152 96.0781L483.399 83.905M459.152 96.0781L433.976 108.717M459.152 96.0781H553.077M391.206 83.905H483.399M391.206 83.905H299.014M391.206 83.905L416.245 72.1723M483.399 83.905L506.769 72.1723M483.399 83.905H575.592M463.696 49.9361H551.057M463.696 49.9361L486.2 39.3909M463.696 49.9361H376.337M463.696 49.9361L440.393 60.8566M551.057 49.9361L572.06 39.3909M551.057 49.9361L529.306 60.8566M551.057 49.9361H638.417M486.2 39.3909H572.06M486.2 39.3909L507.945 29.2028M486.2 39.3909H400.341M572.06 39.3909H657.921M572.06 39.3909L592.355 29.2028M63.6806 638.121L120.258 598.353M63.6806 638.121L3.0928 680.706M63.6806 638.121H234.722M63.6806 638.121H1.55475M120.258 598.353L173.215 561.132M120.258 598.353H285.642M120.258 598.353H1.55475M119.11 493.409H269.564M119.11 493.409L167.458 462.516M119.11 493.409L67.7612 526.221M119.11 493.409H1.55475M269.564 493.409L313.515 462.516M269.564 493.409L222.883 526.221M269.564 493.409H420.018M167.458 462.516H313.515M167.458 462.516H21.3999M167.458 462.516L213.062 433.375M313.515 462.516L354.974 433.375M313.515 462.516H459.575M296.918 379.791H431.209M296.918 379.791L335.558 355.102M296.918 379.791H162.629M296.918 379.791L256.148 405.845M431.209 379.791L466.335 355.102M431.209 379.791L394.142 405.845M431.209 379.791H565.497M335.558 355.102H466.335M335.558 355.102H204.781M335.558 355.102L372.225 331.672M466.335 355.102L499.67 331.672M466.335 355.102H597.11M440.227 288.22H561.489M440.227 288.22L471.813 268.038M440.227 288.22H318.966M440.227 288.22L407.073 309.406M561.489 288.22L590.202 268.038M561.489 288.22L531.346 309.406M561.489 288.22H682.75M471.813 268.038H590.202M471.813 268.038H353.423M471.813 268.038L501.937 248.789M590.202 268.038L617.588 248.789M590.202 268.038H708.592M558.189 212.844H668.726M558.189 212.844L584.49 196.039M558.189 212.844H447.651M558.189 212.844L530.698 230.411M668.726 212.844L692.637 196.039M668.726 212.844L643.735 230.411M668.726 212.844H779.263M584.49 196.039H692.637M584.49 196.039H476.344M584.49 196.039L609.676 179.945M692.637 196.039L715.534 179.945M692.637 196.039H800.783M656.981 149.718H758.537M656.981 149.718L679.221 135.507M656.981 149.718H555.425M656.981 149.718L633.82 164.518M758.537 149.718L761.111 147.91L778.755 135.507M758.537 149.718L737.482 164.518M758.537 149.718H860.095M679.221 135.507H778.755M679.221 135.507H579.687M679.221 135.507L700.593 121.851M778.755 135.507L798.185 121.851M778.755 135.507H878.291M740.926 96.0781H834.852M740.926 96.0781L759.979 83.905M740.926 96.0781H647.001M740.926 96.0781L721.145 108.717M834.852 96.0781L852.172 83.905M834.852 96.0781L828.189 100.762L816.868 108.717M834.852 96.0781H928.777M759.979 83.905H852.172M759.979 83.905H667.786M759.979 83.905L778.34 72.1723M852.172 83.905L868.863 72.1723M852.172 83.905H944.364M813.137 49.9361H900.497M813.137 49.9361L829.64 39.3909M813.137 49.9361H725.778M813.137 49.9361L796.048 60.8566M900.497 49.9361L911.799 41.9941L913.653 40.6889L915.501 39.3909M900.497 49.9361L884.962 60.8566M900.497 49.9361H987.858M829.64 39.3909H915.501M829.64 39.3909L845.586 29.2028M829.64 39.3909H743.78M915.501 39.3909H1001.36M915.501 39.3909L929.996 29.2028M125.651 1091.13H361.145M125.651 1091.13L199.803 1016.68M125.651 1091.13L44.1697 1172.95M125.651 1091.13L1.55475 1091.13M361.145 1091.13L424.704 1016.68M361.145 1091.13L291.303 1172.95M361.145 1091.13H596.637M199.803 1016.68H424.704M199.803 1016.68L267.571 948.63M199.803 1016.68H1.55475M424.704 1016.68L482.79 948.63M424.704 1016.68H649.603M386.991 828.719H585.151M386.991 828.719L439.872 775.619M386.991 828.719H188.833M386.991 828.719L329.745 886.2M585.151 828.719L630.476 775.619M585.151 828.719L536.082 886.2M585.151 828.719H783.308M439.872 775.619H630.476M439.872 775.619H249.268M439.872 775.619L488.87 726.421M630.476 775.619L672.474 726.421M630.476 775.619H821.08M576.807 638.121H747.848M576.807 638.121L616.412 598.353M576.807 638.121H405.763M576.807 638.121L534.395 680.706M747.848 638.121L781.796 598.353M747.848 638.121L711.496 680.706M747.848 638.121H918.89M616.412 598.353H781.796M616.412 598.353H451.026M616.412 598.353L653.48 561.132M781.796 598.353L813.569 561.132M781.796 598.353H947.18M720.924 493.409H871.378M720.924 493.409L751.692 462.516M720.924 493.409H570.472M720.924 493.409L688.248 526.221M871.378 493.409L897.75 462.516M871.378 493.409L843.37 526.221M871.378 493.409H1021.83M751.692 462.516H897.75M751.692 462.516H605.633M751.692 462.516L780.712 433.375M897.75 462.516L922.625 433.375M897.75 462.516H1043.81M834.075 379.791H968.366M834.075 379.791L858.663 355.102M834.075 379.791H699.786M834.075 379.791L808.129 405.845M968.366 379.791L989.441 355.102M968.366 379.791L946.126 405.845M968.366 379.791H1102.65M858.663 355.102H989.441M858.663 355.102H727.887M858.663 355.102L881.998 331.672M989.441 355.102L1009.44 331.672M989.441 355.102H1120.22M925.272 288.22H1046.53M925.272 288.22L945.372 268.038M925.272 288.22H804.01M925.272 288.22L904.174 309.406M1046.53 288.22L1063.76 268.038M1046.53 288.22L1028.45 309.406M1046.53 288.22H1167.79M945.372 268.038H1063.76M945.372 268.038H826.981M945.372 268.038L964.542 248.789M1063.76 268.038L1080.19 248.789M1063.76 268.038H1182.15M1000.34 212.844H1110.88M1000.34 212.844L1017.08 196.039M1000.34 212.844H889.801M1000.34 212.844L982.845 230.411M1110.88 212.844L1125.22 196.039M1110.88 212.844L1095.88 230.411M1110.88 212.844H1221.41M1017.08 196.039H1125.22M1017.08 196.039H908.928M1017.08 196.039L1033.1 179.945M1125.22 196.039L1138.96 179.945M1125.22 196.039H1233.37M1063.21 149.718H1164.76M1063.21 149.718L1077.36 135.507M1063.21 149.718H961.65M1063.21 149.718L1048.47 164.518M1164.76 149.718L1163.21 151.534L1152.13 164.518M1164.76 149.718L1176.89 135.507M1164.76 149.718H1266.32M1077.36 135.507H1176.89M1077.36 135.507H977.825M1077.36 135.507L1090.96 121.851M1176.89 135.507L1188.55 121.851M1176.89 135.507H1276.43M1116.63 96.0781H1210.55M1116.63 96.0781L1128.75 83.905M1116.63 96.0781H1022.7M1116.63 96.0781L1104.04 108.717M1210.55 96.0781L1220.94 83.905M1210.55 96.0781L1206.55 100.762L1203.86 103.922L1199.76 108.717M1210.55 96.0781H1304.48M1128.75 83.905H1220.94M1128.75 83.905H1036.56M1128.75 83.905L1140.43 72.1723M1220.94 83.905L1224.74 79.4544L1227.25 76.5212L1230.96 72.1723M1220.94 83.905H1313.14M1162.58 49.9361H1249.94M1162.58 49.9361L1170.49 41.9941L1173.08 39.3909M1162.58 49.9361H1075.22M1162.58 49.9361L1153.08 59.4698L1151.7 60.8566M1249.94 49.9361L1256.72 41.9941L1257.83 40.6889L1258.94 39.3909M1249.94 49.9361L1245.32 55.3474L1240.62 60.8566M1249.94 49.9361H1337.3M1173.08 39.3909H1258.94M1173.08 39.3909L1183.23 29.2028M1173.08 39.3909H1087.22M1258.94 39.3909H1344.8M1258.94 39.3909L1267.64 29.2028M1067.62 1091.13H1303.11M1067.62 1091.13L1099.4 1016.68M1067.62 1091.13H832.131M1067.62 1091.13L1032.7 1172.95M1303.11 1091.13L1324.3 1016.68M1303.11 1091.13L1279.84 1172.95M1303.11 1091.13H1538.61M1099.4 1016.68H1324.3M1099.4 1016.68H874.502M1099.4 1016.68L1128.45 948.63M1324.3 1016.68L1343.66 948.63M1324.3 1016.68H1549.2M1179.63 828.719H1377.78M1179.63 828.719L1202.29 775.619M1179.63 828.719H981.466M1179.63 828.719L1155.09 886.2M1377.78 828.719L1392.89 775.619M1377.78 828.719L1361.43 886.2M1377.78 828.719H1575.94M1202.29 775.619H1392.89M1202.29 775.619H1011.68M1202.29 775.619L1223.29 726.421M1392.89 775.619L1406.89 726.421M1392.89 775.619H1583.5M1260.97 638.121H1432.02M1260.97 638.121L1277.95 598.353M1260.97 638.121H1089.93M1260.97 638.121L1242.8 680.706M1432.02 638.121L1443.33 598.353M1432.02 638.121L1419.9 680.706M1432.02 638.121H1603.06M1277.95 598.353H1443.33M1277.95 598.353H1112.56M1277.95 598.353L1293.83 561.132M1443.33 598.353L1453.92 561.132M1443.33 598.353H1608.72M1322.74 493.409H1473.19M1322.74 493.409L1335.93 462.516M1322.74 493.409H1172.29M1322.74 493.409L1308.74 526.221M1473.19 493.409L1481.98 462.516M1473.19 493.409L1463.86 526.221M1473.19 493.409H1623.65M1335.93 462.516H1481.98M1335.93 462.516H1189.87M1335.93 462.516L1348.36 433.375M1481.98 462.516L1490.28 433.375M1481.98 462.516H1628.04M1371.23 379.791H1505.52M1371.23 379.791L1381.77 355.102M1371.23 379.791H1236.94M1371.23 379.791L1360.11 405.845M1505.52 379.791L1512.55 355.102M1505.52 379.791L1498.11 405.845M1505.52 379.791H1639.81M1381.77 355.102H1512.55M1381.77 355.102H1250.99M1381.77 355.102L1391.77 331.672M1512.55 355.102L1519.21 331.672M1512.55 355.102H1643.32M1410.32 288.22H1531.58M1410.32 288.22L1418.93 268.038M1410.32 288.22H1289.06M1410.32 288.22L1401.27 309.406M1531.58 288.22L1537.32 268.038M1531.58 288.22L1525.55 309.406M1531.58 288.22H1652.84M1418.93 268.038H1537.32M1418.93 268.038H1300.54M1418.93 268.038L1422.06 260.714L1427.15 248.789M1537.32 268.038L1542.8 248.789M1537.32 268.038H1655.71M1442.49 212.844H1553.03M1442.49 212.844L1449.66 196.039M1442.49 212.844H1331.95M1442.49 212.844L1436.9 225.946L1434.99 230.411M1553.03 212.844L1554.84 206.456L1557.81 196.039M1553.03 212.844L1548.03 230.411M1553.03 212.844H1663.56M1449.66 196.039L1450.53 193.989L1456.53 179.945M1449.66 196.039H1557.81M1449.66 196.039H1341.51M1557.81 196.039L1559.55 189.923L1560.12 187.905L1560.69 185.9L1562.39 179.945M1557.81 196.039H1665.95M1469.43 149.718H1570.99M1469.43 149.718L1472.49 142.541L1473.25 140.77L1474 139.006L1474.75 137.253L1475.5 135.507M1469.43 149.718H1367.88M1469.43 149.718L1463.11 164.518M1570.99 149.718L1574.04 139.006L1574.54 137.253L1575.03 135.507M1570.99 149.718L1566.78 164.518M1570.99 149.718H1672.54M1475.5 135.507H1575.03M1475.5 135.507H1375.96M1475.5 135.507L1479.17 126.909L1479.89 125.214L1481.33 121.851M1575.03 135.507L1577.48 126.909L1577.96 125.214L1578.44 123.528L1578.92 121.851M1575.03 135.507H1674.57M1492.33 96.0781H1586.25M1492.33 96.0781L1497.52 83.905M1492.33 96.0781H1398.4M1492.33 96.0781L1491 99.1925L1488.98 103.922L1486.93 108.717M1586.25 96.0781L1585.81 97.6317L1583.11 107.111L1582.65 108.717M1586.25 96.0781L1589.71 83.905M1586.25 96.0781H1680.18M1497.52 83.905H1589.71M1497.52 83.905H1405.33M1497.52 83.905L1502.53 72.1723M1589.71 83.905L1590.98 79.4544L1591.4 77.9842L1591.82 76.5212L1593.05 72.1723M1589.71 83.905H1681.91M1512.02 49.9361H1599.38M1512.02 49.9361L1515.41 41.9941L1516.52 39.3909M1512.02 49.9361H1424.66M1512.02 49.9361L1510.29 53.986L1509.71 55.3474L1509.13 56.7161L1507.36 60.8566M1599.38 49.9361L1599.76 48.5983L1600.52 45.9388L1601.27 43.303L1602.38 39.3909M1599.38 49.9361L1597.84 55.3474L1597.45 56.7161L1596.67 59.4698L1596.27 60.8566M1599.38 49.9361H1686.74M1516.52 39.3909H1602.38M1516.52 39.3909L1520.33 30.4573L1520.87 29.2028M1516.52 39.3909H1430.66M1602.38 39.3909L1602.75 38.0984L1603.11 36.8112L1603.48 35.5296L1603.84 34.2534L1604.92 30.4573L1605.28 29.2028M1602.38 39.3909H1688.24M2009.59 1091.13H2245.09M2009.59 1091.13L1999 1016.68M2009.59 1091.13H1774.1M2009.59 1091.13L2021.23 1172.95M2245.09 1091.13L2223.9 1016.68M2245.09 1091.13L2268.37 1172.95M2245.09 1091.13H2480.58M1999 1016.68H2223.9M1999 1016.68H1774.1M1999 1016.68L1989.32 948.63M2223.9 1016.68L2204.54 948.63M2223.9 1016.68H2448.8M1972.26 828.719H2170.42M1972.26 828.719L1964.7 775.619M1972.26 828.719H1774.1M1972.26 828.719L1980.44 886.2M2170.42 828.719L2155.31 775.619M2170.42 828.719L2186.77 886.2M2170.42 828.719H2368.58M1964.7 775.619H2155.31M1964.7 775.619H1774.1M1964.7 775.619L1957.7 726.421M2155.31 775.619L2141.31 726.421M2155.31 775.619H2345.91M1945.14 638.121H2116.18M1945.14 638.121L1939.48 598.353M1945.14 638.121H1774.1M1945.14 638.121L1951.2 680.706M2116.18 638.121L2104.87 598.353M2116.18 638.121L2128.3 680.706M2116.18 638.121H2287.23M1939.48 598.353H2104.87M1939.48 598.353H1774.1M1939.48 598.353L1934.19 561.132M2104.87 598.353L2094.28 561.132M2104.87 598.353H2270.25M1924.55 493.409H2075.01M1924.55 493.409L1920.16 462.516M1924.55 493.409H1774.1M1924.55 493.409L1929.22 526.221M2075.01 493.409L2066.22 462.516M2075.01 493.409L2084.34 526.221M2075.01 493.409H2225.46M1920.16 462.516H2066.22M1920.16 462.516H1774.1M1920.16 462.516L1916.01 433.375M2066.22 462.516L2057.93 433.375M2066.22 462.516H2212.28M1908.39 379.791H2042.68M1908.39 379.791L1904.88 355.102M1908.39 379.791H1774.1M1908.39 379.791L1912.1 405.845M2042.68 379.791L2035.65 355.102M2042.68 379.791L2050.09 405.845M2042.68 379.791H2176.97M1904.88 355.102H2035.65M1904.88 355.102H1774.1M1904.88 355.102L1901.54 331.672M2035.65 355.102L2028.99 331.672M2035.65 355.102H2166.43M1895.36 288.22H2016.62M1895.36 288.22L1892.49 268.038M1895.36 288.22H1774.1M1895.36 288.22L1898.38 309.406M2016.62 288.22L2010.88 268.038M2016.62 288.22L2022.65 309.406M2016.62 288.22H2137.88M1892.49 268.038H2010.88M1892.49 268.038H1774.1M1892.49 268.038L1889.75 248.789M2010.88 268.038L2005.4 248.789M2010.88 268.038H2129.27M1884.64 212.844H1995.18M1884.64 212.844L1882.25 196.039M1884.64 212.844H1774.1M1884.64 212.844L1887.14 230.411M1995.18 212.844L1990.98 198.1L1990.39 196.039M1995.18 212.844L2000.17 230.411M1995.18 212.844H2105.71M1882.25 196.039L1881.96 193.989L1879.96 179.945M1882.25 196.039H1990.39M1882.25 196.039H1774.1M1990.39 196.039L1988.65 189.923L1988.08 187.905L1987.51 185.9L1985.81 179.945M1990.39 196.039H2098.54M1875.66 149.718H1977.21M1875.66 149.718L1873.63 135.507M1875.66 149.718H1774.1M1875.66 149.718L1876.44 155.196L1876.7 157.042L1876.96 158.896L1877.49 162.634L1877.76 164.518M1977.21 149.718L1974.17 139.006L1973.17 135.507M1977.21 149.718L1981.42 164.518M1977.21 149.718H2078.77M1873.63 135.507H1973.17M1873.63 135.507H1774.1M1873.63 135.507L1871.69 121.851M1973.17 135.507L1970.72 126.909L1970.24 125.214L1969.76 123.528L1969.28 121.851M1973.17 135.507H2072.7M1868.02 96.0781H1961.95M1868.02 96.0781L1866.29 83.905M1868.02 96.0781H1774.1M1868.02 96.0781L1869.82 108.717M1961.95 96.0781L1962.39 97.6317L1965.09 107.111L1965.55 108.717M1961.95 96.0781L1958.49 83.905M1961.95 96.0781H2055.87M1866.29 83.905H1958.49M1866.29 83.905H1774.1M1866.29 83.905L1864.62 72.1723M1958.49 83.905L1957.22 79.4544L1956.8 77.9842L1956.38 76.5212L1955.15 72.1723M1958.49 83.905H2050.68M1861.46 49.9361H1948.82M1861.46 49.9361L1859.96 39.3909M1861.46 49.9361H1774.1M1861.46 49.9361L1863.01 60.8566M1948.82 49.9361L1948.44 48.5983L1947.68 45.9388L1947.31 44.6173L1946.56 41.9941L1946.19 40.6889L1945.82 39.3909M1948.82 49.9361L1950.36 55.3474L1950.75 56.7161L1951.53 59.4698L1951.93 60.8566M1948.82 49.9361H2036.18M1859.96 39.3909L1859.78 38.0984L1859.59 36.8112L1859.41 35.5296L1858.51 29.2028M1859.96 39.3909H1945.82M1859.96 39.3909H1774.1M1945.82 39.3909H2031.68M1945.82 39.3909L1945.09 36.8112L1944.72 35.5296L1944.36 34.2534L1943.28 30.4573L1942.92 29.2028M2951.56 1091.13H3187.06M2951.56 1091.13L2898.6 1016.68M2951.56 1091.13H2716.07M2951.56 1091.13L3009.77 1172.95M3187.06 1091.13L3123.5 1016.68M3187.06 1091.13L3256.9 1172.95M3187.06 1091.13H3422.55M2898.6 1016.68H3123.5M2898.6 1016.68H2673.7M2898.6 1016.68L2850.19 948.63M3123.5 1016.68L3065.41 948.63M3123.5 1016.68H3348.4M2764.89 828.719H2963.05M2764.89 828.719L2727.12 775.619M2764.89 828.719H2566.73M2764.89 828.719L2805.78 886.2M2963.05 828.719L2917.72 775.619M2963.05 828.719L3012.12 886.2M2963.05 828.719H3161.21M2727.12 775.619H2917.72M2727.12 775.619H2536.52M2727.12 775.619L2692.12 726.421M2917.72 775.619L2875.73 726.421M2917.72 775.619H3108.33M2629.31 638.121H2800.35M2629.31 638.121L2601.02 598.353M2629.31 638.121H2458.27M2629.31 638.121L2659.6 680.706M2800.35 638.121L2766.41 598.353M2800.35 638.121L2836.7 680.706M2800.35 638.121H2971.39M2601.02 598.353H2766.41M2601.02 598.353H2435.64M2601.02 598.353L2574.54 561.132M2766.41 598.353L2734.63 561.132M2766.41 598.353H2931.79M2526.37 493.409H2676.82M2526.37 493.409L2504.39 462.516M2526.37 493.409H2375.91M2526.37 493.409L2549.71 526.221M2676.82 493.409L2650.45 462.516M2676.82 493.409L2704.83 526.221M2676.82 493.409H2827.28M2504.39 462.516H2650.45M2504.39 462.516H2358.33M2504.39 462.516L2483.66 433.375M2650.45 462.516L2625.58 433.375M2650.45 462.516H2796.51M2445.55 379.791H2579.83M2445.55 379.791L2427.98 355.102M2445.55 379.791H2311.26M2445.55 379.791L2464.08 405.845M2579.83 379.791L2558.76 355.102M2579.83 379.791L2602.07 405.845M2579.83 379.791H2714.13M2427.98 355.102H2558.76M2427.98 355.102H2297.21M2427.98 355.102L2411.32 331.672M2558.76 355.102L2538.76 331.672M2558.76 355.102H2689.54M2380.41 288.22H2501.67M2380.41 288.22L2366.05 268.038M2380.41 288.22H2259.14M2380.41 288.22L2395.48 309.406M2501.67 288.22L2484.44 268.038M2501.67 288.22L2519.75 309.406M2501.67 288.22H2622.93M2366.05 268.038H2484.44M2366.05 268.038H2247.66M2366.05 268.038L2352.36 248.789M2484.44 268.038L2468.01 248.789M2484.44 268.038H2602.83M2326.79 212.844L2328.32 214.998L2329.86 217.162L2339.28 230.411M2326.79 212.844H2437.32M2326.79 212.844L2314.83 196.039M2326.79 212.844H2216.25M2437.32 212.844L2422.98 196.039M2437.32 212.844L2452.32 230.411M2437.32 212.844H2547.86M2314.83 196.039H2422.98M2314.83 196.039H2206.69M2314.83 196.039L2303.38 179.945M2422.98 196.039L2409.24 179.945M2422.98 196.039H2531.12M2281.88 149.718H2383.44M2281.88 149.718L2271.77 135.507M2281.88 149.718H2180.33M2281.88 149.718L2292.41 164.518M2383.44 149.718L2375.8 140.77L2371.31 135.507M2383.44 149.718L2396.07 164.518M2383.44 149.718H2484.99M2271.77 135.507H2371.31M2271.77 135.507H2172.24M2271.77 135.507L2263.25 123.528L2262.06 121.851M2371.31 135.507L2359.65 121.851M2371.31 135.507H2470.84M2243.72 96.0781H2337.65M2243.72 96.0781L2241.53 92.9908L2235.07 83.905M2243.72 96.0781H2149.8M2243.72 96.0781L2245.94 99.1925L2250.44 105.512L2252.72 108.717M2337.65 96.0781L2327.26 83.905M2337.65 96.0781L2341.65 100.762L2344.34 103.922L2348.44 108.717M2337.65 96.0781H2431.57M2235.07 83.905H2327.26M2235.07 83.905H2142.87M2235.07 83.905L2228.78 75.0638L2226.72 72.1723M2327.26 83.905L2323.46 79.4544L2320.95 76.5212L2317.24 72.1723M2327.26 83.905H2419.45M2210.9 49.9361H2298.26M2210.9 49.9361L2206.18 43.303L2203.4 39.3909M2210.9 49.9361H2123.54M2210.9 49.9361L2218.67 60.8566M2298.26 49.9361L2291.48 41.9941L2290.37 40.6889L2289.26 39.3909M2298.26 49.9361L2302.88 55.3474L2307.58 60.8566M2298.26 49.9361H2385.62M2203.4 39.3909H2289.26M2203.4 39.3909L2199.75 34.2534L2197.94 31.7172L2197.04 30.4573L2196.15 29.2028M2203.4 39.3909H2117.54M2289.26 39.3909H2375.12M2289.26 39.3909L2280.56 29.2028M3489.54 775.619H3298.93M3489.54 775.619L3426.54 726.421M3489.54 775.619H3546.65M3489.54 775.619L3546.65 820.221M3313.48 638.121H3484.52M3313.48 638.121L3262.56 598.353M3313.48 638.121H3142.44M3313.48 638.121L3368.01 680.706M3484.52 638.121L3427.94 598.353M3484.52 638.121L3545.11 680.706M3484.52 638.121H3546.65M3262.56 598.353H3427.94M3262.56 598.353H3097.17M3262.56 598.353L3214.9 561.132M3427.94 598.353L3374.99 561.132M3427.94 598.353H3546.65M3128.18 493.409H3278.64M3128.18 493.409L3088.63 462.516M3128.18 493.409H2977.73M3128.18 493.409L3170.2 526.221M3278.64 493.409L3234.68 462.516M3278.64 493.409L3325.32 526.221M3278.64 493.409H3429.09M3088.63 462.516H3234.68M3088.63 462.516H2942.57M3088.63 462.516L3051.31 433.375M3234.68 462.516L3193.23 433.375M3234.68 462.516H3380.74M2982.7 379.791H3116.99M2982.7 379.791L2951.09 355.102M2982.7 379.791H2848.41M2982.7 379.791L3016.06 405.845M3116.99 379.791L3081.87 355.102M3116.99 379.791L3154.06 405.845M3116.99 379.791H3251.28M2951.09 355.102H3081.87M2951.09 355.102H2820.31M2951.09 355.102L2921.09 331.672M3081.87 355.102L3048.53 331.672M3081.87 355.102H3212.64M2865.45 288.22H2986.71M2865.45 288.22L2839.61 268.038M2865.45 288.22H2744.19M2865.45 288.22L2892.58 309.406M2986.71 288.22L2958 268.038M2986.71 288.22L3016.85 309.406M2986.71 288.22H3107.97M2839.61 268.038H2958M2839.61 268.038H2721.22M2839.61 268.038L2814.96 248.789M2958 268.038L2930.61 248.789M2958 268.038H3076.39M2768.94 212.844H2879.47M2768.94 212.844L2747.42 196.039M2768.94 212.844H2658.4M2768.94 212.844L2791.43 230.411M2879.47 212.844L2855.56 196.039M2879.47 212.844L2904.47 230.411M2879.47 212.844H2990.01M2747.42 196.039H2855.56M2747.42 196.039H2639.27M2747.42 196.039L2726.81 179.945M2855.56 196.039L2832.67 179.945M2855.56 196.039H2963.71M2688.11 149.718H2789.66M2688.11 149.718L2669.91 135.507M2688.11 149.718H2586.55M2688.11 149.718L2707.06 164.518M2789.66 149.718L2769.45 135.507M2789.66 149.718L2810.72 164.518M2789.66 149.718H2891.22M2669.91 135.507H2769.45M2669.91 135.507H2570.38M2669.91 135.507L2652.42 121.851M2769.45 135.507L2750.02 121.851M2769.45 135.507H2868.98M2619.42 96.0781H2713.35M2619.42 96.0781L2603.84 83.905M2619.42 96.0781H2525.5M2619.42 96.0781L2623.41 99.1925L2625.42 100.762L2635.61 108.717M2713.35 96.0781L2696.03 83.905M2713.35 96.0781L2731.33 108.717M2713.35 96.0781H2807.27M2603.84 83.905H2696.03M2603.84 83.905H2511.64M2603.84 83.905L2588.81 72.1723M2696.03 83.905L2679.34 72.1723M2696.03 83.905H2788.22M2560.34 49.9361H2647.7M2560.34 49.9361L2546.84 39.3909M2560.34 49.9361H2472.98M2560.34 49.9361L2574.33 60.8566M2647.7 49.9361L2636.4 41.9941L2634.55 40.6889L2632.7 39.3909M2647.7 49.9361L2663.24 60.8566M2647.7 49.9361H2735.06M2546.84 39.3909H2632.7M2546.84 39.3909L2535.4 30.4573L2533.79 29.2028M2546.84 39.3909H2460.98M2632.7 39.3909H2718.56M2632.7 39.3909L2618.2 29.2028M3519.86 379.791L3474.2 355.102M3519.86 379.791H3385.57M3519.86 379.791L3546.65 394.274M3519.86 379.791H3546.65M3474.2 355.102H3343.42M3474.2 355.102L3430.86 331.672M3474.2 355.102H3546.65M3350.5 288.22H3471.76M3350.5 288.22L3313.17 268.038M3350.5 288.22H3229.23M3350.5 288.22L3389.68 309.406M3471.76 288.22L3431.56 268.038M3471.76 288.22L3513.96 309.406M3471.76 288.22H3546.65M3313.17 268.038H3431.56M3313.17 268.038H3194.78M3313.17 268.038L3277.57 248.789M3431.56 268.038L3393.22 248.789M3431.56 268.038H3546.65M3211.09 212.844H3321.62M3211.09 212.844L3180 196.039M3211.09 212.844H3100.55M3211.09 212.844L3243.58 230.411M3321.62 212.844L3288.15 196.039M3321.62 212.844L3356.61 230.411M3321.62 212.844H3432.16M3180 196.039H3288.15M3180 196.039H3071.86M3180 196.039L3150.24 179.945M3288.15 196.039L3256.09 179.945M3288.15 196.039H3396.3M3094.33 149.718H3195.89M3094.33 149.718L3068.05 135.507M3094.33 149.718H2992.78M3094.33 149.718L3121.7 164.518M3195.89 149.718L3167.58 135.507M3195.89 149.718L3225.37 164.518M3195.89 149.718H3297.44M3068.05 135.507H3167.58M3068.05 135.507H2968.51M3068.05 135.507L3042.79 121.851M3167.58 135.507L3140.38 121.851M3167.58 135.507H3267.12M2995.12 96.0781H3089.05M2995.12 96.0781L2972.61 83.905M2995.12 96.0781H2901.2M2995.12 96.0781L3018.5 108.717M3089.05 96.0781L3064.8 83.905M3089.05 96.0781L3114.22 108.717M3089.05 96.0781H3182.97M2972.61 83.905H3064.8M2972.61 83.905H2880.41M2972.61 83.905L2950.91 72.1723M3064.8 83.905L3041.43 72.1723M3064.8 83.905H3156.99M2909.78 49.9361H2997.14M2909.78 49.9361L2890.28 39.3909M2909.78 49.9361H2822.42M2909.78 49.9361L2929.98 60.8566M2997.14 49.9361L2976.14 39.3909M2997.14 49.9361L3018.89 60.8566M2997.14 49.9361H3084.5M2890.28 39.3909H2976.14M2890.28 39.3909L2871.44 29.2028M2890.28 39.3909H2804.42M2976.14 39.3909H3062M2976.14 39.3909L2955.85 29.2028M3500.56 149.718L3466.19 135.507M3500.56 149.718H3399M3500.56 149.718L3536.35 164.518M3500.56 149.718H3546.65M3466.19 135.507H3366.65M3466.19 135.507L3433.16 121.851M3466.19 135.507H3546.65M3370.82 96.0781H3464.75M3370.82 96.0781L3341.38 83.905M3370.82 96.0781H3276.9M3370.82 96.0781L3401.39 108.717M3464.75 96.0781L3433.57 83.905M3464.75 96.0781L3497.12 108.717M3464.75 96.0781H3546.65M3341.38 83.905H3433.57M3341.38 83.905H3249.19M3341.38 83.905L3313 72.1723M3433.57 83.905L3403.53 72.1723M3433.57 83.905H3525.76M3259.22 49.9361H3346.58M3259.22 49.9361L3233.72 39.3909M3259.22 49.9361H3171.86M3259.22 49.9361L3285.63 60.8566M3346.58 49.9361L3319.58 39.3909M3346.58 49.9361L3374.55 60.8566M3346.58 49.9361H3433.95M3233.72 39.3909H3319.58M3233.72 39.3909L3209.08 29.2028M3233.72 39.3909H3147.86M3319.58 39.3909H3405.44M3319.58 39.3909L3293.49 29.2028M3374.55 60.8566L3403.53 72.1723M3374.55 60.8566H3463.46M3374.55 60.8566H3285.63M3433.95 49.9361L3405.44 39.3909M3433.95 49.9361L3463.46 60.8566M3433.95 49.9361H3521.3M3405.44 39.3909H3491.3M3405.44 39.3909L3377.9 29.2028M3293.49 29.2028H3209.08M3293.49 29.2028H3377.9M3293.49 29.2028L3268.26 19.3519M3463.46 60.8566L3494.05 72.1723M3463.46 60.8566H3546.65M3521.3 49.9361L3491.3 39.3909M3521.3 49.9361L3546.65 58.8417M3521.3 49.9361H3546.65M3491.3 39.3909L3462.31 29.2028M3491.3 39.3909H3546.65M3377.9 29.2028H3462.31M3377.9 29.2028L3351.27 19.3519M3462.31 29.2028L3434.28 19.3519M3462.31 29.2028H3546.65M3403.53 72.1723H3494.05M3403.53 72.1723H3313M3525.76 83.905L3494.05 72.1723M3525.76 83.905L3546.65 91.6278M3525.76 83.905H3546.65M3494.05 72.1723H3546.65M3313 72.1723H3222.48M3313 72.1723L3285.63 60.8566M3285.63 60.8566H3196.72M3497.12 108.717L3530.75 121.851M3497.12 108.717H3401.39M3497.12 108.717H3546.65M3546.93 96.0781H3546.65M3530.75 121.851H3433.16M3530.75 121.851L3546.65 128.058M3530.75 121.851H3546.65M3433.16 121.851H3335.57M3433.16 121.851L3401.39 108.717M3401.39 108.717H3305.67M3018.89 60.8566L3041.43 72.1723M3018.89 60.8566H3107.81M3018.89 60.8566H2929.98M3084.5 49.9361L3062 39.3909M3084.5 49.9361L3107.81 60.8566M3084.5 49.9361H3171.86M3062 39.3909H3147.86M3062 39.3909L3040.26 29.2028M2955.85 29.2028H3040.26M2955.85 29.2028L2936.23 19.3519M2955.85 29.2028H2871.44M3107.81 60.8566L3131.95 72.1723M3107.81 60.8566H3196.72M3171.86 49.9361L3147.86 39.3909M3171.86 49.9361L3196.72 60.8566M3147.86 39.3909L3124.67 29.2028M3040.26 29.2028H3124.67M3040.26 29.2028L3019.23 19.3519M3196.72 60.8566L3222.48 72.1723M3209.08 29.2028H3124.67M3209.08 29.2028L3185.25 19.3519M3124.67 29.2028L3102.24 19.3519M3041.43 72.1723H3131.95M3041.43 72.1723H2950.91M3156.99 83.905L3131.95 72.1723M3156.99 83.905L3182.97 96.0781M3156.99 83.905H3249.19M3131.95 72.1723H3222.48M2950.91 72.1723H2860.38M2950.91 72.1723L2929.98 60.8566M3222.48 72.1723L3249.19 83.905M2929.98 60.8566H2841.07M3182.97 96.0781L3209.95 108.717M3182.97 96.0781H3276.9M3249.19 83.905L3276.9 96.0781M3276.9 96.0781L3305.67 108.717M3114.22 108.717L3140.38 121.851M3114.22 108.717H3209.95M3114.22 108.717H3018.5M3209.95 108.717L3237.97 121.851M3209.95 108.717H3305.67M3305.67 108.717L3335.57 121.851M3140.38 121.851H3237.97M3140.38 121.851H3042.79M3267.12 135.507L3237.97 121.851M3267.12 135.507L3297.44 149.718M3267.12 135.507H3366.65M3237.97 121.851H3335.57M3042.79 121.851H2945.2M3042.79 121.851L3018.5 108.717M3335.57 121.851L3366.65 135.507M3018.5 108.717H2922.78M3297.44 149.718L3329.03 164.518M3297.44 149.718H3399M3366.65 135.507L3399 149.718M3399 149.718L3432.69 164.518M3225.37 164.518L3256.09 179.945M3225.37 164.518H3329.03M3225.37 164.518H3121.7M3329.03 164.518L3361.95 179.945M3329.03 164.518H3432.69M3432.69 164.518L3467.81 179.945M3432.69 164.518H3536.35M3536.35 164.518H3546.65M3536.35 164.518L3546.65 168.773M3256.09 179.945H3361.95M3256.09 179.945H3150.24M3396.3 196.039L3361.95 179.945M3396.3 196.039L3432.16 212.844M3396.3 196.039H3504.44M3361.95 179.945H3467.81M3150.24 179.945H3044.38M3150.24 179.945L3121.7 164.518M3467.81 179.945L3504.44 196.039M3467.81 179.945H3546.65M3121.7 164.518H3018.04M3432.16 212.844L3469.65 230.411M3432.16 212.844H3542.7M3504.44 196.039L3542.7 212.844M3504.44 196.039H3546.65M3547.2 179.945H3546.65M3542.7 212.844L3546.65 214.579M3542.7 212.844H3546.65M3356.61 230.411L3393.22 248.789M3356.61 230.411H3469.65M3356.61 230.411H3243.58M3469.65 230.411L3508.87 248.789M3469.65 230.411H3546.65M3547.6 214.998L3546.65 214.579M3393.22 248.789H3508.87M3393.22 248.789H3277.57M3508.87 248.789H3546.65M3508.87 248.789L3546.65 266.491M3277.57 248.789H3161.91M3277.57 248.789L3243.58 230.411M3243.58 230.411H3130.54M3513.96 309.406H3389.68M3513.96 309.406L3546.65 325.819M3513.96 309.406H3546.65M3547.55 288.22H3546.65M3389.68 309.406H3265.4M3389.68 309.406L3430.86 331.672M3547.01 325.999L3546.65 325.819M2663.24 60.8566L2679.34 72.1723M2663.24 60.8566H2752.15M2663.24 60.8566H2574.33M2735.06 49.9361L2718.56 39.3909M2735.06 49.9361L2752.15 60.8566M2735.06 49.9361H2822.42M2718.56 39.3909H2804.42M2718.56 39.3909L2702.62 29.2028M2618.2 29.2028H2702.62M2618.2 29.2028L2612.89 25.4702L2604.19 19.3519M2618.2 29.2028H2533.79M2752.15 60.8566L2769.86 72.1723M2752.15 60.8566H2841.07M2822.42 49.9361L2804.42 39.3909M2822.42 49.9361L2841.07 60.8566M2804.42 39.3909L2787.03 29.2028M2702.62 29.2028H2787.03M2702.62 29.2028L2687.2 19.3519M2841.07 60.8566L2860.38 72.1723M2871.44 29.2028L2853.22 19.3519M2871.44 29.2028H2787.03M2787.03 29.2028L2784.89 27.9519L2780.65 25.4702L2770.21 19.3519M2679.34 72.1723H2769.86M2679.34 72.1723H2588.81M2788.22 83.905L2769.86 72.1723M2788.22 83.905L2807.27 96.0781M2788.22 83.905H2880.41M2769.86 72.1723H2860.38M2588.81 72.1723H2498.29M2588.81 72.1723L2574.33 60.8566M2860.38 72.1723L2880.41 83.905M2574.33 60.8566H2485.41M2807.27 96.0781L2827.06 108.717M2807.27 96.0781H2901.2M2880.41 83.905L2882.97 85.4005L2901.2 96.0781M2901.2 96.0781L2922.78 108.717M2731.33 108.717L2733.63 110.332L2750.02 121.851M2731.33 108.717H2827.06M2731.33 108.717H2635.61M2827.06 108.717L2847.61 121.851M2827.06 108.717H2922.78M2922.78 108.717L2945.2 121.851M2750.02 121.851H2847.61M2750.02 121.851H2652.42M2868.98 135.507L2847.61 121.851M2868.98 135.507L2891.22 149.718M2868.98 135.507H2968.51M2847.61 121.851H2945.2M2652.42 121.851H2554.83M2652.42 121.851L2635.61 108.717M2945.2 121.851L2968.51 135.507M2635.61 108.717H2539.89M2891.22 149.718L2914.38 164.518M2891.22 149.718H2992.78M2968.51 135.507L2992.78 149.718M2992.78 149.718L3018.04 164.518M2810.72 164.518L2832.67 179.945M2810.72 164.518H2914.38M2810.72 164.518H2707.06M2914.38 164.518L2938.52 179.945M2914.38 164.518H3018.04M3018.04 164.518L3044.38 179.945M2832.67 179.945H2938.52M2832.67 179.945H2726.81M2963.71 196.039L2938.52 179.945M2963.71 196.039L2990.01 212.844M2963.71 196.039H3071.86M2938.52 179.945H3044.38M2726.81 179.945H2620.95M2726.81 179.945L2707.06 164.518M3044.38 179.945L3071.86 196.039M2707.06 164.518H2603.39M2990.01 212.844L3017.5 230.411M2990.01 212.844H3100.55M3071.86 196.039L3100.55 212.844M3100.55 212.844L3130.54 230.411M2904.47 230.411L2930.61 248.789M2904.47 230.411H3017.5M2904.47 230.411H2791.43M3017.5 230.411L3046.26 248.789M3017.5 230.411H3130.54M3130.54 230.411L3161.91 248.789M2930.61 248.789H3046.26M2930.61 248.789H2814.96M3076.39 268.038L3046.26 248.789M3076.39 268.038L3107.97 288.22M3076.39 268.038H3194.78M3046.26 248.789H3161.91M2814.96 248.789H2699.31M2814.96 248.789L2791.43 230.411M3161.91 248.789L3194.78 268.038M2791.43 230.411H2678.39M3107.97 288.22L3141.13 309.406M3107.97 288.22H3229.23M3194.78 268.038L3229.23 288.22M3229.23 288.22L3265.4 309.406M3016.85 309.406L3048.53 331.672M3016.85 309.406H3141.13M3016.85 309.406H2892.58M3141.13 309.406L3175.97 331.672M3141.13 309.406H3265.4M3265.4 309.406L3303.42 331.672M3048.53 331.672H3175.97M3048.53 331.672H2921.09M3212.64 355.102L3175.97 331.672M3212.64 355.102L3251.28 379.791M3212.64 355.102H3343.42M3175.97 331.672H3303.42M2921.09 331.672H2793.64M2921.09 331.672L2892.58 309.406M3303.42 331.672L3343.42 355.102M3303.42 331.672H3430.86M2892.58 309.406H2768.3M3251.28 379.791L3292.05 405.845M3251.28 379.791H3385.57M3343.42 355.102L3385.57 379.791M3430.86 331.672H3546.65M3385.57 379.791L3430.05 405.845M3154.06 405.845L3193.23 433.375M3154.06 405.845H3292.05M3154.06 405.845H3016.06M3292.05 405.845L3335.14 433.375M3292.05 405.845H3430.05M3430.05 405.845L3477.05 433.375M3430.05 405.845H3546.65M3193.23 433.375H3335.14M3193.23 433.375H3051.31M3380.74 462.516L3335.14 433.375M3380.74 462.516L3429.09 493.409M3380.74 462.516H3526.8M3335.14 433.375H3477.05M3051.31 433.375H2909.4M3051.31 433.375L3016.06 405.845M3477.05 433.375L3526.8 462.516M3477.05 433.375H3546.65M3016.06 405.845H2878.07M3429.09 493.409L3480.44 526.221M3429.09 493.409H3546.65M3526.8 462.516H3546.65M3526.8 462.516L3546.65 474.139M3325.32 526.221L3374.99 561.132M3325.32 526.221H3480.44M3325.32 526.221H3170.2M3480.44 526.221L3535.07 561.132M3480.44 526.221H3546.65M3374.99 561.132H3535.07M3374.99 561.132H3214.9M3535.07 561.132L3546.65 568.526M3535.07 561.132H3546.65M3214.9 561.132H3054.81M3214.9 561.132L3170.2 526.221M3170.2 526.221H3015.07M3545.11 680.706H3368.01M3545.11 680.706H3546.65M3545.11 680.706L3546.65 681.788M3368.01 680.706H3190.91M3368.01 680.706L3426.54 726.421M2307.58 60.8566L2311.16 65.0515L2312.37 66.4637L2317.24 72.1723M2307.58 60.8566H2396.5M2307.58 60.8566H2218.67M2385.62 49.9361L2377.71 41.9941L2375.12 39.3909M2385.62 49.9361L2395.12 59.4698L2396.5 60.8566M2385.62 49.9361H2472.98M2375.12 39.3909H2460.98M2375.12 39.3909L2364.97 29.2028M2280.56 29.2028H2364.97M2280.56 29.2028L2277.38 25.4702L2272.15 19.3519M2280.56 29.2028H2196.15M2396.5 60.8566L2399.28 63.6466L2407.77 72.1723M2396.5 60.8566H2485.41M2472.98 49.9361L2460.98 39.3909M2472.98 49.9361L2485.41 60.8566M2460.98 39.3909L2452.24 31.7172L2449.38 29.2028M2364.97 29.2028H2449.38M2364.97 29.2028L2355.16 19.3519M2485.41 60.8566L2498.29 72.1723M2533.79 29.2028L2532.19 27.9519L2521.18 19.3519M2533.79 29.2028H2449.38M2449.38 29.2028L2445.13 25.4702L2438.17 19.3519M2317.24 72.1723H2407.77M2317.24 72.1723H2226.72M2419.45 83.905L2407.77 72.1723M2419.45 83.905L2431.57 96.0781M2419.45 83.905H2511.64M2407.77 72.1723H2498.29M2226.72 72.1723H2136.19M2226.72 72.1723L2218.67 60.8566M2498.29 72.1723L2511.64 83.905M2218.67 60.8566H2129.76M2431.57 96.0781L2439.38 103.922L2440.97 105.512L2444.16 108.717M2431.57 96.0781H2525.5M2511.64 83.905L2525.5 96.0781M2525.5 96.0781L2539.89 108.717M2348.44 108.717L2359.65 121.851M2348.44 108.717H2444.16M2348.44 108.717H2252.72M2444.16 108.717L2457.24 121.851M2444.16 108.717H2539.89M2539.89 108.717L2554.83 121.851M2359.65 121.851H2457.24M2359.65 121.851H2262.06M2470.84 135.507L2462.28 126.909L2460.59 125.214L2457.24 121.851M2470.84 135.507L2484.99 149.718M2470.84 135.507H2570.38M2457.24 121.851H2554.83M2262.06 121.851H2164.47M2262.06 121.851L2252.72 108.717M2554.83 121.851L2570.38 135.507M2252.72 108.717H2156.99M2484.99 149.718L2499.73 164.518M2484.99 149.718H2586.55M2570.38 135.507L2586.55 149.718M2586.55 149.718L2603.39 164.518M2396.07 164.518L2402.59 172.15L2404.24 174.084L2409.24 179.945M2396.07 164.518H2499.73M2396.07 164.518H2292.41M2499.73 164.518L2515.1 179.945M2499.73 164.518H2603.39M2603.39 164.518L2620.95 179.945M2409.24 179.945H2515.1M2409.24 179.945H2303.38M2531.12 196.039L2515.1 179.945M2531.12 196.039L2547.86 212.844M2531.12 196.039H2639.27M2515.1 179.945H2620.95M2303.38 179.945H2197.53M2303.38 179.945L2300.6 176.027L2292.41 164.518M2620.95 179.945L2639.27 196.039M2292.41 164.518H2188.75M2547.86 212.844L2565.36 230.411M2547.86 212.844H2658.4M2639.27 196.039L2658.4 212.844M2658.4 212.844L2678.39 230.411M2452.32 230.411L2468.01 248.789M2452.32 230.411H2565.36M2452.32 230.411H2339.28M2565.36 230.411L2583.66 248.789M2565.36 230.411H2678.39M2678.39 230.411L2699.31 248.789M2468.01 248.789H2583.66M2468.01 248.789H2352.36M2602.83 268.038L2583.66 248.789M2602.83 268.038L2622.93 288.22M2602.83 268.038H2721.22M2583.66 248.789H2699.31M2352.36 248.789H2236.7M2352.36 248.789L2339.28 230.411M2699.31 248.789L2721.22 268.038M2339.28 230.411H2226.25M2622.93 288.22L2644.03 309.406M2622.93 288.22H2744.19M2721.22 268.038L2744.19 288.22M2744.19 288.22L2768.3 309.406M2519.75 309.406L2538.76 331.672M2519.75 309.406H2644.03M2519.75 309.406H2395.48M2644.03 309.406L2666.2 331.672M2644.03 309.406H2768.3M2768.3 309.406L2793.64 331.672M2538.76 331.672H2666.2M2538.76 331.672H2411.32M2689.54 355.102L2666.2 331.672M2689.54 355.102L2714.13 379.791M2689.54 355.102H2820.31M2666.2 331.672H2793.64M2411.32 331.672H2283.87M2411.32 331.672L2395.48 309.406M2793.64 331.672L2820.31 355.102M2395.48 309.406H2271.2M2714.13 379.791L2740.07 405.845M2714.13 379.791H2848.41M2820.31 355.102L2848.41 379.791M2848.41 379.791L2878.07 405.845M2602.07 405.845L2625.58 433.375M2602.07 405.845H2740.07M2602.07 405.845H2464.08M2740.07 405.845L2767.49 433.375M2740.07 405.845H2878.07M2878.07 405.845L2909.4 433.375M2625.58 433.375H2767.49M2625.58 433.375H2483.66M2796.51 462.516L2767.49 433.375M2796.51 462.516L2827.28 493.409M2796.51 462.516H2942.57M2767.49 433.375H2909.4M2483.66 433.375H2341.75M2483.66 433.375L2464.08 405.845M2909.4 433.375L2942.57 462.516M2464.08 405.845H2326.08M2827.28 493.409L2859.95 526.221M2827.28 493.409H2977.73M2942.57 462.516L2977.73 493.409M2977.73 493.409L3015.07 526.221M2704.83 526.221L2734.63 561.132M2704.83 526.221H2859.95M2704.83 526.221H2549.71M2859.95 526.221L2894.72 561.132M2859.95 526.221H3015.07M3015.07 526.221L3054.81 561.132M2734.63 561.132H2894.72M2734.63 561.132H2574.54M2931.79 598.353L2894.72 561.132M2931.79 598.353L2971.39 638.121M2931.79 598.353H3097.17M2894.72 561.132H3054.81M2574.54 561.132H2414.45M2574.54 561.132L2549.71 526.221M3054.81 561.132L3097.17 598.353M2549.71 526.221H2394.59M2971.39 638.121L3013.81 680.706M2971.39 638.121H3142.44M3097.17 598.353L3142.44 638.121M3142.44 638.121L3190.91 680.706M2836.7 680.706L2875.73 726.421M2836.7 680.706H3013.81M2836.7 680.706H2659.6M3013.81 680.706L3059.33 726.421M3013.81 680.706H3190.91M3190.91 680.706L3242.94 726.421M2875.73 726.421H3059.33M2875.73 726.421H2692.12M3108.33 775.619L3059.33 726.421M3108.33 775.619L3161.21 828.719M3108.33 775.619H3298.93M3059.33 726.421H3242.94M2692.12 726.421H2508.52M2692.12 726.421L2659.6 680.706M3242.94 726.421L3298.93 775.619M3242.94 726.421H3426.54M2659.6 680.706H2482.5M3161.21 828.719L3218.46 886.2M3161.21 828.719H3359.37M3298.93 775.619L3359.37 828.719M3426.54 726.421H3546.65M3359.37 828.719L3424.79 886.2M3359.37 828.719H3546.65M3012.12 886.2L3065.41 948.63M3012.12 886.2H3218.46M3012.12 886.2H2805.78M3218.46 886.2L3280.63 948.63M3218.46 886.2H3424.79M3424.79 886.2L3495.85 948.63M3424.79 886.2H3546.65M3065.41 948.63H3280.63M3065.41 948.63H2850.19M3348.4 1016.68L3280.63 948.63M3348.4 1016.68L3422.55 1091.13M3348.4 1016.68H3546.65M3280.63 948.63H3495.85M2850.19 948.63H2634.97M2850.19 948.63L2805.78 886.2M3495.85 948.63H3546.65M3495.85 948.63L3546.65 993.262M2805.78 886.2H2599.45M3422.55 1091.13L3504.03 1172.95M3422.55 1091.13H3546.65M3256.9 1172.95L3334 1263.28M3256.9 1172.95H3504.03M3256.9 1172.95H3009.77M3504.03 1172.95L3546.65 1215.74M3504.03 1172.95H3546.65M3334 1263.28H3074.02M3334 1263.28L3546.65 1263.28M3074.02 1263.28H2814.04M3074.02 1263.28L3009.77 1172.95M3009.77 1172.95H2762.63M1951.93 60.8566L1952.32 62.2489L1952.72 63.6466L1953.12 65.0515L1953.52 66.4637L1954.74 70.7347L1955.15 72.1723M1951.93 60.8566H2040.84M1951.93 60.8566H1863.01M2036.18 49.9361L2032.79 41.9941L2031.68 39.3909M2036.18 49.9361L2039.08 56.7161L2040.84 60.8566M2036.18 49.9361H2123.54M2031.68 39.3909H2117.54M2031.68 39.3909L2028.41 31.7172L2027.33 29.2028M1942.92 29.2028L1942.57 27.9519L1941.16 23.0065L1940.12 19.3519M1942.92 29.2028H2027.33M1942.92 29.2028H1858.51M2040.84 60.8566L2041.44 62.2489L2042.03 63.6466L2042.63 65.0515L2043.24 66.4637L2045.67 72.1723M2040.84 60.8566H2129.76M2123.54 49.9361L2119.02 41.9941L2117.54 39.3909M2123.54 49.9361L2129.76 60.8566M2117.54 39.3909L2114.62 34.2534L2112.46 30.4573L2111.74 29.2028M2027.33 29.2028L2026.8 27.9519L2025.74 25.4702L2024.69 23.0065L2024.17 21.7829L2023.13 19.3519M2027.33 29.2028H2111.74M2129.76 60.8566L2134.56 69.3044L2136.19 72.1723M2196.15 29.2028L2190.88 21.7829L2189.15 19.3519M2196.15 29.2028H2111.74M2111.74 29.2028L2106.83 20.5647L2106.13 19.3519M1955.15 72.1723H2045.67M1955.15 72.1723H1864.62M2050.68 83.905L2045.67 72.1723M2050.68 83.905L2055.87 96.0781M2050.68 83.905H2142.87M2045.67 72.1723H2136.19M1864.62 72.1723H1774.1M1864.62 72.1723L1863.01 60.8566M2136.19 72.1723L2142.87 83.905M1863.01 60.8566H1774.1M2055.87 96.0781L2057.21 99.1925L2059.22 103.922L2061.27 108.717M2055.87 96.0781H2149.8M2142.87 83.905L2143.72 85.4005L2149.8 96.0781M2149.8 96.0781L2150.68 97.6317L2151.57 99.1925L2152.46 100.762L2156.99 108.717M1965.55 108.717L1969.28 121.851M1965.55 108.717H2061.27M1965.55 108.717H1869.82M2061.27 108.717L2066.87 121.851M2061.27 108.717H2156.99M2156.99 108.717L2162.57 118.519L2163.52 120.181L2164.47 121.851M1969.28 121.851H2066.87M1969.28 121.851H1871.69M2072.7 135.507L2073.45 137.253L2074.2 139.006L2074.95 140.77L2078.77 149.718M2072.7 135.507L2069.76 128.611L2069.03 126.909L2068.31 125.214L2066.87 121.851M2072.7 135.507H2172.24M2066.87 121.851H2164.47M1871.69 121.851H1774.1M1871.69 121.851L1869.82 108.717M2164.47 121.851L2172.24 135.507M1869.82 108.717H1774.1M2078.77 149.718L2084.28 162.634L2085.09 164.518M2078.77 149.718H2180.33M2172.24 135.507L2174.23 139.006L2180.33 149.718M2180.33 149.718L2183.44 155.196L2188.75 164.518M1981.42 164.518L1983.6 172.15L1984.15 174.084L1985.81 179.945M1981.42 164.518H2085.09M1981.42 164.518H1877.76M2085.09 164.518L2091.67 179.945M2085.09 164.518H2188.75M2188.75 164.518L2197.53 179.945M1985.81 179.945H2091.67M1985.81 179.945H1879.96M2098.54 196.039L2091.67 179.945M2098.54 196.039L2105.71 212.844M2098.54 196.039H2206.69M2091.67 179.945H2197.53M1879.96 179.945H1774.1M1879.96 179.945L1879.4 176.027L1878.3 168.314L1877.76 164.518M2197.53 179.945L2206.69 196.039M1877.76 164.518H1774.1M2105.71 212.844L2111.3 225.946L2113.21 230.411M2105.71 212.844H2216.25M2206.69 196.039L2216.25 212.844M2216.25 212.844L2221.19 221.53L2226.25 230.411M2000.17 230.411L2005.4 248.789M2000.17 230.411H2113.21M2000.17 230.411H1887.14M2113.21 230.411L2121.05 248.789M2113.21 230.411H2226.25M2226.25 230.411L2236.7 248.789M2005.4 248.789H2121.05M2005.4 248.789H1889.75M2129.27 268.038L2127.18 263.141L2121.05 248.789M2129.27 268.038L2137.88 288.22M2129.27 268.038H2247.66M2121.05 248.789H2236.7M1889.75 248.789H1774.1M1889.75 248.789L1887.14 230.411M2236.7 248.789L2247.66 268.038M1887.14 230.411H1774.1M2137.88 288.22L2146.93 309.406M2137.88 288.22H2259.14M2247.66 268.038L2259.14 288.22M2259.14 288.22L2271.2 309.406M2022.65 309.406L2028.99 331.672M2022.65 309.406H2146.93M2022.65 309.406H1898.38M2146.93 309.406L2156.43 331.672M2146.93 309.406H2271.2M2271.2 309.406L2283.87 331.672M2028.99 331.672H2156.43M2028.99 331.672H1901.54M2166.43 355.102L2156.43 331.672M2166.43 355.102L2176.97 379.791M2166.43 355.102H2297.21M2156.43 331.672H2283.87M1901.54 331.672H1774.1M1901.54 331.672L1898.76 312.129L1898.38 309.406M2283.87 331.672L2297.21 355.102M1898.38 309.406H1774.1M2176.97 379.791L2188.09 405.845M2176.97 379.791H2311.26M2297.21 355.102L2307.67 373.497L2311.26 379.791M2311.26 379.791L2326.08 405.845M2050.09 405.845L2057.93 433.375M2050.09 405.845H2188.09M2050.09 405.845H1912.1M2188.09 405.845L2199.84 433.375M2188.09 405.845H2326.08M2326.08 405.845L2341.75 433.375M2057.93 433.375H2199.84M2057.93 433.375H1916.01M2212.28 462.516L2199.84 433.375M2212.28 462.516L2225.46 493.409M2212.28 462.516H2358.33M2199.84 433.375H2341.75M1916.01 433.375H1774.1M1916.01 433.375L1912.1 405.845M2341.75 433.375L2358.33 462.516M1912.1 405.845H1774.1M2225.46 493.409L2239.47 526.221M2225.46 493.409H2375.91M2358.33 462.516L2375.91 493.409M2375.91 493.409L2394.59 526.221M2084.34 526.221L2094.28 561.132M2084.34 526.221H2239.47M2084.34 526.221H1929.22M2239.47 526.221L2254.37 561.132M2239.47 526.221H2394.59M2394.59 526.221L2414.45 561.132M2094.28 561.132H2254.37M2094.28 561.132H1934.19M2270.25 598.353L2254.37 561.132M2270.25 598.353L2287.23 638.121M2270.25 598.353H2435.64M2254.37 561.132H2414.45M1934.19 561.132H1774.1M1934.19 561.132L1929.22 526.221M2414.45 561.132L2435.64 598.353M1929.22 526.221H1774.1M2287.23 638.121L2305.4 680.706M2287.23 638.121H2458.27M2435.64 598.353L2458.27 638.121M2458.27 638.121L2482.5 680.706M2128.3 680.706L2141.31 726.421M2128.3 680.706H2305.4M2128.3 680.706H1951.2M2305.4 680.706L2324.91 726.421M2305.4 680.706H2482.5M2482.5 680.706L2508.52 726.421M2141.31 726.421H2324.91M2141.31 726.421H1957.7M2345.91 775.619L2324.91 726.421M2345.91 775.619L2368.58 828.719M2345.91 775.619H2536.52M2324.91 726.421H2508.52M1957.7 726.421H1774.1M1957.7 726.421L1951.2 680.706M2508.52 726.421L2536.52 775.619M1951.2 680.706H1774.1M2368.58 828.719L2393.11 886.2M2368.58 828.719H2566.73M2536.52 775.619L2566.73 828.719M2566.73 828.719L2599.45 886.2M2186.77 886.2L2204.54 948.63M2186.77 886.2H2393.11M2186.77 886.2H1980.44M2393.11 886.2L2419.76 948.63M2393.11 886.2H2599.45M2599.45 886.2L2634.97 948.63M2204.54 948.63H2419.76M2204.54 948.63H1989.32M2448.8 1016.68L2419.76 948.63M2448.8 1016.68L2480.58 1091.13M2448.8 1016.68H2673.7M2419.76 948.63H2634.97M1989.32 948.63H1774.1M1989.32 948.63L1980.44 886.2M2634.97 948.63L2673.7 1016.68M1980.44 886.2H1774.1M2480.58 1091.13L2515.5 1172.95M2480.58 1091.13H2716.07M2673.7 1016.68L2716.07 1091.13M2716.07 1091.13L2762.63 1172.95M2268.37 1172.95L2294.07 1263.28M2268.37 1172.95H2515.5M2268.37 1172.95H2021.23M2515.5 1172.95L2554.05 1263.28M2515.5 1172.95H2762.63M2762.63 1172.95L2814.04 1263.28M2554.05 1263.28H2294.07M2554.05 1263.28H2814.04M2294.07 1263.28H2034.08M2034.08 1263.28H1774.1M2034.08 1263.28L2021.23 1172.95M2021.23 1172.95H1774.1M1596.27 60.8566L1595.88 62.2489L1595.48 63.6466L1595.08 65.0515L1594.68 66.4637L1593.87 69.3044L1593.46 70.7347L1593.05 72.1723M1596.27 60.8566H1685.19M1596.27 60.8566H1507.36M1686.74 49.9361L1688.24 39.3909M1686.74 49.9361L1685.19 60.8566M1686.74 49.9361H1774.1M1688.24 39.3909L1688.42 38.0984L1688.61 36.8112L1688.79 35.5296L1689.69 29.2028M1688.24 39.3909H1774.1M1605.28 29.2028L1605.63 27.9519L1607.04 23.0065L1608.08 19.3519M1605.28 29.2028H1689.69M1605.28 29.2028H1520.87M1685.19 60.8566L1684.99 62.2489L1684.79 63.6466L1684.59 65.0515L1683.58 72.1723M1685.19 60.8566H1774.1M1774.1 49.9361V39.3909M1774.1 49.9361V60.8566M1774.1 39.3909V29.2028M1689.69 29.2028H1774.1M1689.69 29.2028L1690.22 25.4702L1690.4 24.2357L1691.09 19.3519M1774.1 60.8566V72.1723M1858.51 29.2028L1857.98 25.4702L1857.8 24.2357L1857.63 23.0065L1857.45 21.7829L1857.28 20.5647L1857.11 19.3519M1858.51 29.2028H1774.1M1774.1 29.2028V19.3519M1593.05 72.1723H1683.58M1593.05 72.1723H1502.53M1681.91 83.905L1681.69 85.4005L1681.48 86.9052L1680.18 96.0781M1681.91 83.905L1683.58 72.1723M1681.91 83.905H1774.1M1683.58 72.1723H1774.1M1502.53 72.1723H1412.01M1502.53 72.1723L1503.75 69.3044L1504.36 67.8813L1504.97 66.4637L1505.57 65.0515L1506.17 63.6466L1506.77 62.2489L1507.36 60.8566M1774.1 72.1723V83.905M1507.36 60.8566H1418.44M1680.18 96.0781L1678.38 108.717M1680.18 96.0781H1774.1M1774.1 83.905V96.0781M1774.1 96.0781V108.717M1582.65 108.717L1578.92 121.851M1582.65 108.717H1678.38M1582.65 108.717H1486.93M1678.38 108.717L1676.51 121.851M1678.38 108.717H1774.1M1774.1 108.717V121.851M1578.92 121.851H1676.51M1578.92 121.851H1481.33M1674.57 135.507L1676.51 121.851M1674.57 135.507L1672.54 149.718M1674.57 135.507H1774.1M1676.51 121.851H1774.1M1481.33 121.851H1383.73M1481.33 121.851L1486.93 108.717M1774.1 121.851V135.507M1486.93 108.717H1391.21M1672.54 149.718L1671.77 155.196L1670.97 160.76L1670.44 164.518M1672.54 149.718H1774.1M1774.1 135.507V149.718M1774.1 149.718V164.518M1566.78 164.518L1564.6 172.15L1564.06 174.084L1562.39 179.945M1566.78 164.518H1670.44M1566.78 164.518H1463.11M1670.44 164.518L1669.9 168.314L1668.8 176.027L1668.24 179.945M1670.44 164.518H1774.1M1774.1 164.518V179.945M1562.39 179.945H1668.24M1562.39 179.945H1456.53M1665.95 196.039L1666.24 193.989L1668.24 179.945M1665.95 196.039L1663.56 212.844M1665.95 196.039H1774.1M1668.24 179.945H1774.1M1456.53 179.945H1350.67M1456.53 179.945L1463.11 164.518M1774.1 179.945V196.039M1463.11 164.518H1359.45M1663.56 212.844L1661.06 230.411M1663.56 212.844H1774.1M1774.1 196.039V212.844M1774.1 212.844V230.411M1548.03 230.411L1542.8 248.789M1548.03 230.411H1661.06M1548.03 230.411H1434.99M1661.06 230.411L1658.45 248.789M1661.06 230.411H1774.1M1774.1 230.411V248.789M1542.8 248.789H1658.45M1542.8 248.789H1427.15M1655.71 268.038L1658.45 248.789M1655.71 268.038L1652.84 288.22M1655.71 268.038H1774.1M1658.45 248.789H1774.1M1427.15 248.789H1311.5M1427.15 248.789L1434.99 230.411M1774.1 248.789V268.038M1434.99 230.411H1321.95M1652.84 288.22L1649.82 309.406M1652.84 288.22H1774.1M1774.1 268.038V288.22M1774.1 288.22V309.406M1525.55 309.406L1519.21 331.672M1525.55 309.406H1649.82M1525.55 309.406H1401.27M1649.82 309.406L1646.66 331.672M1649.82 309.406H1774.1M1774.1 309.406V331.672M1519.21 331.672H1646.66M1519.21 331.672H1391.77M1643.32 355.102L1646.66 331.672M1643.32 355.102L1639.81 379.791M1643.32 355.102H1774.1M1646.66 331.672H1774.1M1391.77 331.672H1264.33M1391.77 331.672L1401.27 309.406M1774.1 331.672V355.102M1401.27 309.406H1277M1639.81 379.791L1636.1 405.845M1639.81 379.791H1774.1M1774.1 355.102V379.791M1774.1 379.791V405.845M1498.11 405.845L1490.28 433.375M1498.11 405.845H1636.1M1498.11 405.845H1360.11M1636.1 405.845L1632.19 433.375M1636.1 405.845H1774.1M1774.1 405.845V433.375M1490.28 433.375H1632.19M1490.28 433.375H1348.36M1628.04 462.516L1632.19 433.375M1628.04 462.516L1623.65 493.409M1628.04 462.516H1774.1M1632.19 433.375H1774.1M1348.36 433.375H1206.45M1348.36 433.375L1360.11 405.845M1774.1 433.375V462.516M1360.11 405.845H1222.12M1623.65 493.409L1618.98 526.221M1623.65 493.409H1774.1M1774.1 462.516V493.409M1774.1 493.409V526.221M1463.86 526.221L1453.92 561.132M1463.86 526.221H1618.98M1463.86 526.221H1308.74M1618.98 526.221L1614.01 561.132M1618.98 526.221H1774.1M1774.1 526.221V561.132M1453.92 561.132H1614.01M1453.92 561.132H1293.83M1608.72 598.353L1614.01 561.132M1608.72 598.353L1603.06 638.121M1608.72 598.353H1774.1M1614.01 561.132H1774.1M1293.83 561.132H1133.75M1293.83 561.132L1308.74 526.221M1774.1 561.132V598.353M1308.74 526.221H1153.61M1603.06 638.121L1597 680.706M1603.06 638.121H1774.1M1774.1 598.353V638.121M1774.1 638.121V680.706M1419.9 680.706L1406.89 726.421M1419.9 680.706H1597M1419.9 680.706H1242.8M1597 680.706L1590.5 726.421M1597 680.706H1774.1M1774.1 680.706V726.421M1406.89 726.421H1590.5M1406.89 726.421H1223.29M1583.5 775.619L1590.5 726.421M1583.5 775.619L1575.94 828.719M1583.5 775.619H1774.1M1590.5 726.421H1774.1M1223.29 726.421H1039.68M1223.29 726.421L1242.8 680.706M1774.1 726.421V775.619M1242.8 680.706H1065.7M1575.94 828.719L1567.76 886.2M1575.94 828.719H1774.1M1774.1 775.619V828.719M1774.1 828.719V886.2M1361.43 886.2L1343.66 948.63M1361.43 886.2H1567.76M1361.43 886.2H1155.09M1567.76 886.2L1558.88 948.63M1567.76 886.2H1774.1M1774.1 886.2V948.63M1343.66 948.63H1558.88M1343.66 948.63H1128.45M1549.2 1016.68L1558.88 948.63M1549.2 1016.68L1538.61 1091.13M1549.2 1016.68H1774.1M1558.88 948.63H1774.1M1128.45 948.63H913.227M1128.45 948.63L1155.09 886.2M1774.1 948.63V1016.68M1155.09 886.2H948.755M1538.61 1091.13L1526.97 1172.95M1538.61 1091.13H1774.1M1774.1 1016.68V1091.13M1774.1 1091.13V1172.95M1279.84 1172.95L1254.13 1263.28M1279.84 1172.95H1526.97M1279.84 1172.95H1032.7M1526.97 1172.95L1514.12 1263.28M1526.97 1172.95H1774.1M1774.1 1172.95V1263.28M1514.12 1263.28H1254.13M1514.12 1263.28H1774.1M1254.13 1263.28H994.149M994.149 1263.28H734.164M994.149 1263.28L1032.7 1172.95M1032.7 1172.95H785.568M1240.62 60.8566L1235.83 66.4637L1230.96 72.1723M1240.62 60.8566H1329.53M1240.62 60.8566H1151.7M1337.3 49.9361L1344.8 39.3909M1337.3 49.9361L1329.53 60.8566M1337.3 49.9361H1424.66M1344.8 39.3909H1430.66M1344.8 39.3909L1350.26 31.7172L1352.05 29.2028M1267.64 29.2028H1352.05M1267.64 29.2028L1270.82 25.4702L1276.05 19.3519M1267.64 29.2028H1183.23M1329.53 60.8566L1321.48 72.1723M1329.53 60.8566H1418.44M1424.66 49.9361L1430.66 39.3909M1424.66 49.9361L1418.44 60.8566M1430.66 39.3909L1433.59 34.2534L1435.75 30.4573L1436.46 29.2028M1352.05 29.2028H1436.46M1352.05 29.2028L1357.32 21.7829L1359.06 19.3519M1418.44 60.8566L1413.64 69.3044L1412.01 72.1723M1520.87 29.2028L1521.4 27.9519L1522.46 25.4702L1524.03 21.7829L1525.07 19.3519M1520.87 29.2028H1436.46M1436.46 29.2028L1437.17 27.9519L1438.58 25.4702L1442.06 19.3519M1230.96 72.1723H1321.48M1230.96 72.1723H1140.43M1313.14 83.905L1314.2 82.4148L1315.25 80.9301L1319.42 75.0638L1321.48 72.1723M1313.14 83.905L1306.67 92.9908L1304.48 96.0781M1313.14 83.905H1405.33M1321.48 72.1723H1412.01M1140.43 72.1723H1049.91M1140.43 72.1723L1148.92 63.6466L1151.7 60.8566M1412.01 72.1723L1405.33 83.905M1151.7 60.8566H1062.79M1304.48 96.0781L1303.37 97.6317L1302.26 99.1925L1298.9 103.922L1297.76 105.512L1295.49 108.717M1304.48 96.0781H1398.4M1405.33 83.905L1404.48 85.4005L1398.4 96.0781M1398.4 96.0781L1397.52 97.6317L1396.63 99.1925L1395.74 100.762L1391.21 108.717M1199.76 108.717L1188.55 121.851M1199.76 108.717H1295.49M1199.76 108.717H1104.04M1295.49 108.717L1286.14 121.851M1295.49 108.717H1391.21M1391.21 108.717L1383.73 121.851M1188.55 121.851H1286.14M1188.55 121.851H1090.96M1276.43 135.507L1286.14 121.851M1276.43 135.507L1266.32 149.718M1276.43 135.507H1375.96M1286.14 121.851H1383.73M1090.96 121.851H993.368M1090.96 121.851L1104.04 108.717M1383.73 121.851L1375.96 135.507M1104.04 108.717H1008.31M1266.32 149.718L1255.79 164.518M1266.32 149.718H1367.88M1375.96 135.507L1373.97 139.006L1367.88 149.718M1367.88 149.718L1364.76 155.196L1361.59 160.76L1359.45 164.518M1152.13 164.518L1145.61 172.15L1138.96 179.945M1152.13 164.518H1255.79M1152.13 164.518H1048.47M1255.79 164.518L1244.82 179.945M1255.79 164.518H1359.45M1359.45 164.518L1350.67 179.945M1138.96 179.945H1244.82M1138.96 179.945H1033.1M1233.37 196.039L1244.82 179.945M1233.37 196.039L1221.41 212.844M1233.37 196.039H1341.51M1244.82 179.945H1350.67M1033.1 179.945H927.246M1033.1 179.945L1048.47 164.518M1350.67 179.945L1341.51 196.039M1048.47 164.518H944.806M1221.41 212.844L1218.34 217.162L1208.92 230.411M1221.41 212.844H1331.95M1341.51 196.039L1331.95 212.844M1331.95 212.844L1330.73 214.998L1327.01 221.53L1321.95 230.411M1095.88 230.411L1080.19 248.789M1095.88 230.411H1208.92M1095.88 230.411H982.845M1208.92 230.411L1195.84 248.789M1208.92 230.411H1321.95M1321.95 230.411L1311.5 248.789M1080.19 248.789H1195.84M1080.19 248.789H964.542M1182.15 268.038L1190.79 255.903L1195.84 248.789M1182.15 268.038L1167.79 288.22M1182.15 268.038H1300.54M1195.84 248.789H1311.5M964.542 248.789H848.891M964.542 248.789L982.845 230.411M1311.5 248.789L1300.54 268.038M982.845 230.411H869.808M1167.79 288.22L1152.72 309.406M1167.79 288.22H1289.06M1300.54 268.038L1289.06 288.22M1289.06 288.22L1277 309.406M1028.45 309.406L1009.44 331.672M1028.45 309.406H1152.72M1028.45 309.406H904.174M1152.72 309.406L1136.88 331.672M1152.72 309.406H1277M1277 309.406L1264.33 331.672M1009.44 331.672H1136.88M1009.44 331.672H881.998M1120.22 355.102L1136.88 331.672M1120.22 355.102L1102.65 379.791M1120.22 355.102H1250.99M1136.88 331.672H1264.33M881.998 331.672H754.556M881.998 331.672L904.174 309.406M1264.33 331.672L1250.99 355.102M904.174 309.406H779.898M1102.65 379.791L1084.12 405.845M1102.65 379.791H1236.94M1250.99 355.102L1236.94 379.791M1236.94 379.791L1222.12 405.845M946.126 405.845L922.625 433.375M946.126 405.845H1084.12M946.126 405.845H808.129M1084.12 405.845L1064.54 433.375M1084.12 405.845H1222.12M1222.12 405.845L1206.45 433.375M922.625 433.375H1064.54M922.625 433.375H780.712M1043.81 462.516L1064.54 433.375M1043.81 462.516L1021.83 493.409M1043.81 462.516H1189.87M1064.54 433.375H1206.45M780.712 433.375H638.8M780.712 433.375L808.129 405.845M1206.45 433.375L1189.87 462.516M808.129 405.845H670.135M1021.83 493.409L998.492 526.221M1021.83 493.409H1172.29M1189.87 462.516L1172.29 493.409M1172.29 493.409L1153.61 526.221M843.37 526.221L813.569 561.132M843.37 526.221H998.492M843.37 526.221H688.248M998.492 526.221L973.657 561.132M998.492 526.221H1153.61M1153.61 526.221L1133.75 561.132M813.569 561.132H973.657M813.569 561.132H653.48M947.18 598.353L973.657 561.132M947.18 598.353L918.89 638.121M947.18 598.353H1112.56M973.657 561.132H1133.75M653.48 561.132H493.392M653.48 561.132L688.248 526.221M1133.75 561.132L1112.56 598.353M688.248 526.221H533.126M918.89 638.121L888.597 680.706M918.89 638.121H1089.93M1112.56 598.353L1089.93 638.121M1089.93 638.121L1065.7 680.706M711.496 680.706L672.474 726.421M711.496 680.706H888.597M711.496 680.706H534.395M888.597 680.706L856.079 726.421M888.597 680.706H1065.7M1065.7 680.706L1039.68 726.421M672.474 726.421H856.079M672.474 726.421H488.87M821.08 775.619L856.079 726.421M821.08 775.619L783.308 828.719M821.08 775.619H1011.68M856.079 726.421H1039.68M488.87 726.421H305.266M488.87 726.421L534.395 680.706M1039.68 726.421L1011.68 775.619M534.395 680.706H357.294M783.308 828.719L742.418 886.2M783.308 828.719H981.466M1011.68 775.619L981.466 828.719M981.466 828.719L948.755 886.2M536.082 886.2L482.79 948.63M536.082 886.2H742.418M536.082 886.2H329.745M742.418 886.2L698.008 948.63M742.418 886.2H948.755M948.755 886.2L913.227 948.63M482.79 948.63H698.008M482.79 948.63H267.571M649.603 1016.68L698.008 948.63M649.603 1016.68L596.637 1091.13M649.603 1016.68H874.502M698.008 948.63H913.227M267.571 948.63H52.3529M267.571 948.63L329.745 886.2M913.227 948.63L874.502 1016.68M329.745 886.2H123.41M596.637 1091.13L538.437 1172.95M596.637 1091.13H832.131M874.502 1016.68L832.131 1091.13M832.131 1091.13L785.568 1172.95M291.303 1172.95L214.197 1263.28M291.303 1172.95H538.437M291.303 1172.95H44.1697M538.437 1172.95L474.182 1263.28M538.437 1172.95H785.568M785.568 1172.95L734.164 1263.28M474.182 1263.28H214.197M474.182 1263.28H734.164M214.197 1263.28L1.55475 1263.28M44.1697 1172.95L1.55475 1215.74M44.1697 1172.95H1.55475M884.962 60.8566L868.863 72.1723M884.962 60.8566H973.875M884.962 60.8566H796.048M987.858 49.9361L1001.36 39.3909M987.858 49.9361L973.875 60.8566M987.858 49.9361H1075.22M1001.36 39.3909H1087.22M1001.36 39.3909L1014.41 29.2028M929.996 29.2028H1014.41M929.996 29.2028L935.308 25.4702L944.012 19.3519M929.996 29.2028H845.586M973.875 60.8566L959.387 72.1723M973.875 60.8566H1062.79M1075.22 49.9361L1087.22 39.3909M1075.22 49.9361L1062.79 60.8566M1087.22 39.3909L1095.96 31.7172L1098.82 29.2028M1014.41 29.2028L1016.01 27.9519L1027.02 19.3519M1014.41 29.2028H1098.82M1062.79 60.8566L1049.91 72.1723M1183.23 29.2028L1193.04 19.3519M1183.23 29.2028H1098.82M1098.82 29.2028L1103.07 25.4702L1110.03 19.3519M868.863 72.1723H959.387M868.863 72.1723H778.34M944.364 83.905L959.387 72.1723M944.364 83.905L928.777 96.0781M944.364 83.905H1036.56M959.387 72.1723H1049.91M778.34 72.1723H687.816M778.34 72.1723L796.048 60.8566M1049.91 72.1723L1036.56 83.905M796.048 60.8566H707.135M928.777 96.0781L924.787 99.1925L912.591 108.717M928.777 96.0781H1022.7M1036.56 83.905L1022.7 96.0781M1022.7 96.0781L1008.31 108.717M816.868 108.717L814.573 110.332L798.185 121.851M816.868 108.717H912.591M816.868 108.717H721.145M912.591 108.717L895.776 121.851M912.591 108.717H1008.31M1008.31 108.717L1006.48 110.332L993.368 121.851M798.185 121.851H895.776M798.185 121.851H700.593M878.291 135.507L895.776 121.851M878.291 135.507L860.095 149.718M878.291 135.507H977.825M895.776 121.851H993.368M700.593 121.851H603.002M700.593 121.851L721.145 108.717M993.368 121.851L977.825 135.507M721.145 108.717H625.422M860.095 149.718L841.143 164.518M860.095 149.718H961.65M977.825 135.507L961.65 149.718M961.65 149.718L944.806 164.518M737.482 164.518L715.534 179.945M737.482 164.518H841.143M737.482 164.518H633.82M841.143 164.518L821.39 179.945M841.143 164.518H944.806M944.806 164.518L927.246 179.945M715.534 179.945H821.39M715.534 179.945H609.676M800.783 196.039L821.39 179.945M800.783 196.039L779.263 212.844M800.783 196.039H908.928M821.39 179.945H927.246M609.676 179.945H503.82M609.676 179.945L633.82 164.518M927.246 179.945L908.928 196.039M633.82 164.518H530.157M779.263 212.844L756.772 230.411M779.263 212.844H889.801M908.928 196.039L889.801 212.844M889.801 212.844L869.808 230.411M643.735 230.411L617.588 248.789M643.735 230.411H756.772M643.735 230.411H530.698M756.772 230.411L733.239 248.789M756.772 230.411H869.808M869.808 230.411L848.891 248.789M617.588 248.789H733.239M617.588 248.789H501.937M708.592 268.038L733.239 248.789M708.592 268.038L682.75 288.22M708.592 268.038H826.981M733.239 248.789H848.891M501.937 248.789H386.286M501.937 248.789L530.698 230.411M848.891 248.789L826.981 268.038M530.698 230.411H417.662M682.75 288.22L655.622 309.406M682.75 288.22H804.01M826.981 268.038L804.01 288.22M804.01 288.22L779.898 309.406M531.346 309.406L499.67 331.672M531.346 309.406H655.622M531.346 309.406H407.073M655.622 309.406L627.112 331.672M655.622 309.406H779.898M779.898 309.406L754.556 331.672M499.67 331.672H627.112M499.67 331.672H372.225M597.11 355.102L627.112 331.672M597.11 355.102L565.497 379.791M597.11 355.102H727.887M627.112 331.672H754.556M372.225 331.672H244.783M372.225 331.672L407.073 309.406M754.556 331.672L727.887 355.102M407.073 309.406H282.797M565.497 379.791L532.139 405.845M565.497 379.791H699.786M727.887 355.102L699.786 379.791M699.786 379.791L670.135 405.845M394.142 405.845L354.974 433.375M394.142 405.845H532.139M394.142 405.845H256.148M532.139 405.845L496.887 433.375M532.139 405.845H670.135M670.135 405.845L638.8 433.375M354.974 433.375H496.887M354.974 433.375H213.062M459.575 462.516L496.887 433.375M459.575 462.516L420.018 493.409M459.575 462.516H605.633M496.887 433.375H638.8M213.062 433.375H71.1493M213.062 433.375L256.148 405.845M638.8 433.375L605.633 462.516M256.148 405.845H118.151M420.018 493.409L378.005 526.221M420.018 493.409H570.472M605.633 462.516L570.472 493.409M570.472 493.409L533.126 526.221M222.883 526.221L173.215 561.132M222.883 526.221H378.005M222.883 526.221H67.7612M378.005 526.221L333.303 561.132M378.005 526.221H533.126M533.126 526.221L493.392 561.132M173.215 561.132H333.303M173.215 561.132H13.1261M285.642 598.353L333.303 561.132M285.642 598.353L234.722 638.121M285.642 598.353H451.026M333.303 561.132H493.392M13.1261 561.132L67.7612 526.221M13.1261 561.132H1.55475M13.1261 561.132L1.55475 568.526M493.392 561.132L451.026 598.353M67.7612 526.221H1.55475M234.722 638.121L180.194 680.706M234.722 638.121H405.763M451.026 598.353L405.763 638.121M405.763 638.121L357.294 680.706M3.0928 680.706H180.194M3.0928 680.706H1.55475M3.0928 680.706L1.55475 681.788M180.194 680.706L121.659 726.421M180.194 680.706H357.294M357.294 680.706L305.266 726.421M58.6639 775.619L121.659 726.421M58.6639 775.619H249.268M58.6639 775.619H1.55475M58.6639 775.619L1.55475 820.221M121.659 726.421H305.266M121.659 726.421H1.55475M305.266 726.421L249.268 775.619M249.268 775.619L188.833 828.719M188.833 828.719L123.41 886.2M188.833 828.719H1.55475M123.41 886.2L52.3529 948.63M123.41 886.2H1.55475M52.3529 948.63H1.55475M52.3529 948.63L1.55475 993.262M529.306 60.8566L506.769 72.1723M529.306 60.8566H618.221M529.306 60.8566H440.393M638.417 49.9361L657.921 39.3909M638.417 49.9361L618.221 60.8566M638.417 49.9361H725.778M657.921 39.3909H743.78M657.921 39.3909L676.765 29.2028M592.355 29.2028H676.765M592.355 29.2028L611.975 19.3519M592.355 29.2028H507.945M618.221 60.8566L597.293 72.1723M618.221 60.8566H707.135M725.778 49.9361L743.78 39.3909M725.778 49.9361L707.135 60.8566M743.78 39.3909L761.175 29.2028M676.765 29.2028L679.075 27.9519L694.984 19.3519M676.765 29.2028H761.175M707.135 60.8566L687.816 72.1723M845.586 29.2028L861.001 19.3519M845.586 29.2028H761.175M761.175 29.2028L763.308 27.9519L777.992 19.3519M506.769 72.1723H597.293M506.769 72.1723H416.245M575.592 83.905L597.293 72.1723M575.592 83.905L553.077 96.0781M575.592 83.905H667.786M597.293 72.1723H687.816M416.245 72.1723H325.722M416.245 72.1723L440.393 60.8566M687.816 72.1723L667.786 83.905M440.393 60.8566H351.479M553.077 96.0781L529.699 108.717M553.077 96.0781H647.001M667.786 83.905L665.229 85.4005L647.001 96.0781M647.001 96.0781L625.422 108.717M433.976 108.717L407.818 121.851M433.976 108.717H529.699M433.976 108.717H338.254M529.699 108.717L505.41 121.851M529.699 108.717H625.422M625.422 108.717L603.002 121.851M407.818 121.851H505.41M407.818 121.851H310.227M480.153 135.507L505.41 121.851M480.153 135.507L453.87 149.718M480.153 135.507H579.687M505.41 121.851H603.002M310.227 121.851H212.635M310.227 121.851L338.254 108.717M603.002 121.851L579.687 135.507M338.254 108.717H242.53M453.87 149.718L426.497 164.518M453.87 149.718H555.425M579.687 135.507L555.425 149.718M555.425 149.718L530.157 164.518M322.834 164.518L292.106 179.945M322.834 164.518H426.497M322.834 164.518H219.172M426.497 164.518L397.964 179.945M426.497 164.518H530.157M530.157 164.518L503.82 179.945M292.106 179.945H397.964M292.106 179.945H186.25M368.197 196.039L397.964 179.945M368.197 196.039L337.114 212.844M368.197 196.039H476.344M397.964 179.945H503.82M186.25 179.945H80.3942M186.25 179.945L219.172 164.518M503.82 179.945L476.344 196.039M219.172 164.518H115.511M337.114 212.844L304.625 230.411M337.114 212.844H447.651M476.344 196.039L447.651 212.844M447.651 212.844L417.662 230.411M191.588 230.411L154.983 248.789M191.588 230.411H304.625M191.588 230.411H78.5534M304.625 230.411L270.635 248.789M304.625 230.411H417.662M417.662 230.411L386.286 248.789M154.983 248.789H270.635M235.032 268.038L270.635 248.789M235.032 268.038L197.705 288.22M235.032 268.038H353.423M270.635 248.789H386.286M386.286 248.789L353.423 268.038M78.5534 230.411H1.55475M197.705 288.22L158.521 309.406M197.705 288.22H318.966M353.423 268.038L318.966 288.22M318.966 288.22L282.797 309.406M34.2453 309.406H158.521M34.2453 309.406H1.55475M34.2453 309.406L1.55475 325.818M158.521 309.406L117.339 331.672M158.521 309.406H282.797M282.797 309.406L244.783 331.672M74.0038 355.102L117.339 331.672M74.0038 355.102L28.3405 379.791M74.0038 355.102H204.781M74.0038 355.102H1.55475M117.339 331.672H244.783M117.339 331.672H1.55475M244.783 331.672L204.781 355.102M1.1947 325.999L1.55475 325.818M28.3405 379.791H162.629M28.3405 379.791H1.55475M28.3405 379.791L1.55475 394.274M204.781 355.102L162.629 379.791M162.629 379.791L118.151 405.845M118.151 405.845L71.1493 433.375M118.151 405.845H1.55475M21.3999 462.516L71.1493 433.375M21.3999 462.516H1.55475M21.3999 462.516L1.55475 474.139M71.1493 433.375H1.55475M173.652 60.8566L144.675 72.1723M173.652 60.8566H262.566M173.652 60.8566H84.737M288.977 49.9361L314.481 39.3909M288.977 49.9361L262.566 60.8566M288.977 49.9361H376.337M314.481 39.3909H400.341M314.481 39.3909L339.123 29.2028M254.713 29.2028H339.123M254.713 29.2028L279.939 19.3519M254.713 29.2028H170.303M262.566 60.8566L235.198 72.1723M262.566 60.8566H351.479M376.337 49.9361L400.341 39.3909M376.337 49.9361L351.479 60.8566M400.341 39.3909L423.533 29.2028M339.123 29.2028H423.533M339.123 29.2028L362.949 19.3519M351.479 60.8566L325.722 72.1723M507.945 29.2028L528.966 19.3519M507.945 29.2028H423.533M423.533 29.2028L445.958 19.3519M144.675 72.1723H235.198M144.675 72.1723H54.1513M206.821 83.905L235.198 72.1723M206.821 83.905L177.378 96.0781M206.821 83.905H299.014M235.198 72.1723H325.722M54.1513 72.1723L84.737 60.8566M54.1513 72.1723H1.55475M325.722 72.1723L299.014 83.905M84.737 60.8566H1.55475M177.378 96.0781L146.807 108.717M177.378 96.0781H271.303M299.014 83.905L271.303 96.0781M271.303 96.0781L242.53 108.717M51.0845 108.717L17.4523 121.851M51.0845 108.717H146.807M51.0845 108.717H1.55475M146.807 108.717L115.044 121.851M146.807 108.717H242.53M242.53 108.717L212.635 121.851M82.0154 135.507L115.044 121.851M82.0154 135.507L47.6446 149.718M82.0154 135.507H181.549M82.0154 135.507H1.55475M115.044 121.851H17.4523M115.044 121.851H212.635M17.4523 121.851L1.55475 128.058M17.4523 121.851H1.55475M212.635 121.851L181.549 135.507M47.6446 149.718L11.8484 164.518M47.6446 149.718H149.2M47.6446 149.718H1.55475M181.549 135.507L149.2 149.718M149.2 149.718L115.511 164.518M11.8484 164.518H115.511M11.8484 164.518L1.55475 168.773M11.8484 164.518H1.55475M115.511 164.518L80.3942 179.945M43.7579 196.039L80.3942 179.945M43.7579 196.039L5.50236 212.844M43.7579 196.039H1.55475M80.3942 179.945H1.55475M1.00083 179.945H1.55475M5.50236 212.844H1.55475M5.50236 212.844L1.55475 214.579M0.600151 214.998L1.55475 214.579M26.8966 49.9361L56.9006 39.3909M26.8966 49.9361H1.55475M26.8966 49.9361L1.55475 58.8417M56.9006 39.3909L85.8928 29.2028M56.9006 39.3909H1.55475M170.303 29.2028L196.93 19.3519M170.303 29.2028H85.8928M85.8928 29.2028L113.921 19.3519M85.8928 29.2028H1.55475M2936.23 19.3519H3019.23M2936.23 19.3519H2853.22M2998.9 9.82364L3003.92 12.1767L3019.23 19.3519M2998.9 9.82364H3080.55M3019.23 19.3519H3102.24M3080.55 9.82364L3085.91 12.1767L3088.6 13.3587L3102.24 19.3519M3102.24 19.3519H3185.25M3185.25 19.3519H3268.26M2853.22 19.3519H2770.21M3268.26 19.3519H3351.27M3351.27 19.3519L3325.51 9.82364M3351.27 19.3519H3434.28M3325.51 9.82364H3407.16M2604.19 19.3519H2687.2M2604.19 19.3519H2521.18M2672.29 9.82364L2675.97 12.1767L2677.82 13.3587L2687.2 19.3519M2672.29 9.82364H2753.94M2687.2 19.3519H2770.21M2753.94 9.82364L2770.21 19.3519M2521.18 19.3519H2438.17M2272.15 19.3519H2355.16M2272.15 19.3519H2189.15M2345.67 9.82364L2346.84 10.9965L2348.02 12.1767L2349.2 13.3587L2355.16 19.3519M2345.67 9.82364H2427.33M2355.16 19.3519H2438.17M2427.33 9.82364L2438.17 19.3519M2189.15 19.3519H2106.13M1940.12 19.3519H2023.13M1940.12 19.3519H1857.11M2019.06 9.82364L2023.13 19.3519M2019.06 9.82364H2100.71M2023.13 19.3519H2106.13M2100.71 9.82364L2101.38 10.9965L2102.05 12.1767L2102.73 13.3587L2106.13 19.3519M1857.11 19.3519H1774.1M1608.08 19.3519H1691.09M1608.08 19.3519H1525.07M1692.45 9.82364L1691.09 19.3519M1692.45 9.82364H1774.1M1691.09 19.3519H1774.1M1774.1 9.82364V19.3519M1525.07 19.3519H1442.06M1276.05 19.3519H1359.06M1276.05 19.3519H1193.04M1365.83 9.82364L1364.16 12.1767L1360.77 16.939L1359.06 19.3519M1365.83 9.82364H1447.49M1359.06 19.3519H1442.06M1447.49 9.82364L1446.82 10.9965L1446.15 12.1767L1445.47 13.3587L1442.06 19.3519M1193.04 19.3519H1110.03M944.012 19.3519H1027.02M944.012 19.3519H861.001M1039.22 9.82364L1036.21 12.1767L1034.69 13.3587L1027.02 19.3519M1039.22 9.82364H1120.87M1027.02 19.3519H1110.03M1120.87 9.82364L1119.54 10.9965L1110.03 19.3519M861.001 19.3519H777.992M611.975 19.3519H694.984M611.975 19.3519H528.966M712.608 9.82364L708.256 12.1767L706.066 13.3587L694.984 19.3519M712.608 9.82364H794.261M694.984 19.3519H777.992M794.261 9.82364L792.256 10.9965L777.992 19.3519M528.966 19.3519H445.958M279.939 19.3519H362.949M279.939 19.3519H196.93M385.994 9.82364L362.949 19.3519M385.994 9.82364H467.647M362.949 19.3519H445.958M467.647 9.82364L462.293 12.1767L459.597 13.3587L445.958 19.3519M196.93 19.3519H113.921M59.3822 9.82364L30.9125 19.3519M59.3822 9.82364H141.036M59.3822 9.82364H1.55475M30.9125 19.3519H113.921M30.9125 19.3519L1.55475 29.1787M30.9125 19.3519H1.55475M141.036 9.82364L134.341 12.1767L113.921 19.3519M3407.16 9.82364L3413.86 12.1767L3434.28 19.3519M3434.28 19.3519H3517.29M3517.29 19.3519L3546.65 29.1787M3517.29 19.3519H3546.65M3546.65 474.139V462.516M3546.65 474.139V493.409M3546.65 462.516V433.375M3546.65 493.409V499.167V526.221M3546.65 526.221V561.132M3546.65 248.789V230.411M3546.65 248.789V266.491M3546.65 9.82364V19.3519M3546.65 19.3519V29.1787M3546.65 29.1787L3546.72 29.2028H3546.65M3546.65 29.1787V29.2028M3546.65 29.2028V39.3909M3546.65 39.3909V49.9361M3546.65 49.9361V58.8417M3546.65 58.8417V60.8566M3546.65 60.8566V72.1723M3546.65 72.1723V83.905M3546.65 83.905V91.6278M3546.65 91.6278V96.0781M3546.65 96.0781V108.717M3546.65 108.717V121.851M3546.65 121.851V128.058M3546.65 128.058V135.507M3546.65 135.507V149.718M3546.65 149.718V164.518M3546.65 164.518V168.773M3546.65 168.773V179.945M3546.65 179.945V196.039M3546.65 196.039V212.844M3546.65 212.844V214.579M3546.65 214.579V230.411M3546.65 268.038V288.22M3546.65 268.038V266.491M3546.65 288.22V309.406M3546.65 309.406V325.819M3546.65 325.819V331.672M3546.65 331.672V355.102M3546.65 355.102V379.791M3546.65 379.791V394.274M3546.65 394.274V405.845M3546.65 405.845V433.375M3546.65 561.132V568.526M3546.65 568.526V598.353M3546.65 598.353V638.121M3546.65 638.121V680.706M3546.65 680.706V681.788M3546.65 681.788V726.421M3546.65 726.421V775.619M3546.65 775.619V820.221M3546.65 820.221V828.719M3546.65 828.719V886.2M3546.65 886.2V948.63M3546.65 948.63V993.262M3546.65 993.262V1016.68M3546.65 1016.68V1091.13M3546.65 1091.13V1172.95M3546.65 1172.95V1215.74M3546.65 1215.74V1263.28M3546.65 1263.28V1263.6H1.55475V1263.28M1.55475 268.038V288.22M1.55475 268.038V266.491M1.55475 266.491V248.789M1.55475 248.789V230.411M1.55475 230.411V214.579M1.55475 214.579V212.844M1.55475 212.844V196.039M1.55475 196.039V179.945M1.55475 179.945V168.773M1.55475 168.773V164.518M1.55475 164.518V149.718M1.55475 149.718V135.507M1.55475 135.507V128.058M1.55475 128.058V121.851M1.55475 121.851V108.717M1.55475 108.717V96.0781M1.55475 96.0781V91.6278M1.55475 91.6278V83.905M1.55475 83.905V72.1723M1.55475 72.1723V60.8566M1.55475 60.8566V58.8417M1.55475 58.8417V49.9361M1.55475 49.9361V39.3909M1.55475 39.3909V29.2028M1.55475 29.2028H1.48274L1.55475 29.1787M1.55475 29.2028V29.1787M1.55475 29.1787V19.3519M1.55475 19.3519V9.82364M1.55475 1263.28V1215.74M1.55475 1215.74V1172.95M1.55475 1172.95V1091.13M1.55475 1091.13V1016.68M1.55475 1016.68V993.262M1.55475 993.262V948.63M1.55475 948.63V886.2M1.55475 886.2V828.719M1.55475 828.719V820.221M1.55475 820.221V775.619M1.55475 775.619V726.421M1.55475 726.421V681.788M1.55475 681.788V680.706M1.55475 680.706V638.121M1.55475 638.121V598.353M1.55475 598.353V568.526M1.55475 568.526V561.132M1.55475 561.132V526.221M1.55475 526.221V493.409M1.55475 493.409V474.139M1.55475 474.139V462.516M1.55475 462.516V433.375M1.55475 433.375V405.845M1.55475 405.845V394.274M1.55475 394.274V379.791M1.55475 379.791V355.102M1.55475 355.102V331.672M1.55475 331.672V325.818M1.55475 325.818V309.406M1.55475 309.406V288.22" stroke="url(#paint0_linear_0_47)" stroke-width="1.2" stroke-miterlimit="10" stroke-linecap="round" stroke-linejoin="round"/>
<defs>
<linearGradient id="paint0_linear_0_47" x1="1774.1" y1="0.6" x2="1774.1" y2="886.118" gradientUnits="userSpaceOnUse">
<stop stop-opacity="0"/>
<stop offset="1"/>
</linearGradient>
</defs>
</svg>
