<svg width="232" height="52" viewBox="0 0 232 52" fill="none" xmlns="http://www.w3.org/2000/svg">
<path d="M8.87071 30.4358C8.87097 34.6588 12.2942 38.082 16.5172 38.0823C20.7404 38.0823 24.1644 34.6589 24.1647 30.4358C24.1647 30.1003 24.1766 29.7669 24.1979 29.4368C24.2005 29.396 24.2027 29.3553 24.2057 29.3147C24.2111 29.2393 24.2177 29.1642 24.2242 29.0891C24.2278 29.0481 24.2311 29.007 24.235 28.9661C24.2431 28.8809 24.2518 28.7959 24.2613 28.7112C24.2657 28.6724 24.2704 28.6337 24.275 28.595C24.2992 28.3932 24.327 28.1927 24.359 27.9934C24.3691 27.9307 24.3804 27.8683 24.3912 27.8059C24.5411 26.9413 24.7628 26.1016 25.0514 25.2932C25.0588 25.2725 25.0654 25.2514 25.0729 25.2307C25.1807 24.9326 25.2979 24.639 25.4234 24.3499C25.4354 24.3224 25.4475 24.2952 25.4596 24.2678C27.831 18.893 33.2065 15.1409 39.4586 15.1409C43.8897 15.1409 47.8854 17.0306 50.6734 20.0364L45.067 25.2366C43.6653 23.7255 41.6742 22.7883 39.4586 22.7883C35.2353 22.7884 31.8121 26.2125 31.8121 30.4358L31.8063 30.8303C31.7985 31.1347 31.7807 31.4368 31.7555 31.7366C31.7499 31.8024 31.7443 31.8682 31.7379 31.9338C31.7316 31.9988 31.7245 32.0635 31.7174 32.1282C31.7123 32.1748 31.7073 32.2213 31.7018 32.2678C31.6931 32.3402 31.6841 32.4125 31.6744 32.4846C31.6702 32.5159 31.6661 32.5472 31.6617 32.5784C31.6489 32.6698 31.6351 32.7609 31.6207 32.8518C31.6167 32.8769 31.6131 32.902 31.609 32.927C31.594 33.0185 31.5777 33.1095 31.5611 33.2004C31.5365 33.3352 31.5102 33.4693 31.482 33.6028C31.3476 34.2409 31.1728 34.8639 30.9615 35.47C30.9563 35.4849 30.9512 35.4999 30.9459 35.5149C30.8779 35.7081 30.8065 35.8996 30.7311 36.0891C30.7239 36.107 30.7168 36.1249 30.7096 36.1428C30.3883 36.9409 30.0016 37.7052 29.5563 38.4299C29.5432 38.4511 29.5303 38.4723 29.5172 38.4934C26.8192 42.8367 22.0064 45.7297 16.5172 45.7297C8.07084 45.7295 1.22351 38.8821 1.22325 30.4358V6.11743H8.87071V30.4358ZM33.3404 35.0237C34.7355 36.8809 36.957 38.0821 39.4586 38.0823C41.674 38.0822 43.6654 37.1449 45.067 35.634L50.6734 40.8342C47.8854 43.8398 43.8895 45.7296 39.4586 45.7297C35.6618 45.7296 32.1881 44.3454 29.5143 42.0549C31.2918 40.068 32.62 37.6713 33.3404 35.0237ZM16.5172 15.1418C20.3135 15.1419 23.7859 16.5258 26.4596 18.8157C24.6826 20.8023 23.3538 23.199 22.6334 25.8459C21.2382 23.9896 19.0182 22.7884 16.5172 22.7883C14.3543 22.7884 12.4068 23.6837 11.0113 25.1321V16.1643C12.7198 15.5046 14.5769 15.1419 16.5172 15.1418Z" fill="#143284"/>
<path fill-rule="evenodd" clip-rule="evenodd" d="M8.87055 6.11768V30.4353C8.87055 34.6587 12.2943 38.0824 16.5176 38.0824C20.741 38.0824 24.1647 34.6587 24.1647 30.4353C24.1647 21.9886 31.0121 15.1412 39.4588 15.1412C43.89 15.1412 47.8858 17.0307 50.6739 20.0366L45.0673 25.2369C43.6655 23.7257 41.6745 22.7883 39.4588 22.7883C35.2354 22.7883 31.8117 26.212 31.8117 30.4353C31.8117 38.882 24.9643 45.7294 16.5176 45.7294C8.07091 45.7294 1.2235 38.882 1.2235 30.4353V6.11768H8.87055Z" fill="#3564EF"/>
<path d="M199.461 32.8799C199.461 33.2745 199.483 33.7817 199.525 34.4004C199.568 35.0083 199.701 35.6217 199.925 36.2402C200.149 36.8588 200.511 37.3761 201.013 37.792C201.525 38.208 202.245 38.416 203.173 38.416C203.546 38.416 203.946 38.3576 204.373 38.2402C204.8 38.1229 205.2 37.899 205.573 37.5684C205.947 37.227 206.251 36.7307 206.485 36.0801C206.731 35.4188 206.853 34.5548 206.853 33.4883V24.7197H211.237V42H207.397V40.2148C206.995 40.663 206.532 41.0617 206.005 41.4082C204.896 42.1441 203.493 42.5117 201.797 42.5117C200.442 42.5117 199.339 42.2827 198.485 41.8242C197.632 41.3656 196.965 40.784 196.485 40.0801C196.016 39.3761 195.679 38.645 195.477 37.8877C195.274 37.1199 195.152 36.4212 195.109 35.792C195.067 35.1627 195.045 34.704 195.045 34.416V24.7197H199.461V32.8799Z" fill="#04123B"/>
<path d="M102.503 18.4805C105.148 18.4805 107.367 19.1362 109.159 20.4482C110.962 21.7602 112.231 23.5365 112.967 25.7764L108.583 26.9922C108.156 25.5949 107.436 24.5121 106.423 23.7441C105.41 22.9655 104.103 22.5762 102.503 22.5762C101.042 22.5762 99.8202 22.9011 98.8389 23.5518C97.8683 24.2023 97.1381 25.1199 96.6475 26.3037C96.1568 27.4877 95.9111 28.8805 95.9111 30.4805C95.9112 32.0803 96.1568 33.4724 96.6475 34.6562C97.1381 35.8401 97.8683 36.7576 98.8389 37.4082C99.8202 38.0589 101.042 38.3838 102.503 38.3838C104.103 38.3838 105.41 37.9945 106.423 37.2158C107.436 36.4372 108.156 35.3544 108.583 33.9678L112.967 35.1836C112.231 37.4235 110.962 39.1997 109.159 40.5117C107.367 41.8237 105.148 42.4805 102.503 42.4805C100.199 42.4805 98.2098 41.9782 96.5352 40.9756C94.8712 39.9729 93.5854 38.5702 92.6787 36.7676C91.7829 34.9651 91.335 32.8694 91.335 30.4805C91.335 28.0913 91.7829 25.995 92.6787 24.1924C93.5854 22.3897 94.8712 20.987 96.5352 19.9844C98.2098 18.9817 100.199 18.4805 102.503 18.4805Z" fill="#04123B"/>
<path d="M151.847 18.4805C154.492 18.4805 156.711 19.1362 158.503 20.4482C160.305 21.7602 161.575 23.5365 162.311 25.7764L157.927 26.9922C157.5 25.5949 156.78 24.5121 155.767 23.7441C154.753 22.9655 153.447 22.5762 151.847 22.5762C150.385 22.5762 149.164 22.9011 148.183 23.5518C147.212 24.2023 146.482 25.1199 145.991 26.3037C145.501 27.4877 145.255 28.8805 145.255 30.4805C145.255 32.0803 145.501 33.4724 145.991 34.6562C146.482 35.8401 147.212 36.7576 148.183 37.4082C149.164 38.0589 150.385 38.3838 151.847 38.3838C153.447 38.3838 154.753 37.9945 155.767 37.2158C156.78 36.4372 157.5 35.3544 157.927 33.9678L162.311 35.1836C161.575 37.4235 160.305 39.1997 158.503 40.5117C156.711 41.8237 154.492 42.4805 151.847 42.4805C149.543 42.4805 147.554 41.9782 145.879 40.9756C144.215 39.9729 142.929 38.5702 142.022 36.7676C141.127 34.9651 140.679 32.8694 140.679 30.4805C140.679 28.0913 141.127 25.995 142.022 24.1924C142.929 22.3897 144.215 20.987 145.879 19.9844C147.554 18.9817 149.543 18.4805 151.847 18.4805Z" fill="#04123B"/>
<path fill-rule="evenodd" clip-rule="evenodd" d="M183.078 24.2402C184.817 24.2402 186.342 24.6296 187.654 25.4082C188.977 26.1868 190.006 27.2638 190.742 28.6396C191.478 30.005 191.847 31.579 191.847 33.3604C191.847 35.1522 191.473 36.7364 190.727 38.1123C189.991 39.4775 188.961 40.5495 187.639 41.3281C186.327 42.0961 184.806 42.4805 183.078 42.4805C181.34 42.4804 179.815 42.0901 178.503 41.3115C177.191 40.5329 176.167 39.461 175.431 38.0957C174.705 36.7198 174.343 35.1415 174.343 33.3604C174.343 31.5577 174.716 29.9737 175.463 28.6084C176.21 27.2324 177.239 26.1596 178.551 25.3916C179.863 24.6238 181.372 24.2403 183.078 24.2402ZM183.078 28.3037C182.129 28.3038 181.35 28.5177 180.742 28.9443C180.134 29.3709 179.681 29.9627 179.383 30.7197C179.095 31.4771 178.95 32.3577 178.95 33.3604C178.95 34.9067 179.297 36.1384 179.99 37.0557C180.694 37.9622 181.724 38.4159 183.078 38.416C184.475 38.416 185.516 37.9465 186.198 37.0078C186.892 36.0586 187.238 34.8429 187.238 33.3604C187.238 31.8244 186.887 30.597 186.183 29.6797C185.489 28.7624 184.454 28.3037 183.078 28.3037Z" fill="#04123B"/>
<path fill-rule="evenodd" clip-rule="evenodd" d="M231.229 42H227.389V41.0059C227.269 41.1005 227.147 41.1926 227.021 41.2803C225.869 42.0801 224.434 42.4805 222.717 42.4805C221.128 42.4805 219.736 42.0801 218.541 41.2803C217.346 40.4803 216.413 39.3916 215.741 38.0156C215.08 36.6397 214.749 35.0882 214.749 33.3604C214.749 31.6004 215.085 30.0372 215.757 28.6719C216.439 27.2959 217.394 26.2131 218.621 25.4238C219.848 24.6347 221.287 24.2403 222.94 24.2402C224.468 24.2402 225.769 24.5858 226.845 25.2773V18.96H231.229V42ZM223.581 28.1123C222.61 28.1123 221.81 28.352 221.181 28.832C220.562 29.3014 220.103 29.9364 219.805 30.7363C219.506 31.5256 219.356 32.4005 219.356 33.3604C219.356 34.3308 219.501 35.2158 219.789 36.0156C220.077 36.805 220.52 37.435 221.117 37.9043C221.714 38.3734 222.482 38.6084 223.421 38.6084C224.391 38.6084 225.165 38.3895 225.741 37.9521C226.328 37.5149 226.749 36.9014 227.005 36.1123C227.261 35.3231 227.389 34.4055 227.389 33.3604C227.389 32.3152 227.261 31.3976 227.005 30.6084C226.749 29.8191 226.338 29.2049 225.772 28.7676C225.218 28.3305 224.487 28.1124 223.581 28.1123Z" fill="#04123B"/>
<path fill-rule="evenodd" clip-rule="evenodd" d="M81.4561 18.96C83.0987 18.96 84.4271 19.2908 85.4404 19.9521C86.4536 20.6028 87.1948 21.4241 87.6641 22.416C88.1334 23.4079 88.3681 24.4106 88.3682 25.4238C88.3682 26.7143 88.0748 27.7864 87.4883 28.6396C87.1392 29.1568 86.7089 29.5694 86.1992 29.8789C87.1033 30.2421 87.8159 30.7989 88.3359 31.5518C89.0613 32.5864 89.4238 33.7444 89.4238 35.0244C89.4238 36.4002 89.1682 37.611 88.6562 38.6562C88.1549 39.7015 87.3862 40.5228 86.3516 41.1201C85.317 41.7066 84.0159 42 82.4482 42H72.2402V18.96H81.4561ZM76.6562 37.9043H82C82.5867 37.9043 83.1097 37.7815 83.5684 37.5361C84.0267 37.2802 84.3837 36.9282 84.6396 36.4805C84.9063 36.0219 85.04 35.4828 85.04 34.8643C85.04 34.3203 84.928 33.8348 84.7041 33.4082C84.4801 32.9815 84.1384 32.6457 83.6797 32.4004C83.2317 32.1444 82.672 32.0156 82 32.0156H76.6562V37.9043ZM76.6562 27.9521H81.3916C81.8823 27.9521 82.3201 27.8669 82.7041 27.6963C83.0881 27.5256 83.3922 27.2641 83.6162 26.9121C83.8402 26.5494 83.9521 26.0849 83.9521 25.5195C83.9521 24.8158 83.7331 24.224 83.2959 23.7441C82.8586 23.2641 82.2236 23.0244 81.3916 23.0244H76.6562V27.9521Z" fill="#04123B"/>
<path d="M120.217 34.3516H125.241V28.5918H129.657V34.3516H131.705V38.416H129.657V42H125.241V38.416H115.225V34.3516L122.489 18.96H127.481L120.217 34.3516Z" fill="#04123B"/>
<path d="M170.506 42H166.153V18.4805H170.506V42Z" fill="#04123B"/>
</svg>
