<svg width="52" height="52" viewBox="0 0 52 52" fill="none" xmlns="http://www.w3.org/2000/svg">
<path d="M8.87071 30.4358C8.87097 34.6588 12.2942 38.082 16.5172 38.0823C20.7404 38.0823 24.1644 34.6589 24.1647 30.4358C24.1647 30.1003 24.1766 29.7669 24.1979 29.4368C24.2005 29.396 24.2027 29.3553 24.2057 29.3147C24.2111 29.2393 24.2177 29.1642 24.2242 29.0891C24.2278 29.0481 24.2311 29.007 24.235 28.9661C24.2431 28.8809 24.2518 28.7959 24.2613 28.7112C24.2657 28.6724 24.2704 28.6337 24.275 28.595C24.2992 28.3932 24.327 28.1927 24.359 27.9934C24.3691 27.9307 24.3804 27.8683 24.3912 27.8059C24.5411 26.9413 24.7628 26.1016 25.0514 25.2932C25.0588 25.2725 25.0654 25.2514 25.0729 25.2307C25.1807 24.9326 25.2979 24.639 25.4234 24.3499C25.4354 24.3224 25.4475 24.2952 25.4596 24.2678C27.831 18.893 33.2065 15.1409 39.4586 15.1409C43.8897 15.1409 47.8854 17.0306 50.6734 20.0364L45.067 25.2366C43.6653 23.7255 41.6742 22.7883 39.4586 22.7883C35.2353 22.7884 31.8121 26.2125 31.8121 30.4358L31.8063 30.8303C31.7985 31.1347 31.7807 31.4368 31.7555 31.7366C31.7499 31.8024 31.7443 31.8682 31.7379 31.9338C31.7316 31.9988 31.7245 32.0635 31.7174 32.1282C31.7123 32.1748 31.7073 32.2213 31.7018 32.2678C31.6931 32.3402 31.6841 32.4125 31.6744 32.4846C31.6702 32.5159 31.6661 32.5472 31.6617 32.5784C31.6489 32.6698 31.6351 32.7609 31.6207 32.8518C31.6167 32.8769 31.6131 32.902 31.609 32.927C31.594 33.0185 31.5777 33.1095 31.5611 33.2004C31.5365 33.3352 31.5102 33.4693 31.482 33.6028C31.3476 34.2409 31.1728 34.8639 30.9615 35.47C30.9563 35.4849 30.9512 35.4999 30.9459 35.5149C30.8779 35.7081 30.8065 35.8996 30.7311 36.0891C30.7239 36.107 30.7168 36.1249 30.7096 36.1428C30.3883 36.9409 30.0016 37.7052 29.5563 38.4299C29.5432 38.4511 29.5303 38.4723 29.5172 38.4934C26.8192 42.8367 22.0064 45.7297 16.5172 45.7297C8.07084 45.7295 1.22351 38.8821 1.22325 30.4358V6.11743H8.87071V30.4358ZM33.3404 35.0237C34.7355 36.8809 36.957 38.0821 39.4586 38.0823C41.674 38.0822 43.6654 37.1449 45.067 35.634L50.6734 40.8342C47.8854 43.8398 43.8895 45.7296 39.4586 45.7297C35.6618 45.7296 32.1881 44.3454 29.5143 42.0549C31.2918 40.068 32.62 37.6713 33.3404 35.0237ZM16.5172 15.1418C20.3135 15.1419 23.7859 16.5258 26.4596 18.8157C24.6826 20.8023 23.3538 23.199 22.6334 25.8459C21.2382 23.9896 19.0182 22.7884 16.5172 22.7883C14.3543 22.7884 12.4068 23.6837 11.0113 25.1321V16.1643C12.7198 15.5046 14.5769 15.1419 16.5172 15.1418Z" fill="#143284"/>
<path fill-rule="evenodd" clip-rule="evenodd" d="M8.87055 6.11768V30.4353C8.87055 34.6587 12.2943 38.0824 16.5176 38.0824C20.741 38.0824 24.1647 34.6587 24.1647 30.4353C24.1647 21.9886 31.0121 15.1412 39.4588 15.1412C43.89 15.1412 47.8858 17.0307 50.6739 20.0366L45.0673 25.2369C43.6655 23.7257 41.6745 22.7883 39.4588 22.7883C35.2354 22.7883 31.8117 26.212 31.8117 30.4353C31.8117 38.882 24.9643 45.7294 16.5176 45.7294C8.07091 45.7294 1.2235 38.882 1.2235 30.4353V6.11768H8.87055Z" fill="#3564EF"/>
</svg>
